SplineFontDB: 3.2
FontName: ClassWizXDisplayExt-Regular
FullName: ClassWiz X Display Ext Regular
FamilyName: ClassWiz X Display Ext
Weight: Regular
Copyright: Copyright (c) 2025, Hayden Wong (https://github.com/haydenwong7bm/),\nCopyright (c) 2020-2025, Windy Deng (windy0deng@gmail.com),\nCopyright (c) 2014-2025, CASIO Computer Co., Ltd (https:www.casio.com).
Version: 3.902
ItalicAngle: 0
UnderlinePosition: -20
UnderlineWidth: 10
Ascent: 130
Descent: 10
InvalidEm: 0
LayerCount: 2
Layer: 0 1 "Back" 1
Layer: 1 1 "Fore" 0
XUID: [1021 77 592130673 27890]
StyleMap: 0x0040
FSType: 0
OS2Version: 4
OS2_WeightWidthSlopeOnly: 0
OS2_UseTypoMetrics: 1
CreationTime: 1725260647
ModificationTime: 1741964288
PfmFamily: 81
TTFWeight: 400
TTFWidth: 5
LineGap: 0
VLineGap: 0
Panose: 0 0 0 0 0 0 0 0 0 0
OS2TypoAscent: 130
OS2TypoAOffset: 0
OS2TypoDescent: -10
OS2TypoDOffset: 0
OS2TypoLinegap: 10
OS2WinAscent: 140
OS2WinAOffset: 0
OS2WinDescent: 20
OS2WinDOffset: 0
HheadAscent: 150
HheadAOffset: 0
HheadDescent: -10
HheadDOffset: 0
OS2SubXSize: 110
OS2SubYSize: 130
OS2SubXOff: 0
OS2SubYOff: 5
OS2SupXSize: 110
OS2SupYSize: 130
OS2SupXOff: 0
OS2SupYOff: 15
OS2StrikeYSize: -10
OS2StrikeYPos: 54
OS2CapHeight: 120
OS2XHeight: 90
OS2Vendor: 'NONE'
OS2CodePages: 40060007.00000000
OS2UnicodeRanges: 20000207.18070001.00000000.00000000
Lookup: 1 0 0 "'aalt' Access All Alternates lookup 0" { "'aalt' Access All Alternates lookup 0 subtable"  } ['aalt' ('DFLT' <'dflt' > 'cyrl' <'dflt' > 'hani' <'dflt' > 'kana' <'dflt' > 'latn' <'dflt' > ) ]
Lookup: 1 0 0 "Single Substitution lookup 1" { "Single Substitution lookup 1 subtable"  } []
Lookup: 4 0 0 "Ligature Substitution lookup 2" { "Ligature Substitution lookup 2 subtable"  } []
Lookup: 1 0 0 "Single Substitution lookup 3" { "Single Substitution lookup 3 subtable"  } []
Lookup: 4 0 0 "Ligature Substitution lookup 4" { "Ligature Substitution lookup 4 subtable"  } []

StartChar: .notdef
Encoding: 1114112 -1 0
Width: 110
GlyphClass: 1
Flags: W
LayerCount: 2
Fore
SplineSet
0 -10 m 1,0,-1
 0 120 l 1,1,-1
 100 120 l 1,2,-1
 100 -10 l 1,3,-1
 0 -10 l 1,0,-1
10 0 m 1,4,-1
 90 0 l 1,5,-1
 90 110 l 1,6,-1
 10 110 l 1,7,-1
 10 0 l 1,4,-1
20 70 m 1,8,-1
 20 90 l 1,9,-1
 30 90 l 1,10,-1
 30 100 l 1,11,-1
 70 100 l 1,12,-1
 70 90 l 1,13,-1
 80 90 l 1,14,-1
 80 70 l 1,15,-1
 70 70 l 1,16,-1
 70 60 l 1,17,-1
 60 60 l 1,18,-1
 60 40 l 1,19,-1
 40 40 l 1,20,-1
 40 60 l 1,21,-1
 50 60 l 1,22,-1
 50 70 l 1,23,-1
 60 70 l 1,24,-1
 60 90 l 1,25,-1
 40 90 l 1,26,-1
 40 70 l 1,27,-1
 20 70 l 1,8,-1
40 10 m 1,28,-1
 40 30 l 1,29,-1
 60 30 l 1,30,-1
 60 10 l 1,31,-1
 40 10 l 1,28,-1
EndSplineSet
EndChar

StartChar: one
Encoding: 49 49 4
Width: 110
GlyphClass: 1
Flags: W
LayerCount: 2
Fore
SplineSet
20 0 m 1,0,-1
 20 10 l 1,1,-1
 40 10 l 1,2,-1
 40 100 l 1,3,-1
 20 100 l 1,4,-1
 20 110 l 1,5,-1
 40 110 l 1,6,-1
 40 120 l 1,7,-1
 60 120 l 1,8,-1
 60 10 l 1,9,-1
 80 10 l 1,10,-1
 80 0 l 1,11,-1
 20 0 l 1,0,-1
EndSplineSet
EndChar

StartChar: two
Encoding: 50 50 5
Width: 110
GlyphClass: 1
Flags: W
LayerCount: 2
Fore
SplineSet
10 0 m 1,0,-1
 10 20 l 1,1,-1
 20 20 l 1,2,-1
 20 30 l 1,3,-1
 30 30 l 1,4,-1
 30 40 l 1,5,-1
 40 40 l 1,6,-1
 40 50 l 1,7,-1
 50 50 l 1,8,-1
 50 60 l 1,9,-1
 70 60 l 1,10,-1
 70 70 l 1,11,-1
 80 70 l 1,12,-1
 80 100 l 1,13,-1
 70 100 l 1,14,-1
 70 110 l 1,15,-1
 40 110 l 1,16,-1
 40 100 l 1,17,-1
 30 100 l 1,18,-1
 30 80 l 1,19,-1
 10 80 l 1,20,-1
 10 100 l 1,21,-1
 20 100 l 1,22,-1
 20 110 l 1,23,-1
 30 110 l 1,24,-1
 30 120 l 1,25,-1
 80 120 l 1,26,-1
 80 110 l 1,27,-1
 90 110 l 1,28,-1
 90 100 l 1,29,-1
 100 100 l 1,30,-1
 100 70 l 1,31,-1
 90 70 l 1,32,-1
 90 60 l 1,33,-1
 80 60 l 1,34,-1
 80 50 l 1,35,-1
 60 50 l 1,36,-1
 60 40 l 1,37,-1
 50 40 l 1,38,-1
 50 30 l 1,39,-1
 40 30 l 1,40,-1
 40 20 l 1,41,-1
 90 20 l 1,42,-1
 90 30 l 1,43,-1
 100 30 l 1,44,-1
 100 0 l 1,45,-1
 10 0 l 1,0,-1
EndSplineSet
EndChar

StartChar: three
Encoding: 51 51 6
Width: 110
GlyphClass: 1
Flags: W
LayerCount: 2
Fore
SplineSet
10 30 m 1,0,-1
 30 30 l 1,1,-1
 30 20 l 1,2,-1
 40 20 l 1,3,-1
 40 10 l 1,4,-1
 70 10 l 1,5,-1
 70 20 l 1,6,-1
 80 20 l 1,7,-1
 80 50 l 1,8,-1
 70 50 l 1,9,-1
 70 60 l 1,10,-1
 30 60 l 1,11,-1
 30 70 l 1,12,-1
 70 70 l 1,13,-1
 70 80 l 1,14,-1
 80 80 l 1,15,-1
 80 100 l 1,16,-1
 70 100 l 1,17,-1
 70 110 l 1,18,-1
 40 110 l 1,19,-1
 40 100 l 1,20,-1
 30 100 l 1,21,-1
 30 90 l 1,22,-1
 10 90 l 1,23,-1
 10 110 l 1,24,-1
 20 110 l 1,25,-1
 20 120 l 1,26,-1
 80 120 l 1,27,-1
 80 110 l 1,28,-1
 90 110 l 1,29,-1
 90 100 l 1,30,-1
 100 100 l 1,31,-1
 100 80 l 1,32,-1
 90 80 l 1,33,-1
 90 70 l 1,34,-1
 80 70 l 1,35,-1
 80 60 l 1,36,-1
 90 60 l 1,37,-1
 90 50 l 1,38,-1
 100 50 l 1,39,-1
 100 20 l 1,40,-1
 90 20 l 1,41,-1
 90 10 l 1,42,-1
 80 10 l 1,43,-1
 80 0 l 1,44,-1
 20 0 l 1,45,-1
 20 10 l 1,46,-1
 10 10 l 1,47,-1
 10 30 l 1,0,-1
EndSplineSet
EndChar

StartChar: four
Encoding: 52 52 7
Width: 110
GlyphClass: 1
Flags: W
LayerCount: 2
Fore
SplineSet
10 40 m 1,0,-1
 20 40 l 1,1,-1
 20 60 l 1,2,-1
 30 60 l 1,3,-1
 30 80 l 1,4,-1
 40 80 l 1,5,-1
 40 100 l 1,6,-1
 50 100 l 1,7,-1
 50 110 l 1,8,-1
 60 110 l 1,9,-1
 60 120 l 1,10,-1
 80 120 l 1,11,-1
 80 40 l 1,12,-1
 100 40 l 1,13,-1
 100 30 l 1,14,-1
 80 30 l 1,15,-1
 80 10 l 1,16,-1
 90 10 l 1,17,-1
 90 0 l 1,18,-1
 50 0 l 1,19,-1
 50 10 l 1,20,-1
 60 10 l 1,21,-1
 60 30 l 1,22,-1
 10 30 l 1,23,-1
 10 40 l 1,0,-1
30 60 m 1,24,-1
 30 40 l 1,25,-1
 60 40 l 1,26,-1
 60 100 l 1,27,-1
 50 100 l 1,28,-1
 50 80 l 1,29,-1
 40 80 l 1,30,-1
 40 60 l 1,31,-1
 30 60 l 1,24,-1
EndSplineSet
EndChar

StartChar: colon
Encoding: 58 58 8
Width: 110
GlyphClass: 1
Flags: W
LayerCount: 2
Fore
SplineSet
40 70 m 1,0,-1
 40 100 l 1,1,-1
 70 100 l 1,2,-1
 70 70 l 1,3,-1
 40 70 l 1,0,-1
40 10 m 1,4,-1
 40 40 l 1,5,-1
 70 40 l 1,6,-1
 70 10 l 1,7,-1
 40 10 l 1,4,-1
EndSplineSet
EndChar

StartChar: E
Encoding: 69 69 9
Width: 110
GlyphClass: 1
Flags: W
LayerCount: 2
Fore
SplineSet
10 110 m 1,0,-1
 0 110 l 1,1,-1
 0 120 l 1,2,-1
 100 120 l 1,3,-1
 100 90 l 1,4,-1
 90 90 l 1,5,-1
 90 100 l 1,6,-1
 80 100 l 1,7,-1
 80 110 l 1,8,-1
 30 110 l 1,9,-1
 30 70 l 1,10,-1
 60 70 l 1,11,-1
 60 90 l 1,12,-1
 70 90 l 1,13,-1
 70 40 l 1,14,-1
 60 40 l 1,15,-1
 60 60 l 1,16,-1
 30 60 l 1,17,-1
 30 10 l 1,18,-1
 80 10 l 1,19,-1
 80 20 l 1,20,-1
 90 20 l 1,21,-1
 90 30 l 1,22,-1
 100 30 l 1,23,-1
 100 0 l 1,24,-1
 0 0 l 1,25,-1
 0 10 l 1,26,-1
 10 10 l 1,27,-1
 10 110 l 1,0,-1
EndSplineSet
Substitution2: "'ss01' Style Set 1 lookup 6 subtable" HexE
Substitution2: "'aalt' Access All Alternates lookup 0 subtable" HexE
EndChar

StartChar: F
Encoding: 70 70 10
Width: 110
GlyphClass: 1
Flags: W
LayerCount: 2
Fore
SplineSet
0 120 m 1,0,-1
 100 120 l 1,1,-1
 100 90 l 1,2,-1
 90 90 l 1,3,-1
 90 100 l 1,4,-1
 80 100 l 1,5,-1
 80 110 l 1,6,-1
 30 110 l 1,7,-1
 30 70 l 1,8,-1
 60 70 l 1,9,-1
 60 90 l 1,10,-1
 70 90 l 1,11,-1
 70 40 l 1,12,-1
 60 40 l 1,13,-1
 60 60 l 1,14,-1
 30 60 l 1,15,-1
 30 10 l 1,16,-1
 50 10 l 1,17,-1
 50 0 l 1,18,-1
 0 0 l 1,19,-1
 0 10 l 1,20,-1
 10 10 l 1,21,-1
 10 110 l 1,22,-1
 0 110 l 1,23,-1
 0 120 l 1,0,-1
EndSplineSet
Substitution2: "'ss01' Style Set 1 lookup 6 subtable" HexF
Substitution2: "'aalt' Access All Alternates lookup 0 subtable" HexF
EndChar

StartChar: slash
Encoding: 47 47 11
Width: 110
GlyphClass: 1
Flags: W
LayerCount: 2
Fore
SplineSet
20 0 m 1,0,-1
 20 20 l 1,1,-1
 30 20 l 1,2,-1
 30 50 l 1,3,-1
 40 50 l 1,4,-1
 40 70 l 1,5,-1
 50 70 l 1,6,-1
 50 100 l 1,7,-1
 60 100 l 1,8,-1
 60 120 l 1,9,-1
 80 120 l 1,10,-1
 80 100 l 1,11,-1
 70 100 l 1,12,-1
 70 70 l 1,13,-1
 60 70 l 1,14,-1
 60 50 l 1,15,-1
 50 50 l 1,16,-1
 50 20 l 1,17,-1
 40 20 l 1,18,-1
 40 0 l 1,19,-1
 20 0 l 1,0,-1
EndSplineSet
Substitution2: "'ss01' Style Set 1 lookup 6 subtable" div
Substitution2: "'aalt' Access All Alternates lookup 0 subtable" div
EndChar

StartChar: M
Encoding: 77 77 12
Width: 110
GlyphClass: 1
Flags: W
LayerCount: 2
Fore
SplineSet
10 110 m 1,0,-1
 0 110 l 1,1,-1
 0 120 l 1,2,-1
 20 120 l 1,3,-1
 20 110 l 1,4,-1
 30 110 l 1,5,-1
 30 80 l 1,6,-1
 40 80 l 1,7,-1
 40 50 l 1,8,-1
 50 50 l 1,9,-1
 50 70 l 1,10,-1
 60 70 l 1,11,-1
 60 110 l 1,12,-1
 70 110 l 1,13,-1
 70 120 l 1,14,-1
 100 120 l 1,15,-1
 100 110 l 1,16,-1
 90 110 l 1,17,-1
 90 10 l 1,18,-1
 100 10 l 1,19,-1
 100 0 l 1,20,-1
 60 0 l 1,21,-1
 60 10 l 1,22,-1
 70 10 l 1,23,-1
 70 70 l 1,24,-1
 60 70 l 1,25,-1
 60 20 l 1,26,-1
 50 20 l 1,27,-1
 50 0 l 1,28,-1
 40 0 l 1,29,-1
 40 20 l 1,30,-1
 30 20 l 1,31,-1
 30 50 l 1,32,-1
 20 50 l 1,33,-1
 20 10 l 1,34,-1
 30 10 l 1,35,-1
 30 0 l 1,36,-1
 0 0 l 1,37,-1
 0 10 l 1,38,-1
 10 10 l 1,39,-1
 10 110 l 1,0,-1
EndSplineSet
EndChar

StartChar: D
Encoding: 68 68 13
Width: 110
GlyphClass: 1
Flags: W
LayerCount: 2
Fore
SplineSet
0 110 m 1,0,-1
 0 120 l 1,1,-1
 70 120 l 1,2,-1
 70 110 l 1,3,-1
 80 110 l 1,4,-1
 80 100 l 1,5,-1
 90 100 l 1,6,-1
 90 80 l 1,7,-1
 100 80 l 1,8,-1
 100 40 l 1,9,-1
 90 40 l 1,10,-1
 90 20 l 1,11,-1
 80 20 l 1,12,-1
 80 10 l 1,13,-1
 70 10 l 1,14,-1
 70 0 l 1,15,-1
 0 0 l 1,16,-1
 0 10 l 1,17,-1
 10 10 l 1,18,-1
 10 110 l 1,19,-1
 0 110 l 1,0,-1
30 110 m 1,20,-1
 30 10 l 1,21,-1
 60 10 l 1,22,-1
 60 20 l 1,23,-1
 70 20 l 1,24,-1
 70 40 l 1,25,-1
 80 40 l 1,26,-1
 80 80 l 1,27,-1
 70 80 l 1,28,-1
 70 100 l 1,29,-1
 60 100 l 1,30,-1
 60 110 l 1,31,-1
 30 110 l 1,20,-1
EndSplineSet
Substitution2: "'ss01' Style Set 1 lookup 6 subtable" HexD
Substitution2: "'aalt' Access All Alternates lookup 0 subtable" HexD
EndChar

StartChar: A
Encoding: 65 65 14
Width: 110
GlyphClass: 1
Flags: W
LayerCount: 2
Fore
SplineSet
0 0 m 1,0,-1
 0 10 l 1,1,-1
 10 10 l 1,2,-1
 10 40 l 1,3,-1
 20 40 l 1,4,-1
 20 70 l 1,5,-1
 30 70 l 1,6,-1
 30 100 l 1,7,-1
 40 100 l 1,8,-1
 40 120 l 1,9,-1
 60 120 l 1,10,-1
 60 100 l 1,11,-1
 70 100 l 1,12,-1
 70 70 l 1,13,-1
 80 70 l 1,14,-1
 80 40 l 1,15,-1
 90 40 l 1,16,-1
 90 10 l 1,17,-1
 100 10 l 1,18,-1
 100 0 l 1,19,-1
 60 0 l 1,20,-1
 60 10 l 1,21,-1
 70 10 l 1,22,-1
 70 40 l 1,23,-1
 20 40 l 1,24,-1
 20 10 l 1,25,-1
 30 10 l 1,26,-1
 30 0 l 1,27,-1
 0 0 l 1,0,-1
30 70 m 1,28,-1
 30 50 l 1,29,-1
 60 50 l 1,30,-1
 60 70 l 1,31,-1
 50 70 l 1,32,-1
 50 100 l 1,33,-1
 40 100 l 1,34,-1
 40 70 l 1,35,-1
 30 70 l 1,28,-1
EndSplineSet
Substitution2: "'ss01' Style Set 1 lookup 6 subtable" HexA
Substitution2: "'aalt' Access All Alternates lookup 0 subtable" HexA
EndChar

StartChar: S
Encoding: 83 83 15
Width: 110
GlyphClass: 1
Flags: W
LayerCount: 2
Fore
SplineSet
10 70 m 1,0,-1
 10 100 l 1,1,-1
 20 100 l 1,2,-1
 20 110 l 1,3,-1
 30 110 l 1,4,-1
 30 120 l 1,5,-1
 80 120 l 1,6,-1
 80 110 l 1,7,-1
 90 110 l 1,8,-1
 90 120 l 1,9,-1
 100 120 l 1,10,-1
 100 80 l 1,11,-1
 90 80 l 1,12,-1
 90 90 l 1,13,-1
 80 90 l 1,14,-1
 80 100 l 1,15,-1
 70 100 l 1,16,-1
 70 110 l 1,17,-1
 40 110 l 1,18,-1
 40 100 l 1,19,-1
 30 100 l 1,20,-1
 30 80 l 1,21,-1
 40 80 l 1,22,-1
 40 70 l 1,23,-1
 70 70 l 1,24,-1
 70 60 l 1,25,-1
 90 60 l 1,26,-1
 90 50 l 1,27,-1
 100 50 l 1,28,-1
 100 20 l 1,29,-1
 90 20 l 1,30,-1
 90 10 l 1,31,-1
 80 10 l 1,32,-1
 80 0 l 1,33,-1
 30 0 l 1,34,-1
 30 10 l 1,35,-1
 20 10 l 1,36,-1
 20 0 l 1,37,-1
 10 0 l 1,38,-1
 10 40 l 1,39,-1
 20 40 l 1,40,-1
 20 30 l 1,41,-1
 30 30 l 1,42,-1
 30 20 l 1,43,-1
 40 20 l 1,44,-1
 40 10 l 1,45,-1
 70 10 l 1,46,-1
 70 20 l 1,47,-1
 80 20 l 1,48,-1
 80 40 l 1,49,-1
 70 40 l 1,50,-1
 70 50 l 1,51,-1
 40 50 l 1,52,-1
 40 60 l 1,53,-1
 20 60 l 1,54,-1
 20 70 l 1,55,-1
 10 70 l 1,0,-1
EndSplineSet
EndChar

StartChar: a
Encoding: 97 97 16
Width: 110
GlyphClass: 1
Flags: W
LayerCount: 2
Fore
SplineSet
10 40 m 1,0,-1
 20 40 l 1,1,-1
 20 50 l 1,2,-1
 30 50 l 1,3,-1
 30 60 l 1,4,-1
 70 60 l 1,5,-1
 70 80 l 1,6,-1
 30 80 l 1,7,-1
 30 70 l 1,8,-1
 20 70 l 1,9,-1
 20 60 l 1,10,-1
 10 60 l 1,11,-1
 10 80 l 1,12,-1
 20 80 l 1,13,-1
 20 90 l 1,14,-1
 80 90 l 1,15,-1
 80 80 l 1,16,-1
 90 80 l 1,17,-1
 90 10 l 1,18,-1
 100 10 l 1,19,-1
 100 0 l 1,20,-1
 80 0 l 1,21,-1
 80 10 l 1,22,-1
 70 10 l 1,23,-1
 70 0 l 1,24,-1
 20 0 l 1,25,-1
 20 10 l 1,26,-1
 10 10 l 1,27,-1
 10 40 l 1,0,-1
30 10 m 1,28,-1
 60 10 l 1,29,-1
 60 20 l 1,30,-1
 70 20 l 1,31,-1
 70 50 l 1,32,-1
 40 50 l 1,33,-1
 40 40 l 1,34,-1
 30 40 l 1,35,-1
 30 10 l 1,28,-1
EndSplineSet
Substitution2: "Single Substitution lookup 1 subtable" cAlth-gk
EndChar

StartChar: b
Encoding: 98 98 17
Width: 110
GlyphClass: 1
Flags: W
LayerCount: 2
Fore
SplineSet
0 110 m 1,0,-1
 0 120 l 1,1,-1
 30 120 l 1,2,-1
 30 80 l 1,3,-1
 40 80 l 1,4,-1
 40 90 l 1,5,-1
 70 90 l 1,6,-1
 70 80 l 1,7,-1
 80 80 l 1,8,-1
 80 70 l 1,9,-1
 90 70 l 1,10,-1
 90 20 l 1,11,-1
 80 20 l 1,12,-1
 80 10 l 1,13,-1
 70 10 l 1,14,-1
 70 0 l 1,15,-1
 40 0 l 1,16,-1
 40 10 l 1,17,-1
 30 10 l 1,18,-1
 30 0 l 1,19,-1
 10 0 l 1,20,-1
 10 110 l 1,21,-1
 0 110 l 1,0,-1
40 70 m 1,22,-1
 30 70 l 1,23,-1
 30 20 l 1,24,-1
 40 20 l 1,25,-1
 40 10 l 1,26,-1
 60 10 l 1,27,-1
 60 20 l 1,28,-1
 70 20 l 1,29,-1
 70 70 l 1,30,-1
 60 70 l 1,31,-1
 60 80 l 1,32,-1
 40 80 l 1,33,-1
 40 70 l 1,22,-1
EndSplineSet
EndChar

StartChar: c
Encoding: 99 99 18
Width: 110
GlyphClass: 1
Flags: W
LayerCount: 2
Fore
SplineSet
20 20 m 1,0,-1
 10 20 l 1,1,-1
 10 70 l 1,2,-1
 20 70 l 1,3,-1
 20 80 l 1,4,-1
 30 80 l 1,5,-1
 30 90 l 1,6,-1
 80 90 l 1,7,-1
 80 80 l 1,8,-1
 90 80 l 1,9,-1
 90 60 l 1,10,-1
 70 60 l 1,11,-1
 70 70 l 1,12,-1
 60 70 l 1,13,-1
 60 80 l 1,14,-1
 40 80 l 1,15,-1
 40 70 l 1,16,-1
 30 70 l 1,17,-1
 30 20 l 1,18,-1
 40 20 l 1,19,-1
 40 10 l 1,20,-1
 70 10 l 1,21,-1
 70 0 l 1,22,-1
 30 0 l 1,23,-1
 30 10 l 1,24,-1
 20 10 l 1,25,-1
 20 20 l 1,0,-1
80 10 m 1,26,-1
 70 10 l 1,27,-1
 70 20 l 1,28,-1
 80 20 l 1,29,-1
 80 30 l 1,30,-1
 90 30 l 1,31,-1
 90 20 l 1,32,-1
 80 20 l 1,33,-1
 80 10 l 1,26,-1
EndSplineSet
Substitution2: "Single Substitution lookup 1 subtable" Calth-gk
EndChar

StartChar: U
Encoding: 85 85 19
Width: 110
GlyphClass: 1
Flags: W
LayerCount: 2
Fore
SplineSet
10 110 m 1,0,-1
 0 110 l 1,1,-1
 0 120 l 1,2,-1
 40 120 l 1,3,-1
 40 110 l 1,4,-1
 30 110 l 1,5,-1
 30 20 l 1,6,-1
 40 20 l 1,7,-1
 40 10 l 1,8,-1
 70 10 l 1,9,-1
 70 0 l 1,10,-1
 30 0 l 1,11,-1
 30 10 l 1,12,-1
 20 10 l 1,13,-1
 20 20 l 1,14,-1
 10 20 l 1,15,-1
 10 110 l 1,0,-1
80 10 m 1,16,-1
 70 10 l 1,17,-1
 70 20 l 1,18,-1
 80 20 l 1,19,-1
 80 110 l 1,20,-1
 70 110 l 1,21,-1
 70 120 l 1,22,-1
 100 120 l 1,23,-1
 100 110 l 1,24,-1
 90 110 l 1,25,-1
 90 20 l 1,26,-1
 80 20 l 1,27,-1
 80 10 l 1,16,-1
EndSplineSet
EndChar

StartChar: asciitilde
Encoding: 126 126 20
Width: 110
GlyphClass: 1
Flags: W
LayerCount: 2
Fore
SplineSet
0 50 m 1,0,-1
 0 70 l 1,1,-1
 10 70 l 1,2,-1
 10 80 l 1,3,-1
 50 80 l 1,4,-1
 50 70 l 1,5,-1
 60 70 l 1,6,-1
 60 60 l 1,7,-1
 80 60 l 1,8,-1
 80 70 l 1,9,-1
 90 70 l 1,10,-1
 90 80 l 1,11,-1
 100 80 l 1,12,-1
 100 60 l 1,13,-1
 90 60 l 1,14,-1
 90 50 l 1,15,-1
 50 50 l 1,16,-1
 50 60 l 1,17,-1
 40 60 l 1,18,-1
 40 70 l 1,19,-1
 20 70 l 1,20,-1
 20 60 l 1,21,-1
 10 60 l 1,22,-1
 10 50 l 1,23,-1
 0 50 l 1,0,-1
EndSplineSet
EndChar

StartChar: asciicircum
Encoding: 94 94 21
Width: 110
GlyphClass: 1
Flags: W
LayerCount: 2
Fore
SplineSet
10 80 m 1,0,-1
 10 90 l 1,1,-1
 20 90 l 1,2,-1
 20 100 l 1,3,-1
 30 100 l 1,4,-1
 30 110 l 1,5,-1
 40 110 l 1,6,-1
 40 120 l 1,7,-1
 60 120 l 1,8,-1
 60 110 l 1,9,-1
 70 110 l 1,10,-1
 70 100 l 1,11,-1
 80 100 l 1,12,-1
 80 90 l 1,13,-1
 90 90 l 1,14,-1
 90 80 l 1,15,-1
 70 80 l 1,16,-1
 70 90 l 1,17,-1
 60 90 l 1,18,-1
 60 100 l 1,19,-1
 40 100 l 1,20,-1
 40 90 l 1,21,-1
 30 90 l 1,22,-1
 30 80 l 1,23,-1
 10 80 l 1,0,-1
EndSplineSet
EndChar

StartChar: radical
Encoding: 8730 8730 22
Width: 110
GlyphClass: 1
Flags: W
LayerCount: 2
Fore
SplineSet
0 70 m 1,0,-1
 0 80 l 1,1,-1
 30 80 l 1,2,-1
 30 50 l 1,3,-1
 40 50 l 1,4,-1
 40 30 l 1,5,-1
 50 30 l 1,6,-1
 50 80 l 1,7,-1
 60 80 l 1,8,-1
 60 120 l 1,9,-1
 100 120 l 1,10,-1
 100 110 l 1,11,-1
 70 110 l 1,12,-1
 70 70 l 1,13,-1
 60 70 l 1,14,-1
 60 20 l 1,15,-1
 50 20 l 1,16,-1
 50 0 l 1,17,-1
 30 0 l 1,18,-1
 30 20 l 1,19,-1
 20 20 l 1,20,-1
 20 50 l 1,21,-1
 10 50 l 1,22,-1
 10 70 l 1,23,-1
 0 70 l 1,0,-1
EndSplineSet
EndChar

StartChar: product
Encoding: 8719 8719 23
Width: 110
GlyphClass: 1
Flags: W
LayerCount: 2
Fore
SplineSet
0 0 m 1,0,-1
 0 10 l 1,1,-1
 10 10 l 1,2,-1
 10 110 l 1,3,-1
 0 110 l 1,4,-1
 0 120 l 1,5,-1
 100 120 l 1,6,-1
 100 110 l 1,7,-1
 90 110 l 1,8,-1
 90 10 l 1,9,-1
 100 10 l 1,10,-1
 100 0 l 1,11,-1
 60 0 l 1,12,-1
 60 10 l 1,13,-1
 70 10 l 1,14,-1
 70 110 l 1,15,-1
 30 110 l 1,16,-1
 30 10 l 1,17,-1
 40 10 l 1,18,-1
 40 0 l 1,19,-1
 0 0 l 1,0,-1
EndSplineSet
EndChar

StartChar: summation
Encoding: 8721 8721 24
Width: 110
GlyphClass: 1
Flags: W
LayerCount: 2
Fore
SplineSet
0 -10 m 1,0,-1
 0 10 l 1,1,-1
 10 10 l 1,2,-1
 10 20 l 1,3,-1
 20 20 l 1,4,-1
 20 30 l 1,5,-1
 30 30 l 1,6,-1
 30 40 l 1,7,-1
 40 40 l 1,8,-1
 40 50 l 1,9,-1
 50 50 l 1,10,-1
 50 70 l 1,11,-1
 40 70 l 1,12,-1
 40 80 l 1,13,-1
 30 80 l 1,14,-1
 30 90 l 1,15,-1
 20 90 l 1,16,-1
 20 100 l 1,17,-1
 10 100 l 1,18,-1
 10 110 l 1,19,-1
 0 110 l 1,20,-1
 0 120 l 1,21,-1
 100 120 l 1,22,-1
 100 90 l 1,23,-1
 90 90 l 1,24,-1
 90 100 l 1,25,-1
 80 100 l 1,26,-1
 80 110 l 1,27,-1
 40 110 l 1,28,-1
 40 100 l 1,29,-1
 50 100 l 1,30,-1
 50 90 l 1,31,-1
 60 90 l 1,32,-1
 60 80 l 1,33,-1
 70 80 l 1,34,-1
 70 70 l 1,35,-1
 80 70 l 1,36,-1
 80 60 l 1,37,-1
 70 60 l 1,38,-1
 70 50 l 1,39,-1
 60 50 l 1,40,-1
 60 40 l 1,41,-1
 50 40 l 1,42,-1
 50 30 l 1,43,-1
 40 30 l 1,44,-1
 40 20 l 1,45,-1
 30 20 l 1,46,-1
 30 10 l 1,47,-1
 80 10 l 1,48,-1
 80 20 l 1,49,-1
 90 20 l 1,50,-1
 90 30 l 1,51,-1
 100 30 l 1,52,-1
 100 -10 l 1,53,-1
 0 -10 l 1,0,-1
EndSplineSet
EndChar

StartChar: integral
Encoding: 8747 8747 25
Width: 110
GlyphClass: 1
Flags: W
LayerCount: 2
Fore
SplineSet
10 0 m 1,0,-1
 10 10 l 1,1,-1
 30 10 l 1,2,-1
 30 0 l 1,3,-1
 40 0 l 1,4,-1
 40 60 l 1,5,-1
 50 60 l 1,6,-1
 50 110 l 1,7,-1
 60 110 l 1,8,-1
 60 120 l 1,9,-1
 90 120 l 1,10,-1
 90 110 l 1,11,-1
 100 110 l 1,12,-1
 100 100 l 1,13,-1
 80 100 l 1,14,-1
 80 110 l 1,15,-1
 70 110 l 1,16,-1
 70 60 l 1,17,-1
 60 60 l 1,18,-1
 60 0 l 1,19,-1
 50 0 l 1,20,-1
 50 -10 l 1,21,-1
 20 -10 l 1,22,-1
 20 0 l 1,23,-1
 10 0 l 1,0,-1
EndSplineSet
EndChar

StartChar: Fitalic
Encoding: 119865 119865 26
Width: 110
GlyphClass: 1
Flags: W
LayerCount: 2
Fore
SplineSet
0 10 m 1,0,-1
 10 10 l 1,1,-1
 10 40 l 1,2,-1
 20 40 l 1,3,-1
 20 80 l 1,4,-1
 30 80 l 1,5,-1
 30 110 l 1,6,-1
 20 110 l 1,7,-1
 20 120 l 1,8,-1
 100 120 l 1,9,-1
 100 90 l 1,10,-1
 90 90 l 1,11,-1
 90 100 l 1,12,-1
 80 100 l 1,13,-1
 80 110 l 1,14,-1
 50 110 l 1,15,-1
 50 70 l 1,16,-1
 70 70 l 1,17,-1
 70 90 l 1,18,-1
 80 90 l 1,19,-1
 80 60 l 1,20,-1
 70 60 l 1,21,-1
 70 40 l 1,22,-1
 60 40 l 1,23,-1
 60 60 l 1,24,-1
 40 60 l 1,25,-1
 40 40 l 1,26,-1
 30 40 l 1,27,-1
 30 10 l 1,28,-1
 40 10 l 1,29,-1
 40 0 l 1,30,-1
 0 0 l 1,31,-1
 0 10 l 1,0,-1
EndSplineSet
EndChar

StartChar: alphaitalic
Encoding: 120572 120572 27
Width: 110
GlyphClass: 1
Flags: W
LayerCount: 2
Fore
SplineSet
0 10 m 1,0,-1
 0 50 l 1,1,-1
 10 50 l 1,2,-1
 10 70 l 1,3,-1
 20 70 l 1,4,-1
 20 80 l 1,5,-1
 30 80 l 1,6,-1
 30 90 l 1,7,-1
 60 90 l 1,8,-1
 60 80 l 1,9,-1
 70 80 l 1,10,-1
 70 60 l 1,11,-1
 80 60 l 1,12,-1
 80 80 l 1,13,-1
 90 80 l 1,14,-1
 90 90 l 1,15,-1
 100 90 l 1,16,-1
 100 70 l 1,17,-1
 90 70 l 1,18,-1
 90 50 l 1,19,-1
 80 50 l 1,20,-1
 80 20 l 1,21,-1
 90 20 l 1,22,-1
 90 10 l 1,23,-1
 100 10 l 1,24,-1
 100 0 l 1,25,-1
 80 0 l 1,26,-1
 80 10 l 1,27,-1
 70 10 l 1,28,-1
 70 20 l 1,29,-1
 60 20 l 1,30,-1
 60 10 l 1,31,-1
 50 10 l 1,32,-1
 50 0 l 1,33,-1
 10 0 l 1,34,-1
 10 10 l 1,35,-1
 0 10 l 1,0,-1
20 60 m 1,36,-1
 20 20 l 1,37,-1
 30 20 l 1,38,-1
 30 10 l 1,39,-1
 40 10 l 1,40,-1
 40 20 l 1,41,-1
 50 20 l 1,42,-1
 50 30 l 1,43,-1
 60 30 l 1,44,-1
 60 70 l 1,45,-1
 50 70 l 1,46,-1
 50 80 l 1,47,-1
 40 80 l 1,48,-1
 40 70 l 1,49,-1
 30 70 l 1,50,-1
 30 60 l 1,51,-1
 20 60 l 1,36,-1
EndSplineSet
EndChar

StartChar: gammaitalic
Encoding: 120574 120574 28
Width: 110
GlyphClass: 1
Flags: W
LayerCount: 2
Fore
SplineSet
20 70 m 1,0,-1
 0 70 l 1,1,-1
 0 90 l 1,2,-1
 30 90 l 1,3,-1
 30 80 l 1,4,-1
 40 80 l 1,5,-1
 40 70 l 1,6,-1
 50 70 l 1,7,-1
 50 80 l 1,8,-1
 60 80 l 1,9,-1
 60 90 l 1,10,-1
 100 90 l 1,11,-1
 100 80 l 1,12,-1
 90 80 l 1,13,-1
 90 70 l 1,14,-1
 60 70 l 1,15,-1
 60 60 l 1,16,-1
 50 60 l 1,17,-1
 50 50 l 1,18,-1
 40 50 l 1,19,-1
 40 40 l 1,20,-1
 30 40 l 1,21,-1
 30 20 l 1,22,-1
 20 20 l 1,23,-1
 20 -10 l 1,24,-1
 0 -10 l 1,25,-1
 0 20 l 1,26,-1
 10 20 l 1,27,-1
 10 40 l 1,28,-1
 20 40 l 1,29,-1
 20 70 l 1,0,-1
EndSplineSet
EndChar

StartChar: epsilonitalic
Encoding: 120576 120576 29
Width: 110
GlyphClass: 1
Flags: W
LayerCount: 2
Fore
SplineSet
10 30 m 1,0,-1
 20 30 l 1,1,-1
 20 40 l 1,2,-1
 30 40 l 1,3,-1
 30 50 l 1,4,-1
 20 50 l 1,5,-1
 20 70 l 1,6,-1
 30 70 l 1,7,-1
 30 80 l 1,8,-1
 40 80 l 1,9,-1
 40 90 l 1,10,-1
 90 90 l 1,11,-1
 90 80 l 1,12,-1
 100 80 l 1,13,-1
 100 70 l 1,14,-1
 80 70 l 1,15,-1
 80 80 l 1,16,-1
 50 80 l 1,17,-1
 50 70 l 1,18,-1
 40 70 l 1,19,-1
 40 60 l 1,20,-1
 50 60 l 1,21,-1
 50 50 l 1,22,-1
 80 50 l 1,23,-1
 80 40 l 1,24,-1
 40 40 l 1,25,-1
 40 30 l 1,26,-1
 30 30 l 1,27,-1
 30 20 l 1,28,-1
 40 20 l 1,29,-1
 40 10 l 1,30,-1
 70 10 l 1,31,-1
 70 0 l 1,32,-1
 20 0 l 1,33,-1
 20 10 l 1,34,-1
 10 10 l 1,35,-1
 10 30 l 1,0,-1
80 10 m 1,36,-1
 70 10 l 1,37,-1
 70 20 l 1,38,-1
 80 20 l 1,39,-1
 80 10 l 1,36,-1
EndSplineSet
EndChar

StartChar: thetaitalic
Encoding: 120579 120579 30
Width: 110
GlyphClass: 1
Flags: W
LayerCount: 2
Fore
SplineSet
10 60 m 1,0,-1
 10 80 l 1,1,-1
 20 80 l 1,2,-1
 20 100 l 1,3,-1
 30 100 l 1,4,-1
 30 110 l 1,5,-1
 40 110 l 1,6,-1
 40 120 l 1,7,-1
 80 120 l 1,8,-1
 80 110 l 1,9,-1
 90 110 l 1,10,-1
 90 100 l 1,11,-1
 100 100 l 1,12,-1
 100 70 l 1,13,-1
 90 70 l 1,14,-1
 90 40 l 1,15,-1
 80 40 l 1,16,-1
 80 20 l 1,17,-1
 70 20 l 1,18,-1
 70 10 l 1,19,-1
 60 10 l 1,20,-1
 60 0 l 1,21,-1
 20 0 l 1,22,-1
 20 10 l 1,23,-1
 10 10 l 1,24,-1
 10 20 l 1,25,-1
 0 20 l 1,26,-1
 0 60 l 1,27,-1
 10 60 l 1,0,-1
30 70 m 1,28,-1
 70 70 l 1,29,-1
 70 80 l 1,30,-1
 80 80 l 1,31,-1
 80 100 l 1,32,-1
 70 100 l 1,33,-1
 70 110 l 1,34,-1
 50 110 l 1,35,-1
 50 100 l 1,36,-1
 40 100 l 1,37,-1
 40 80 l 1,38,-1
 30 80 l 1,39,-1
 30 70 l 1,28,-1
30 20 m 1,40,-1
 30 10 l 1,41,-1
 50 10 l 1,42,-1
 50 20 l 1,43,-1
 60 20 l 1,44,-1
 60 40 l 1,45,-1
 70 40 l 1,46,-1
 70 60 l 1,47,-1
 30 60 l 1,48,-1
 30 50 l 1,49,-1
 20 50 l 1,50,-1
 20 20 l 1,51,-1
 30 20 l 1,40,-1
EndSplineSet
EndChar

StartChar: lamdaitalic
Encoding: 120582 120582 31
Width: 110
GlyphClass: 1
Flags: W
LayerCount: 2
Fore
SplineSet
10 10 m 1,0,-1
 10 20 l 1,1,-1
 20 20 l 1,2,-1
 20 40 l 1,3,-1
 30 40 l 1,4,-1
 30 50 l 1,5,-1
 40 50 l 1,6,-1
 40 60 l 1,7,-1
 50 60 l 1,8,-1
 50 80 l 1,9,-1
 60 80 l 1,10,-1
 60 100 l 1,11,-1
 40 100 l 1,12,-1
 40 110 l 1,13,-1
 50 110 l 1,14,-1
 50 120 l 1,15,-1
 70 120 l 1,16,-1
 70 110 l 1,17,-1
 80 110 l 1,18,-1
 80 70 l 1,19,-1
 70 70 l 1,20,-1
 70 20 l 1,21,-1
 100 20 l 1,22,-1
 100 0 l 1,23,-1
 60 0 l 1,24,-1
 60 10 l 1,25,-1
 50 10 l 1,26,-1
 50 40 l 1,27,-1
 40 40 l 1,28,-1
 40 30 l 1,29,-1
 30 30 l 1,30,-1
 30 10 l 1,31,-1
 20 10 l 1,32,-1
 20 0 l 1,33,-1
 0 0 l 1,34,-1
 0 10 l 1,35,-1
 10 10 l 1,0,-1
EndSplineSet
EndChar

StartChar: muitalic
Encoding: 120583 120583 32
Width: 110
GlyphClass: 1
Flags: W
LayerCount: 2
Fore
SplineSet
0 0 m 1,0,-1
 10 0 l 1,1,-1
 10 30 l 1,2,-1
 20 30 l 1,3,-1
 20 60 l 1,4,-1
 30 60 l 1,5,-1
 30 80 l 1,6,-1
 20 80 l 1,7,-1
 20 90 l 1,8,-1
 50 90 l 1,9,-1
 50 60 l 1,10,-1
 40 60 l 1,11,-1
 40 30 l 1,12,-1
 60 30 l 1,13,-1
 60 40 l 1,14,-1
 70 40 l 1,15,-1
 70 60 l 1,16,-1
 80 60 l 1,17,-1
 80 80 l 1,18,-1
 70 80 l 1,19,-1
 70 90 l 1,20,-1
 100 90 l 1,21,-1
 100 60 l 1,22,-1
 90 60 l 1,23,-1
 90 30 l 1,24,-1
 100 30 l 1,25,-1
 100 20 l 1,26,-1
 70 20 l 1,27,-1
 70 30 l 1,28,-1
 60 30 l 1,29,-1
 60 20 l 1,30,-1
 40 20 l 1,31,-1
 40 30 l 1,32,-1
 30 30 l 1,33,-1
 30 0 l 1,34,-1
 40 0 l 1,35,-1
 40 -10 l 1,36,-1
 0 -10 l 1,37,-1
 0 0 l 1,0,-1
EndSplineSet
EndChar

StartChar: sigmaitalic
Encoding: 120590 120590 33
Width: 110
GlyphClass: 1
Flags: W
LayerCount: 2
Fore
SplineSet
0 20 m 1,0,-1
 0 50 l 1,1,-1
 10 50 l 1,2,-1
 10 70 l 1,3,-1
 20 70 l 1,4,-1
 20 80 l 1,5,-1
 30 80 l 1,6,-1
 30 90 l 1,7,-1
 50 90 l 1,8,-1
 50 100 l 1,9,-1
 90 100 l 1,10,-1
 90 110 l 1,11,-1
 100 110 l 1,12,-1
 100 100 l 1,13,-1
 90 100 l 1,14,-1
 90 90 l 1,15,-1
 70 90 l 1,16,-1
 70 80 l 1,17,-1
 80 80 l 1,18,-1
 80 70 l 1,19,-1
 90 70 l 1,20,-1
 90 40 l 1,21,-1
 80 40 l 1,22,-1
 80 20 l 1,23,-1
 70 20 l 1,24,-1
 70 10 l 1,25,-1
 60 10 l 1,26,-1
 60 0 l 1,27,-1
 20 0 l 1,28,-1
 20 10 l 1,29,-1
 10 10 l 1,30,-1
 10 20 l 1,31,-1
 0 20 l 1,0,-1
20 20 m 1,32,-1
 30 20 l 1,33,-1
 30 10 l 1,34,-1
 50 10 l 1,35,-1
 50 20 l 1,36,-1
 60 20 l 1,37,-1
 60 40 l 1,38,-1
 70 40 l 1,39,-1
 70 70 l 1,40,-1
 60 70 l 1,41,-1
 60 80 l 1,42,-1
 40 80 l 1,43,-1
 40 70 l 1,44,-1
 30 70 l 1,45,-1
 30 50 l 1,46,-1
 20 50 l 1,47,-1
 20 20 l 1,32,-1
EndSplineSet
EndChar

StartChar: phisymbolitalic
Encoding: 120601 120601 34
Width: 110
GlyphClass: 1
Flags: W
LayerCount: 2
Fore
SplineSet
20 30 m 1,0,-1
 10 30 l 1,1,-1
 10 60 l 1,2,-1
 20 60 l 1,3,-1
 20 80 l 1,4,-1
 40 80 l 1,5,-1
 40 90 l 1,6,-1
 50 90 l 1,7,-1
 50 100 l 1,8,-1
 60 100 l 1,9,-1
 60 110 l 1,10,-1
 50 110 l 1,11,-1
 50 120 l 1,12,-1
 90 120 l 1,13,-1
 90 110 l 1,14,-1
 80 110 l 1,15,-1
 80 100 l 1,16,-1
 70 100 l 1,17,-1
 70 90 l 1,18,-1
 80 90 l 1,19,-1
 80 80 l 1,20,-1
 90 80 l 1,21,-1
 90 70 l 1,22,-1
 100 70 l 1,23,-1
 100 40 l 1,24,-1
 90 40 l 1,25,-1
 90 20 l 1,26,-1
 70 20 l 1,27,-1
 70 40 l 1,28,-1
 80 40 l 1,29,-1
 80 70 l 1,30,-1
 70 70 l 1,31,-1
 70 50 l 1,32,-1
 60 50 l 1,33,-1
 60 20 l 1,34,-1
 70 20 l 1,35,-1
 70 10 l 1,36,-1
 50 10 l 1,37,-1
 50 0 l 1,38,-1
 60 0 l 1,39,-1
 60 -10 l 1,40,-1
 20 -10 l 1,41,-1
 20 0 l 1,42,-1
 30 0 l 1,43,-1
 30 10 l 1,44,-1
 20 10 l 1,45,-1
 20 30 l 1,0,-1
30 30 m 1,46,-1
 40 30 l 1,47,-1
 40 50 l 1,48,-1
 50 50 l 1,49,-1
 50 80 l 1,50,-1
 40 80 l 1,51,-1
 40 60 l 1,52,-1
 30 60 l 1,53,-1
 30 30 l 1,46,-1
EndSplineSet
EndChar

StartChar: piitalic
Encoding: 120587 120587 35
Width: 110
GlyphClass: 1
Flags: W
LayerCount: 2
Fore
SplineSet
10 10 m 1,0,-1
 10 30 l 1,1,-1
 20 30 l 1,2,-1
 20 60 l 1,3,-1
 30 60 l 1,4,-1
 30 80 l 1,5,-1
 20 80 l 1,6,-1
 20 70 l 1,7,-1
 0 70 l 1,8,-1
 0 80 l 1,9,-1
 10 80 l 1,10,-1
 10 90 l 1,11,-1
 100 90 l 1,12,-1
 100 80 l 1,13,-1
 80 80 l 1,14,-1
 80 50 l 1,15,-1
 70 50 l 1,16,-1
 70 20 l 1,17,-1
 90 20 l 1,18,-1
 90 0 l 1,19,-1
 60 0 l 1,20,-1
 60 10 l 1,21,-1
 50 10 l 1,22,-1
 50 50 l 1,23,-1
 60 50 l 1,24,-1
 60 80 l 1,25,-1
 50 80 l 1,26,-1
 50 60 l 1,27,-1
 40 60 l 1,28,-1
 40 30 l 1,29,-1
 30 30 l 1,30,-1
 30 10 l 1,31,-1
 20 10 l 1,32,-1
 20 0 l 1,33,-1
 0 0 l 1,34,-1
 0 10 l 1,35,-1
 10 10 l 1,0,-1
EndSplineSet
EndChar

StartChar: xbolditalic
Encoding: 119961 119961 36
Width: 110
GlyphClass: 1
Flags: W
LayerCount: 2
Fore
SplineSet
0 0 m 1,0,-1
 0 20 l 1,1,-1
 20 20 l 1,2,-1
 20 30 l 1,3,-1
 30 30 l 1,4,-1
 30 40 l 1,5,-1
 40 40 l 1,6,-1
 40 60 l 1,7,-1
 30 60 l 1,8,-1
 30 80 l 1,9,-1
 20 80 l 1,10,-1
 20 70 l 1,11,-1
 10 70 l 1,12,-1
 10 60 l 1,13,-1
 0 60 l 1,14,-1
 0 80 l 1,15,-1
 10 80 l 1,16,-1
 10 90 l 1,17,-1
 50 90 l 1,18,-1
 50 80 l 1,19,-1
 60 80 l 1,20,-1
 60 70 l 1,21,-1
 70 70 l 1,22,-1
 70 80 l 1,23,-1
 80 80 l 1,24,-1
 80 90 l 1,25,-1
 100 90 l 1,26,-1
 100 70 l 1,27,-1
 80 70 l 1,28,-1
 80 60 l 1,29,-1
 70 60 l 1,30,-1
 70 50 l 1,31,-1
 60 50 l 1,32,-1
 60 30 l 1,33,-1
 70 30 l 1,34,-1
 70 10 l 1,35,-1
 80 10 l 1,36,-1
 80 20 l 1,37,-1
 90 20 l 1,38,-1
 90 30 l 1,39,-1
 100 30 l 1,40,-1
 100 10 l 1,41,-1
 90 10 l 1,42,-1
 90 0 l 1,43,-1
 50 0 l 1,44,-1
 50 10 l 1,45,-1
 40 10 l 1,46,-1
 40 20 l 1,47,-1
 30 20 l 1,48,-1
 30 10 l 1,49,-1
 20 10 l 1,50,-1
 20 0 l 1,51,-1
 0 0 l 1,0,-1
EndSplineSet
EndChar

StartChar: ybolditalic
Encoding: 119962 119962 37
Width: 110
GlyphClass: 1
Flags: W
LayerCount: 2
Fore
SplineSet
0 0 m 1,0,-1
 0 20 l 1,1,-1
 20 20 l 1,2,-1
 20 0 l 1,3,-1
 30 0 l 1,4,-1
 30 10 l 1,5,-1
 40 10 l 1,6,-1
 40 20 l 1,7,-1
 50 20 l 1,8,-1
 50 30 l 1,9,-1
 40 30 l 1,10,-1
 40 40 l 1,11,-1
 30 40 l 1,12,-1
 30 80 l 1,13,-1
 20 80 l 1,14,-1
 20 70 l 1,15,-1
 10 70 l 1,16,-1
 10 80 l 1,17,-1
 20 80 l 1,18,-1
 20 90 l 1,19,-1
 40 90 l 1,20,-1
 40 80 l 1,21,-1
 50 80 l 1,22,-1
 50 40 l 1,23,-1
 60 40 l 1,24,-1
 60 50 l 1,25,-1
 70 50 l 1,26,-1
 70 70 l 1,27,-1
 80 70 l 1,28,-1
 80 90 l 1,29,-1
 100 90 l 1,30,-1
 100 70 l 1,31,-1
 90 70 l 1,32,-1
 90 50 l 1,33,-1
 80 50 l 1,34,-1
 80 30 l 1,35,-1
 70 30 l 1,36,-1
 70 20 l 1,37,-1
 60 20 l 1,38,-1
 60 10 l 1,39,-1
 50 10 l 1,40,-1
 50 0 l 1,41,-1
 40 0 l 1,42,-1
 40 -10 l 1,43,-1
 10 -10 l 1,44,-1
 10 0 l 1,45,-1
 0 0 l 1,0,-1
EndSplineSet
EndChar

StartChar: zbolditalic
Encoding: 119963 119963 38
Width: 110
GlyphClass: 1
Flags: W
LayerCount: 2
Fore
SplineSet
0 0 m 1,0,-1
 0 10 l 1,1,-1
 10 10 l 1,2,-1
 10 20 l 1,3,-1
 20 20 l 1,4,-1
 20 30 l 1,5,-1
 30 30 l 1,6,-1
 30 40 l 1,7,-1
 40 40 l 1,8,-1
 40 60 l 1,9,-1
 50 60 l 1,10,-1
 50 70 l 1,11,-1
 60 70 l 1,12,-1
 60 80 l 1,13,-1
 30 80 l 1,14,-1
 30 70 l 1,15,-1
 10 70 l 1,16,-1
 10 80 l 1,17,-1
 20 80 l 1,18,-1
 20 90 l 1,19,-1
 100 90 l 1,20,-1
 100 80 l 1,21,-1
 90 80 l 1,22,-1
 90 70 l 1,23,-1
 80 70 l 1,24,-1
 80 60 l 1,25,-1
 70 60 l 1,26,-1
 70 40 l 1,27,-1
 60 40 l 1,28,-1
 60 30 l 1,29,-1
 50 30 l 1,30,-1
 50 20 l 1,31,-1
 40 20 l 1,32,-1
 40 10 l 1,33,-1
 70 10 l 1,34,-1
 70 20 l 1,35,-1
 90 20 l 1,36,-1
 90 10 l 1,37,-1
 80 10 l 1,38,-1
 80 0 l 1,39,-1
 0 0 l 1,0,-1
EndSplineSet
EndChar

StartChar: ibolditalic
Encoding: 119946 119946 39
Width: 110
GlyphClass: 1
Flags: W
LayerCount: 2
Fore
SplineSet
50 120 m 1,0,-1
 80 120 l 1,1,-1
 80 100 l 1,2,-1
 50 100 l 1,3,-1
 50 120 l 1,0,-1
20 10 m 1,4,-1
 20 30 l 1,5,-1
 30 30 l 1,6,-1
 30 60 l 1,7,-1
 40 60 l 1,8,-1
 40 80 l 1,9,-1
 30 80 l 1,10,-1
 30 90 l 1,11,-1
 70 90 l 1,12,-1
 70 60 l 1,13,-1
 60 60 l 1,14,-1
 60 30 l 1,15,-1
 50 30 l 1,16,-1
 50 10 l 1,17,-1
 60 10 l 1,18,-1
 60 20 l 1,19,-1
 70 20 l 1,20,-1
 70 30 l 1,21,-1
 80 30 l 1,22,-1
 80 10 l 1,23,-1
 70 10 l 1,24,-1
 70 0 l 1,25,-1
 30 0 l 1,26,-1
 30 10 l 1,27,-1
 20 10 l 1,4,-1
EndSplineSet
EndChar

StartChar: ebolditalic
Encoding: 119942 119942 40
Width: 110
GlyphClass: 1
Flags: W
LayerCount: 2
Fore
SplineSet
0 50 m 1,0,-1
 10 50 l 1,1,-1
 10 70 l 1,2,-1
 20 70 l 1,3,-1
 20 80 l 1,4,-1
 40 80 l 1,5,-1
 40 90 l 1,6,-1
 90 90 l 1,7,-1
 90 80 l 1,8,-1
 100 80 l 1,9,-1
 100 60 l 1,10,-1
 90 60 l 1,11,-1
 90 50 l 1,12,-1
 70 50 l 1,13,-1
 70 40 l 1,14,-1
 50 40 l 1,15,-1
 50 30 l 1,16,-1
 30 30 l 1,17,-1
 30 20 l 1,18,-1
 40 20 l 1,19,-1
 40 10 l 1,20,-1
 70 10 l 1,21,-1
 70 20 l 1,22,-1
 80 20 l 1,23,-1
 80 30 l 1,24,-1
 100 30 l 1,25,-1
 100 20 l 1,26,-1
 90 20 l 1,27,-1
 90 10 l 1,28,-1
 80 10 l 1,29,-1
 80 0 l 1,30,-1
 20 0 l 1,31,-1
 20 10 l 1,32,-1
 10 10 l 1,33,-1
 10 20 l 1,34,-1
 0 20 l 1,35,-1
 0 50 l 1,0,-1
40 40 m 1,36,-1
 40 50 l 1,37,-1
 60 50 l 1,38,-1
 60 60 l 1,39,-1
 70 60 l 1,40,-1
 70 70 l 1,41,-1
 50 70 l 1,42,-1
 50 60 l 1,43,-1
 40 60 l 1,44,-1
 40 50 l 1,45,-1
 30 50 l 1,46,-1
 30 40 l 1,47,-1
 40 40 l 1,36,-1
EndSplineSet
EndChar

StartChar: o
Encoding: 111 111 41
Width: 110
GlyphClass: 1
Flags: W
LayerCount: 2
Fore
SplineSet
10 70 m 1,0,-1
 20 70 l 1,1,-1
 20 80 l 1,2,-1
 30 80 l 1,3,-1
 30 90 l 1,4,-1
 70 90 l 1,5,-1
 70 80 l 1,6,-1
 80 80 l 1,7,-1
 80 70 l 1,8,-1
 90 70 l 1,9,-1
 90 20 l 1,10,-1
 80 20 l 1,11,-1
 80 10 l 1,12,-1
 70 10 l 1,13,-1
 70 0 l 1,14,-1
 30 0 l 1,15,-1
 30 10 l 1,16,-1
 20 10 l 1,17,-1
 20 20 l 1,18,-1
 10 20 l 1,19,-1
 10 70 l 1,0,-1
30 70 m 1,20,-1
 30 20 l 1,21,-1
 40 20 l 1,22,-1
 40 10 l 1,23,-1
 60 10 l 1,24,-1
 60 20 l 1,25,-1
 70 20 l 1,26,-1
 70 70 l 1,27,-1
 60 70 l 1,28,-1
 60 80 l 1,29,-1
 40 80 l 1,30,-1
 40 70 l 1,31,-1
 30 70 l 1,20,-1
EndSplineSet
EndChar

StartChar: z
Encoding: 122 122 42
Width: 110
GlyphClass: 1
Flags: W
LayerCount: 2
Fore
SplineSet
10 0 m 1,0,-1
 10 10 l 1,1,-1
 20 10 l 1,2,-1
 20 30 l 1,3,-1
 30 30 l 1,4,-1
 30 40 l 1,5,-1
 40 40 l 1,6,-1
 40 60 l 1,7,-1
 50 60 l 1,8,-1
 50 70 l 1,9,-1
 60 70 l 1,10,-1
 60 80 l 1,11,-1
 30 80 l 1,12,-1
 30 70 l 1,13,-1
 20 70 l 1,14,-1
 20 60 l 1,15,-1
 10 60 l 1,16,-1
 10 90 l 1,17,-1
 90 90 l 1,18,-1
 90 80 l 1,19,-1
 80 80 l 1,20,-1
 80 60 l 1,21,-1
 70 60 l 1,22,-1
 70 50 l 1,23,-1
 60 50 l 1,24,-1
 60 30 l 1,25,-1
 50 30 l 1,26,-1
 50 20 l 1,27,-1
 40 20 l 1,28,-1
 40 10 l 1,29,-1
 70 10 l 1,30,-1
 70 20 l 1,31,-1
 80 20 l 1,32,-1
 80 30 l 1,33,-1
 90 30 l 1,34,-1
 90 0 l 1,35,-1
 10 0 l 1,0,-1
EndSplineSet
EndChar

StartChar: R
Encoding: 82 82 43
Width: 110
GlyphClass: 1
Flags: W
LayerCount: 2
Fore
SplineSet
10 110 m 1,0,-1
 0 110 l 1,1,-1
 0 120 l 1,2,-1
 70 120 l 1,3,-1
 70 110 l 1,4,-1
 80 110 l 1,5,-1
 80 100 l 1,6,-1
 90 100 l 1,7,-1
 90 70 l 1,8,-1
 80 70 l 1,9,-1
 80 60 l 1,10,-1
 70 60 l 1,11,-1
 70 40 l 1,12,-1
 80 40 l 1,13,-1
 80 10 l 1,14,-1
 90 10 l 1,15,-1
 90 0 l 1,16,-1
 70 0 l 1,17,-1
 70 10 l 1,18,-1
 60 10 l 1,19,-1
 60 40 l 1,20,-1
 50 40 l 1,21,-1
 50 50 l 1,22,-1
 30 50 l 1,23,-1
 30 10 l 1,24,-1
 40 10 l 1,25,-1
 40 0 l 1,26,-1
 0 0 l 1,27,-1
 0 10 l 1,28,-1
 10 10 l 1,29,-1
 10 110 l 1,0,-1
30 60 m 1,30,-1
 60 60 l 1,31,-1
 60 70 l 1,32,-1
 70 70 l 1,33,-1
 70 100 l 1,34,-1
 60 100 l 1,35,-1
 60 110 l 1,36,-1
 30 110 l 1,37,-1
 30 60 l 1,30,-1
90 10 m 1,38,-1
 90 20 l 1,39,-1
 100 20 l 1,40,-1
 100 10 l 1,41,-1
 90 10 l 1,38,-1
EndSplineSet
EndChar

StartChar: T
Encoding: 84 84 44
Width: 110
GlyphClass: 1
Flags: W
LayerCount: 2
Fore
SplineSet
10 90 m 1,0,-1
 0 90 l 1,1,-1
 0 120 l 1,2,-1
 100 120 l 1,3,-1
 100 90 l 1,4,-1
 90 90 l 1,5,-1
 90 100 l 1,6,-1
 80 100 l 1,7,-1
 80 110 l 1,8,-1
 60 110 l 1,9,-1
 60 10 l 1,10,-1
 70 10 l 1,11,-1
 70 0 l 1,12,-1
 30 0 l 1,13,-1
 30 10 l 1,14,-1
 40 10 l 1,15,-1
 40 110 l 1,16,-1
 20 110 l 1,17,-1
 20 100 l 1,18,-1
 10 100 l 1,19,-1
 10 90 l 1,0,-1
EndSplineSet
EndChar

StartChar: I
Encoding: 73 73 45
Width: 110
GlyphClass: 1
Flags: W
LayerCount: 2
Fore
SplineSet
30 110 m 1,0,-1
 30 120 l 1,1,-1
 70 120 l 1,2,-1
 70 110 l 1,3,-1
 60 110 l 1,4,-1
 60 10 l 1,5,-1
 70 10 l 1,6,-1
 70 0 l 1,7,-1
 30 0 l 1,8,-1
 30 10 l 1,9,-1
 40 10 l 1,10,-1
 40 110 l 1,11,-1
 30 110 l 1,0,-1
EndSplineSet
EndChar

StartChar: l
Encoding: 108 108 46
Width: 110
GlyphClass: 1
Flags: W
LayerCount: 2
Fore
SplineSet
60 120 m 1,0,-1
 60 10 l 1,1,-1
 80 10 l 1,2,-1
 80 0 l 1,3,-1
 20 0 l 1,4,-1
 20 10 l 1,5,-1
 40 10 l 1,6,-1
 40 110 l 1,7,-1
 30 110 l 1,8,-1
 30 120 l 1,9,-1
 60 120 l 1,0,-1
EndSplineSet
EndChar

StartChar: i
Encoding: 105 105 47
Width: 110
GlyphClass: 1
Flags: W
LayerCount: 2
Fore
SplineSet
60 100 m 1,0,-1
 40 100 l 1,1,-1
 40 120 l 1,2,-1
 60 120 l 1,3,-1
 60 100 l 1,0,-1
20 10 m 1,4,-1
 40 10 l 1,5,-1
 40 80 l 1,6,-1
 20 80 l 1,7,-1
 20 90 l 1,8,-1
 60 90 l 1,9,-1
 60 10 l 1,10,-1
 80 10 l 1,11,-1
 80 0 l 1,12,-1
 20 0 l 1,13,-1
 20 10 l 1,4,-1
EndSplineSet
EndChar

StartChar: m
Encoding: 109 109 48
Width: 110
GlyphClass: 1
Flags: W
LayerCount: 2
Fore
SplineSet
0 10 m 1,0,-1
 10 10 l 1,1,-1
 10 80 l 1,2,-1
 0 80 l 1,3,-1
 0 90 l 1,4,-1
 20 90 l 1,5,-1
 20 80 l 1,6,-1
 30 80 l 1,7,-1
 30 90 l 1,8,-1
 50 90 l 1,9,-1
 50 80 l 1,10,-1
 60 80 l 1,11,-1
 60 90 l 1,12,-1
 80 90 l 1,13,-1
 80 80 l 1,14,-1
 90 80 l 1,15,-1
 90 10 l 1,16,-1
 100 10 l 1,17,-1
 100 0 l 1,18,-1
 70 0 l 1,19,-1
 70 80 l 1,20,-1
 60 80 l 1,21,-1
 60 0 l 1,22,-1
 40 0 l 1,23,-1
 40 80 l 1,24,-1
 30 80 l 1,25,-1
 30 0 l 1,26,-1
 0 0 l 1,27,-1
 0 10 l 1,0,-1
EndSplineSet
EndChar

StartChar: n
Encoding: 110 110 49
Width: 110
GlyphClass: 1
Flags: W
LayerCount: 2
Fore
SplineSet
10 80 m 1,0,-1
 0 80 l 1,1,-1
 0 90 l 1,2,-1
 30 90 l 1,3,-1
 30 80 l 1,4,-1
 40 80 l 1,5,-1
 40 90 l 1,6,-1
 70 90 l 1,7,-1
 70 80 l 1,8,-1
 80 80 l 1,9,-1
 80 70 l 1,10,-1
 90 70 l 1,11,-1
 90 10 l 1,12,-1
 100 10 l 1,13,-1
 100 0 l 1,14,-1
 60 0 l 1,15,-1
 60 10 l 1,16,-1
 70 10 l 1,17,-1
 70 70 l 1,18,-1
 60 70 l 1,19,-1
 60 80 l 1,20,-1
 40 80 l 1,21,-1
 40 70 l 1,22,-1
 30 70 l 1,23,-1
 30 10 l 1,24,-1
 40 10 l 1,25,-1
 40 0 l 1,26,-1
 0 0 l 1,27,-1
 0 10 l 1,28,-1
 10 10 l 1,29,-1
 10 80 l 1,0,-1
EndSplineSet
EndChar

StartChar: percent
Encoding: 37 37 50
Width: 110
GlyphClass: 1
Flags: W
LayerCount: 2
Fore
SplineSet
0 80 m 1,0,-1
 0 110 l 1,1,-1
 10 110 l 1,2,-1
 10 120 l 1,3,-1
 40 120 l 1,4,-1
 40 110 l 1,5,-1
 50 110 l 1,6,-1
 50 80 l 1,7,-1
 60 80 l 1,8,-1
 60 100 l 1,9,-1
 70 100 l 1,10,-1
 70 120 l 1,11,-1
 90 120 l 1,12,-1
 90 100 l 1,13,-1
 80 100 l 1,14,-1
 80 80 l 1,15,-1
 70 80 l 1,16,-1
 70 70 l 1,17,-1
 60 70 l 1,18,-1
 60 50 l 1,19,-1
 90 50 l 1,20,-1
 90 40 l 1,21,-1
 100 40 l 1,22,-1
 100 10 l 1,23,-1
 90 10 l 1,24,-1
 90 0 l 1,25,-1
 60 0 l 1,26,-1
 60 10 l 1,27,-1
 50 10 l 1,28,-1
 50 40 l 1,29,-1
 40 40 l 1,30,-1
 40 20 l 1,31,-1
 30 20 l 1,32,-1
 30 0 l 1,33,-1
 10 0 l 1,34,-1
 10 20 l 1,35,-1
 20 20 l 1,36,-1
 20 40 l 1,37,-1
 30 40 l 1,38,-1
 30 50 l 1,39,-1
 40 50 l 1,40,-1
 40 70 l 1,41,-1
 10 70 l 1,42,-1
 10 80 l 1,43,-1
 0 80 l 1,0,-1
30 110 m 1,44,-1
 20 110 l 1,45,-1
 20 80 l 1,46,-1
 30 80 l 1,47,-1
 30 110 l 1,44,-1
40 70 m 1,48,-1
 50 70 l 1,49,-1
 50 80 l 1,50,-1
 40 80 l 1,51,-1
 40 70 l 1,48,-1
60 40 m 1,52,-1
 60 50 l 1,53,-1
 50 50 l 1,54,-1
 50 40 l 1,55,-1
 60 40 l 1,52,-1
80 10 m 1,56,-1
 80 40 l 1,57,-1
 70 40 l 1,58,-1
 70 10 l 1,59,-1
 80 10 l 1,56,-1
EndSplineSet
EndChar

StartChar: q
Encoding: 113 113 51
Width: 110
GlyphClass: 1
Flags: W
LayerCount: 2
Fore
SplineSet
20 30 m 1,0,-1
 10 30 l 1,1,-1
 10 70 l 1,2,-1
 20 70 l 1,3,-1
 20 80 l 1,4,-1
 30 80 l 1,5,-1
 30 90 l 1,6,-1
 70 90 l 1,7,-1
 70 80 l 1,8,-1
 80 80 l 1,9,-1
 80 90 l 1,10,-1
 90 90 l 1,11,-1
 90 0 l 1,12,-1
 100 0 l 1,13,-1
 100 -10 l 1,14,-1
 60 -10 l 1,15,-1
 60 0 l 1,16,-1
 70 0 l 1,17,-1
 70 20 l 1,18,-1
 60 20 l 1,19,-1
 60 10 l 1,20,-1
 30 10 l 1,21,-1
 30 20 l 1,22,-1
 20 20 l 1,23,-1
 20 30 l 1,0,-1
40 30 m 1,24,-1
 40 20 l 1,25,-1
 60 20 l 1,26,-1
 60 30 l 1,27,-1
 70 30 l 1,28,-1
 70 70 l 1,29,-1
 60 70 l 1,30,-1
 60 80 l 1,31,-1
 40 80 l 1,32,-1
 40 70 l 1,33,-1
 30 70 l 1,34,-1
 30 30 l 1,35,-1
 40 30 l 1,24,-1
EndSplineSet
EndChar

StartChar: u
Encoding: 117 117 52
Width: 110
GlyphClass: 1
Flags: W
LayerCount: 2
Fore
SplineSet
10 80 m 1,0,-1
 0 80 l 1,1,-1
 0 90 l 1,2,-1
 30 90 l 1,3,-1
 30 20 l 1,4,-1
 40 20 l 1,5,-1
 40 10 l 1,6,-1
 60 10 l 1,7,-1
 60 20 l 1,8,-1
 70 20 l 1,9,-1
 70 80 l 1,10,-1
 60 80 l 1,11,-1
 60 90 l 1,12,-1
 90 90 l 1,13,-1
 90 10 l 1,14,-1
 100 10 l 1,15,-1
 100 0 l 1,16,-1
 70 0 l 1,17,-1
 70 10 l 1,18,-1
 60 10 l 1,19,-1
 60 0 l 1,20,-1
 30 0 l 1,21,-1
 30 10 l 1,22,-1
 20 10 l 1,23,-1
 20 20 l 1,24,-1
 10 20 l 1,25,-1
 10 80 l 1,0,-1
EndSplineSet
EndChar

StartChar: t
Encoding: 116 116 53
Width: 110
GlyphClass: 1
Flags: W
LayerCount: 2
Fore
SplineSet
10 90 m 1,0,-1
 30 90 l 1,1,-1
 30 110 l 1,2,-1
 50 110 l 1,3,-1
 50 90 l 1,4,-1
 80 90 l 1,5,-1
 80 80 l 1,6,-1
 50 80 l 1,7,-1
 50 10 l 1,8,-1
 60 10 l 1,9,-1
 60 20 l 1,10,-1
 70 20 l 1,11,-1
 70 30 l 1,12,-1
 80 30 l 1,13,-1
 80 10 l 1,14,-1
 70 10 l 1,15,-1
 70 0 l 1,16,-1
 40 0 l 1,17,-1
 40 10 l 1,18,-1
 30 10 l 1,19,-1
 30 80 l 1,20,-1
 10 80 l 1,21,-1
 10 90 l 1,0,-1
EndSplineSet
EndChar

StartChar: parenleft
Encoding: 40 40 54
Width: 110
GlyphClass: 1
Flags: W
LayerCount: 2
Fore
SplineSet
80 120 m 1,0,-1
 80 110 l 1,1,-1
 70 110 l 1,2,-1
 70 100 l 1,3,-1
 60 100 l 1,4,-1
 60 80 l 1,5,-1
 50 80 l 1,6,-1
 50 40 l 1,7,-1
 60 40 l 1,8,-1
 60 20 l 1,9,-1
 70 20 l 1,10,-1
 70 10 l 1,11,-1
 80 10 l 1,12,-1
 80 0 l 1,13,-1
 60 0 l 1,14,-1
 60 10 l 1,15,-1
 50 10 l 1,16,-1
 50 20 l 1,17,-1
 40 20 l 1,18,-1
 40 40 l 1,19,-1
 30 40 l 1,20,-1
 30 80 l 1,21,-1
 40 80 l 1,22,-1
 40 100 l 1,23,-1
 50 100 l 1,24,-1
 50 110 l 1,25,-1
 60 110 l 1,26,-1
 60 120 l 1,27,-1
 80 120 l 1,0,-1
EndSplineSet
EndChar

StartChar: parenright
Encoding: 41 41 55
Width: 110
GlyphClass: 1
Flags: W
LayerCount: 2
Fore
SplineSet
30 120 m 1,0,-1
 50 120 l 1,1,-1
 50 110 l 1,2,-1
 60 110 l 1,3,-1
 60 100 l 1,4,-1
 70 100 l 1,5,-1
 70 80 l 1,6,-1
 80 80 l 1,7,-1
 80 40 l 1,8,-1
 70 40 l 1,9,-1
 70 20 l 1,10,-1
 60 20 l 1,11,-1
 60 10 l 1,12,-1
 50 10 l 1,13,-1
 50 0 l 1,14,-1
 30 0 l 1,15,-1
 30 10 l 1,16,-1
 40 10 l 1,17,-1
 40 20 l 1,18,-1
 50 20 l 1,19,-1
 50 40 l 1,20,-1
 60 40 l 1,21,-1
 60 80 l 1,22,-1
 50 80 l 1,23,-1
 50 100 l 1,24,-1
 40 100 l 1,25,-1
 40 110 l 1,26,-1
 30 110 l 1,27,-1
 30 120 l 1,0,-1
EndSplineSet
EndChar

StartChar: p
Encoding: 112 112 56
Width: 110
GlyphClass: 1
Flags: W
LayerCount: 2
Fore
SplineSet
10 90 m 1,0,-1
 40 90 l 1,1,-1
 40 80 l 1,2,-1
 50 80 l 1,3,-1
 50 90 l 1,4,-1
 80 90 l 1,5,-1
 80 80 l 1,6,-1
 90 80 l 1,7,-1
 90 70 l 1,8,-1
 100 70 l 1,9,-1
 100 30 l 1,10,-1
 90 30 l 1,11,-1
 90 20 l 1,12,-1
 80 20 l 1,13,-1
 80 10 l 1,14,-1
 50 10 l 1,15,-1
 50 20 l 1,16,-1
 40 20 l 1,17,-1
 40 0 l 1,18,-1
 50 0 l 1,19,-1
 50 -10 l 1,20,-1
 10 -10 l 1,21,-1
 10 0 l 1,22,-1
 20 0 l 1,23,-1
 20 80 l 1,24,-1
 10 80 l 1,25,-1
 10 90 l 1,0,-1
50 70 m 1,26,-1
 40 70 l 1,27,-1
 40 30 l 1,28,-1
 50 30 l 1,29,-1
 50 20 l 1,30,-1
 70 20 l 1,31,-1
 70 30 l 1,32,-1
 80 30 l 1,33,-1
 80 70 l 1,34,-1
 70 70 l 1,35,-1
 70 80 l 1,36,-1
 50 80 l 1,37,-1
 50 70 l 1,26,-1
EndSplineSet
EndChar

StartChar: e
Encoding: 101 101 57
Width: 110
GlyphClass: 1
Flags: W
LayerCount: 2
Fore
SplineSet
20 20 m 1,0,-1
 10 20 l 1,1,-1
 10 70 l 1,2,-1
 20 70 l 1,3,-1
 20 80 l 1,4,-1
 30 80 l 1,5,-1
 30 90 l 1,6,-1
 70 90 l 1,7,-1
 70 80 l 1,8,-1
 80 80 l 1,9,-1
 80 70 l 1,10,-1
 90 70 l 1,11,-1
 90 40 l 1,12,-1
 30 40 l 1,13,-1
 30 20 l 1,14,-1
 40 20 l 1,15,-1
 40 10 l 1,16,-1
 70 10 l 1,17,-1
 70 0 l 1,18,-1
 30 0 l 1,19,-1
 30 10 l 1,20,-1
 20 10 l 1,21,-1
 20 20 l 1,0,-1
30 70 m 1,22,-1
 30 50 l 1,23,-1
 70 50 l 1,24,-1
 70 70 l 1,25,-1
 60 70 l 1,26,-1
 60 80 l 1,27,-1
 40 80 l 1,28,-1
 40 70 l 1,29,-1
 30 70 l 1,22,-1
80 10 m 1,30,-1
 70 10 l 1,31,-1
 70 20 l 1,32,-1
 80 20 l 1,33,-1
 80 30 l 1,34,-1
 90 30 l 1,35,-1
 90 20 l 1,36,-1
 80 20 l 1,37,-1
 80 10 l 1,30,-1
EndSplineSet
EndChar

StartChar: g
Encoding: 103 103 58
Width: 110
GlyphClass: 1
Flags: W
LayerCount: 2
Fore
SplineSet
10 0 m 1,0,-1
 0 0 l 1,1,-1
 0 20 l 1,2,-1
 10 20 l 1,3,-1
 10 40 l 1,4,-1
 20 40 l 1,5,-1
 20 50 l 1,6,-1
 10 50 l 1,7,-1
 10 80 l 1,8,-1
 20 80 l 1,9,-1
 20 90 l 1,10,-1
 70 90 l 1,11,-1
 70 80 l 1,12,-1
 80 80 l 1,13,-1
 80 90 l 1,14,-1
 100 90 l 1,15,-1
 100 70 l 1,16,-1
 80 70 l 1,17,-1
 80 50 l 1,18,-1
 70 50 l 1,19,-1
 70 40 l 1,20,-1
 30 40 l 1,21,-1
 30 30 l 1,22,-1
 80 30 l 1,23,-1
 80 20 l 1,24,-1
 90 20 l 1,25,-1
 90 0 l 1,26,-1
 80 0 l 1,27,-1
 80 -10 l 1,28,-1
 10 -10 l 1,29,-1
 10 0 l 1,0,-1
30 80 m 1,30,-1
 30 50 l 1,31,-1
 60 50 l 1,32,-1
 60 80 l 1,33,-1
 30 80 l 1,30,-1
20 0 m 1,34,-1
 70 0 l 1,35,-1
 70 20 l 1,36,-1
 20 20 l 1,37,-1
 20 0 l 1,34,-1
EndSplineSet
EndChar

StartChar: plus
Encoding: 43 43 59
Width: 110
GlyphClass: 1
Flags: W
LayerCount: 2
Fore
SplineSet
40 110 m 1,0,-1
 60 110 l 1,1,-1
 60 70 l 1,2,-1
 100 70 l 1,3,-1
 100 50 l 1,4,-1
 60 50 l 1,5,-1
 60 10 l 1,6,-1
 40 10 l 1,7,-1
 40 50 l 1,8,-1
 0 50 l 1,9,-1
 0 70 l 1,10,-1
 40 70 l 1,11,-1
 40 110 l 1,0,-1
EndSplineSet
EndChar

StartChar: r
Encoding: 114 114 60
Width: 110
GlyphClass: 1
Flags: W
LayerCount: 2
Fore
SplineSet
60 0 m 1,0,-1
 20 0 l 1,1,-1
 20 10 l 1,2,-1
 30 10 l 1,3,-1
 30 80 l 1,4,-1
 20 80 l 1,5,-1
 20 90 l 1,6,-1
 50 90 l 1,7,-1
 50 80 l 1,8,-1
 60 80 l 1,9,-1
 60 90 l 1,10,-1
 80 90 l 1,11,-1
 80 80 l 1,12,-1
 90 80 l 1,13,-1
 90 60 l 1,14,-1
 70 60 l 1,15,-1
 70 80 l 1,16,-1
 60 80 l 1,17,-1
 60 70 l 1,18,-1
 50 70 l 1,19,-1
 50 10 l 1,20,-1
 60 10 l 1,21,-1
 60 0 l 1,0,-1
EndSplineSet
EndChar

StartChar: k
Encoding: 107 107 61
Width: 110
GlyphClass: 1
Flags: W
LayerCount: 2
Fore
SplineSet
0 10 m 1,0,-1
 10 10 l 1,1,-1
 10 110 l 1,2,-1
 0 110 l 1,3,-1
 0 120 l 1,4,-1
 30 120 l 1,5,-1
 30 50 l 1,6,-1
 40 50 l 1,7,-1
 40 60 l 1,8,-1
 50 60 l 1,9,-1
 50 70 l 1,10,-1
 60 70 l 1,11,-1
 60 80 l 1,12,-1
 50 80 l 1,13,-1
 50 90 l 1,14,-1
 90 90 l 1,15,-1
 90 80 l 1,16,-1
 70 80 l 1,17,-1
 70 70 l 1,18,-1
 60 70 l 1,19,-1
 60 60 l 1,20,-1
 50 60 l 1,21,-1
 50 50 l 1,22,-1
 60 50 l 1,23,-1
 60 40 l 1,24,-1
 70 40 l 1,25,-1
 70 20 l 1,26,-1
 80 20 l 1,27,-1
 80 10 l 1,28,-1
 90 10 l 1,29,-1
 90 0 l 1,30,-1
 50 0 l 1,31,-1
 50 10 l 1,32,-1
 60 10 l 1,33,-1
 60 20 l 1,34,-1
 50 20 l 1,35,-1
 50 40 l 1,36,-1
 30 40 l 1,37,-1
 30 10 l 1,38,-1
 40 10 l 1,39,-1
 40 0 l 1,40,-1
 0 0 l 1,41,-1
 0 10 l 1,0,-1
EndSplineSet
Substitution2: "Single Substitution lookup 3 subtable" Kgk
EndChar

StartChar: numbersign
Encoding: 35 35 62
Width: 110
GlyphClass: 1
Flags: W
LayerCount: 2
Fore
SplineSet
30 40 m 1,0,-1
 30 80 l 1,1,-1
 20 80 l 1,2,-1
 20 90 l 1,3,-1
 40 90 l 1,4,-1
 40 120 l 1,5,-1
 60 120 l 1,6,-1
 60 90 l 1,7,-1
 80 90 l 1,8,-1
 80 120 l 1,9,-1
 100 120 l 1,10,-1
 100 90 l 1,11,-1
 110 90 l 1,12,-1
 110 80 l 1,13,-1
 90 80 l 1,14,-1
 90 40 l 1,15,-1
 100 40 l 1,16,-1
 100 30 l 1,17,-1
 80 30 l 1,18,-1
 80 0 l 1,19,-1
 60 0 l 1,20,-1
 60 30 l 1,21,-1
 40 30 l 1,22,-1
 40 0 l 1,23,-1
 20 0 l 1,24,-1
 20 30 l 1,25,-1
 10 30 l 1,26,-1
 10 40 l 1,27,-1
 30 40 l 1,0,-1
50 40 m 1,28,-1
 70 40 l 1,29,-1
 70 80 l 1,30,-1
 50 80 l 1,31,-1
 50 40 l 1,28,-1
EndSplineSet
EndChar

StartChar: C
Encoding: 67 67 63
Width: 110
GlyphClass: 1
Flags: W
LayerCount: 2
Fore
SplineSet
10 40 m 1,0,-1
 0 40 l 1,1,-1
 0 80 l 1,2,-1
 10 80 l 1,3,-1
 10 100 l 1,4,-1
 20 100 l 1,5,-1
 20 110 l 1,6,-1
 30 110 l 1,7,-1
 30 120 l 1,8,-1
 80 120 l 1,9,-1
 80 110 l 1,10,-1
 90 110 l 1,11,-1
 90 120 l 1,12,-1
 100 120 l 1,13,-1
 100 80 l 1,14,-1
 90 80 l 1,15,-1
 90 90 l 1,16,-1
 80 90 l 1,17,-1
 80 100 l 1,18,-1
 70 100 l 1,19,-1
 70 110 l 1,20,-1
 40 110 l 1,21,-1
 40 100 l 1,22,-1
 30 100 l 1,23,-1
 30 80 l 1,24,-1
 20 80 l 1,25,-1
 20 40 l 1,26,-1
 30 40 l 1,27,-1
 30 20 l 1,28,-1
 40 20 l 1,29,-1
 40 10 l 1,30,-1
 80 10 l 1,31,-1
 80 0 l 1,32,-1
 30 0 l 1,33,-1
 30 10 l 1,34,-1
 20 10 l 1,35,-1
 20 20 l 1,36,-1
 10 20 l 1,37,-1
 10 40 l 1,0,-1
90 10 m 1,38,-1
 80 10 l 1,39,-1
 80 20 l 1,40,-1
 90 20 l 1,41,-1
 90 40 l 1,42,-1
 100 40 l 1,43,-1
 100 20 l 1,44,-1
 90 20 l 1,45,-1
 90 10 l 1,38,-1
EndSplineSet
Substitution2: "'ss01' Style Set 1 lookup 6 subtable" HexC-nCr
Substitution2: "'aalt' Access All Alternates lookup 0 subtable" HexC-nCr
EndChar

StartChar: x
Encoding: 120 120 64
Width: 110
GlyphClass: 1
Flags: W
LayerCount: 2
Fore
SplineSet
80 60 m 1,0,-1
 70 60 l 1,1,-1
 70 70 l 1,2,-1
 80 70 l 1,3,-1
 80 80 l 1,4,-1
 70 80 l 1,5,-1
 70 90 l 1,6,-1
 100 90 l 1,7,-1
 100 80 l 1,8,-1
 90 80 l 1,9,-1
 90 70 l 1,10,-1
 80 70 l 1,11,-1
 80 60 l 1,0,-1
10 10 m 1,12,-1
 20 10 l 1,13,-1
 20 20 l 1,14,-1
 30 20 l 1,15,-1
 30 30 l 1,16,-1
 40 30 l 1,17,-1
 40 50 l 1,18,-1
 30 50 l 1,19,-1
 30 70 l 1,20,-1
 20 70 l 1,21,-1
 20 80 l 1,22,-1
 10 80 l 1,23,-1
 10 90 l 1,24,-1
 50 90 l 1,25,-1
 50 80 l 1,26,-1
 40 80 l 1,27,-1
 40 70 l 1,28,-1
 50 70 l 1,29,-1
 50 60 l 1,30,-1
 70 60 l 1,31,-1
 70 40 l 1,32,-1
 80 40 l 1,33,-1
 80 20 l 1,34,-1
 90 20 l 1,35,-1
 90 10 l 1,36,-1
 100 10 l 1,37,-1
 100 0 l 1,38,-1
 60 0 l 1,39,-1
 60 10 l 1,40,-1
 70 10 l 1,41,-1
 70 20 l 1,42,-1
 60 20 l 1,43,-1
 60 30 l 1,44,-1
 40 30 l 1,45,-1
 40 20 l 1,46,-1
 30 20 l 1,47,-1
 30 10 l 1,48,-1
 40 10 l 1,49,-1
 40 0 l 1,50,-1
 10 0 l 1,51,-1
 10 10 l 1,12,-1
EndSplineSet
EndChar

StartChar: N
Encoding: 78 78 65
Width: 110
GlyphClass: 1
Flags: W
LayerCount: 2
Fore
SplineSet
10 110 m 1,0,-1
 0 110 l 1,1,-1
 0 120 l 1,2,-1
 20 120 l 1,3,-1
 20 110 l 1,4,-1
 30 110 l 1,5,-1
 30 100 l 1,6,-1
 40 100 l 1,7,-1
 40 80 l 1,8,-1
 50 80 l 1,9,-1
 50 70 l 1,10,-1
 60 70 l 1,11,-1
 60 50 l 1,12,-1
 70 50 l 1,13,-1
 70 40 l 1,14,-1
 80 40 l 1,15,-1
 80 110 l 1,16,-1
 70 110 l 1,17,-1
 70 120 l 1,18,-1
 100 120 l 1,19,-1
 100 110 l 1,20,-1
 90 110 l 1,21,-1
 90 0 l 1,22,-1
 80 0 l 1,23,-1
 80 10 l 1,24,-1
 70 10 l 1,25,-1
 70 20 l 1,26,-1
 60 20 l 1,27,-1
 60 40 l 1,28,-1
 50 40 l 1,29,-1
 50 50 l 1,30,-1
 40 50 l 1,31,-1
 40 70 l 1,32,-1
 30 70 l 1,33,-1
 30 80 l 1,34,-1
 20 80 l 1,35,-1
 20 10 l 1,36,-1
 30 10 l 1,37,-1
 30 0 l 1,38,-1
 0 0 l 1,39,-1
 0 10 l 1,40,-1
 10 10 l 1,41,-1
 10 110 l 1,0,-1
EndSplineSet
EndChar

StartChar: hyphen
Encoding: 45 45 66
Width: 110
GlyphClass: 1
Flags: W
LayerCount: 2
Fore
SplineSet
0 70 m 1,0,-1
 100 70 l 1,1,-1
 100 50 l 1,2,-1
 0 50 l 1,3,-1
 0 70 l 1,0,-1
EndSplineSet
EndChar

StartChar: s
Encoding: 115 115 67
Width: 110
GlyphClass: 1
Flags: W
LayerCount: 2
Fore
SplineSet
10 80 m 1,0,-1
 20 80 l 1,1,-1
 20 90 l 1,2,-1
 70 90 l 1,3,-1
 70 80 l 1,4,-1
 80 80 l 1,5,-1
 80 90 l 1,6,-1
 90 90 l 1,7,-1
 90 60 l 1,8,-1
 80 60 l 1,9,-1
 80 70 l 1,10,-1
 70 70 l 1,11,-1
 70 80 l 1,12,-1
 30 80 l 1,13,-1
 30 60 l 1,14,-1
 50 60 l 1,15,-1
 50 50 l 1,16,-1
 80 50 l 1,17,-1
 80 40 l 1,18,-1
 90 40 l 1,19,-1
 90 10 l 1,20,-1
 80 10 l 1,21,-1
 80 0 l 1,22,-1
 30 0 l 1,23,-1
 30 10 l 1,24,-1
 20 10 l 1,25,-1
 20 0 l 1,26,-1
 10 0 l 1,27,-1
 10 30 l 1,28,-1
 20 30 l 1,29,-1
 20 20 l 1,30,-1
 30 20 l 1,31,-1
 30 10 l 1,32,-1
 70 10 l 1,33,-1
 70 30 l 1,34,-1
 50 30 l 1,35,-1
 50 40 l 1,36,-1
 20 40 l 1,37,-1
 20 50 l 1,38,-1
 10 50 l 1,39,-1
 10 80 l 1,0,-1
EndSplineSet
EndChar

StartChar: five
Encoding: 53 53 68
Width: 110
GlyphClass: 1
Flags: W
LayerCount: 2
Fore
SplineSet
10 10 m 1,0,-1
 10 30 l 1,1,-1
 30 30 l 1,2,-1
 30 20 l 1,3,-1
 40 20 l 1,4,-1
 40 10 l 1,5,-1
 70 10 l 1,6,-1
 70 20 l 1,7,-1
 80 20 l 1,8,-1
 80 60 l 1,9,-1
 70 60 l 1,10,-1
 70 70 l 1,11,-1
 30 70 l 1,12,-1
 30 60 l 1,13,-1
 20 60 l 1,14,-1
 20 50 l 1,15,-1
 10 50 l 1,16,-1
 10 70 l 1,17,-1
 20 70 l 1,18,-1
 20 120 l 1,19,-1
 100 120 l 1,20,-1
 100 110 l 1,21,-1
 90 110 l 1,22,-1
 90 100 l 1,23,-1
 30 100 l 1,24,-1
 30 80 l 1,25,-1
 80 80 l 1,26,-1
 80 70 l 1,27,-1
 90 70 l 1,28,-1
 90 60 l 1,29,-1
 100 60 l 1,30,-1
 100 20 l 1,31,-1
 90 20 l 1,32,-1
 90 10 l 1,33,-1
 80 10 l 1,34,-1
 80 0 l 1,35,-1
 20 0 l 1,36,-1
 20 10 l 1,37,-1
 10 10 l 1,0,-1
EndSplineSet
EndChar

StartChar: V
Encoding: 86 86 69
Width: 110
GlyphClass: 1
Flags: W
LayerCount: 2
Fore
SplineSet
20 110 m 1,0,-1
 10 110 l 1,1,-1
 10 120 l 1,2,-1
 50 120 l 1,3,-1
 50 110 l 1,4,-1
 40 110 l 1,5,-1
 40 80 l 1,6,-1
 50 80 l 1,7,-1
 50 50 l 1,8,-1
 70 50 l 1,9,-1
 70 20 l 1,10,-1
 60 20 l 1,11,-1
 60 0 l 1,12,-1
 50 0 l 1,13,-1
 50 20 l 1,14,-1
 40 20 l 1,15,-1
 40 50 l 1,16,-1
 30 50 l 1,17,-1
 30 80 l 1,18,-1
 20 80 l 1,19,-1
 20 110 l 1,0,-1
80 50 m 1,20,-1
 70 50 l 1,21,-1
 70 80 l 1,22,-1
 80 80 l 1,23,-1
 80 110 l 1,24,-1
 70 110 l 1,25,-1
 70 120 l 1,26,-1
 100 120 l 1,27,-1
 100 110 l 1,28,-1
 90 110 l 1,29,-1
 90 80 l 1,30,-1
 80 80 l 1,31,-1
 80 50 l 1,20,-1
EndSplineSet
EndChar

StartChar: nine
Encoding: 57 57 70
Width: 110
GlyphClass: 1
Flags: W
LayerCount: 2
Fore
SplineSet
20 10 m 1,0,-1
 10 10 l 1,1,-1
 10 30 l 1,2,-1
 30 30 l 1,3,-1
 30 20 l 1,4,-1
 40 20 l 1,5,-1
 40 10 l 1,6,-1
 70 10 l 1,7,-1
 70 20 l 1,8,-1
 80 20 l 1,9,-1
 80 50 l 1,10,-1
 70 50 l 1,11,-1
 70 40 l 1,12,-1
 30 40 l 1,13,-1
 30 50 l 1,14,-1
 20 50 l 1,15,-1
 20 60 l 1,16,-1
 10 60 l 1,17,-1
 10 100 l 1,18,-1
 20 100 l 1,19,-1
 20 110 l 1,20,-1
 30 110 l 1,21,-1
 30 120 l 1,22,-1
 80 120 l 1,23,-1
 80 110 l 1,24,-1
 90 110 l 1,25,-1
 90 100 l 1,26,-1
 100 100 l 1,27,-1
 100 20 l 1,28,-1
 90 20 l 1,29,-1
 90 10 l 1,30,-1
 80 10 l 1,31,-1
 80 0 l 1,32,-1
 20 0 l 1,33,-1
 20 10 l 1,0,-1
30 60 m 1,34,-1
 40 60 l 1,35,-1
 40 50 l 1,36,-1
 70 50 l 1,37,-1
 70 60 l 1,38,-1
 80 60 l 1,39,-1
 80 100 l 1,40,-1
 70 100 l 1,41,-1
 70 110 l 1,42,-1
 40 110 l 1,43,-1
 40 100 l 1,44,-1
 30 100 l 1,45,-1
 30 60 l 1,34,-1
EndSplineSet
EndChar

StartChar: six
Encoding: 54 54 71
Width: 110
GlyphClass: 1
Flags: W
LayerCount: 2
Fore
SplineSet
10 20 m 1,0,-1
 10 100 l 1,1,-1
 20 100 l 1,2,-1
 20 110 l 1,3,-1
 30 110 l 1,4,-1
 30 120 l 1,5,-1
 90 120 l 1,6,-1
 90 110 l 1,7,-1
 100 110 l 1,8,-1
 100 90 l 1,9,-1
 80 90 l 1,10,-1
 80 100 l 1,11,-1
 70 100 l 1,12,-1
 70 110 l 1,13,-1
 40 110 l 1,14,-1
 40 100 l 1,15,-1
 30 100 l 1,16,-1
 30 70 l 1,17,-1
 40 70 l 1,18,-1
 40 80 l 1,19,-1
 80 80 l 1,20,-1
 80 70 l 1,21,-1
 90 70 l 1,22,-1
 90 60 l 1,23,-1
 100 60 l 1,24,-1
 100 20 l 1,25,-1
 90 20 l 1,26,-1
 90 10 l 1,27,-1
 80 10 l 1,28,-1
 80 0 l 1,29,-1
 30 0 l 1,30,-1
 30 10 l 1,31,-1
 20 10 l 1,32,-1
 20 20 l 1,33,-1
 10 20 l 1,0,-1
30 20 m 1,34,-1
 40 20 l 1,35,-1
 40 10 l 1,36,-1
 70 10 l 1,37,-1
 70 20 l 1,38,-1
 80 20 l 1,39,-1
 80 60 l 1,40,-1
 70 60 l 1,41,-1
 70 70 l 1,42,-1
 40 70 l 1,43,-1
 40 60 l 1,44,-1
 30 60 l 1,45,-1
 30 20 l 1,34,-1
EndSplineSet
EndChar

StartChar: seven
Encoding: 55 55 72
Width: 110
GlyphClass: 1
Flags: W
LayerCount: 2
Fore
SplineSet
10 120 m 1,0,-1
 100 120 l 1,1,-1
 100 90 l 1,2,-1
 90 90 l 1,3,-1
 90 80 l 1,4,-1
 80 80 l 1,5,-1
 80 60 l 1,6,-1
 70 60 l 1,7,-1
 70 40 l 1,8,-1
 60 40 l 1,9,-1
 60 0 l 1,10,-1
 40 0 l 1,11,-1
 40 40 l 1,12,-1
 50 40 l 1,13,-1
 50 60 l 1,14,-1
 60 60 l 1,15,-1
 60 80 l 1,16,-1
 70 80 l 1,17,-1
 70 90 l 1,18,-1
 90 90 l 1,19,-1
 90 100 l 1,20,-1
 20 100 l 1,21,-1
 20 80 l 1,22,-1
 10 80 l 1,23,-1
 10 120 l 1,0,-1
EndSplineSet
EndChar

StartChar: B
Encoding: 66 66 73
Width: 110
GlyphClass: 1
Flags: W
LayerCount: 2
Fore
SplineSet
0 0 m 1,0,-1
 0 10 l 1,1,-1
 10 10 l 1,2,-1
 10 110 l 1,3,-1
 0 110 l 1,4,-1
 0 120 l 1,5,-1
 80 120 l 1,6,-1
 80 110 l 1,7,-1
 90 110 l 1,8,-1
 90 100 l 1,9,-1
 100 100 l 1,10,-1
 100 80 l 1,11,-1
 90 80 l 1,12,-1
 90 70 l 1,13,-1
 80 70 l 1,14,-1
 80 60 l 1,15,-1
 90 60 l 1,16,-1
 90 50 l 1,17,-1
 100 50 l 1,18,-1
 100 20 l 1,19,-1
 90 20 l 1,20,-1
 90 10 l 1,21,-1
 80 10 l 1,22,-1
 80 0 l 1,23,-1
 0 0 l 1,0,-1
30 70 m 1,24,-1
 70 70 l 1,25,-1
 70 80 l 1,26,-1
 80 80 l 1,27,-1
 80 100 l 1,28,-1
 70 100 l 1,29,-1
 70 110 l 1,30,-1
 30 110 l 1,31,-1
 30 70 l 1,24,-1
70 60 m 1,32,-1
 30 60 l 1,33,-1
 30 10 l 1,34,-1
 70 10 l 1,35,-1
 70 20 l 1,36,-1
 80 20 l 1,37,-1
 80 50 l 1,38,-1
 70 50 l 1,39,-1
 70 60 l 1,32,-1
EndSplineSet
Substitution2: "'ss01' Style Set 1 lookup 6 subtable" HexB
Substitution2: "'aalt' Access All Alternates lookup 0 subtable" HexB
EndChar

StartChar: y
Encoding: 121 121 74
Width: 110
GlyphClass: 1
Flags: W
LayerCount: 2
Fore
SplineSet
20 0 m 1,0,-1
 10 0 l 1,1,-1
 10 10 l 1,2,-1
 30 10 l 1,3,-1
 30 0 l 1,4,-1
 40 0 l 1,5,-1
 40 10 l 1,6,-1
 50 10 l 1,7,-1
 50 20 l 1,8,-1
 40 20 l 1,9,-1
 40 40 l 1,10,-1
 30 40 l 1,11,-1
 30 60 l 1,12,-1
 20 60 l 1,13,-1
 20 80 l 1,14,-1
 10 80 l 1,15,-1
 10 90 l 1,16,-1
 50 90 l 1,17,-1
 50 80 l 1,18,-1
 40 80 l 1,19,-1
 40 70 l 1,20,-1
 50 70 l 1,21,-1
 50 50 l 1,22,-1
 60 50 l 1,23,-1
 60 40 l 1,24,-1
 70 40 l 1,25,-1
 70 20 l 1,26,-1
 60 20 l 1,27,-1
 60 0 l 1,28,-1
 50 0 l 1,29,-1
 50 -10 l 1,30,-1
 20 -10 l 1,31,-1
 20 0 l 1,0,-1
80 40 m 1,32,-1
 70 40 l 1,33,-1
 70 60 l 1,34,-1
 80 60 l 1,35,-1
 80 80 l 1,36,-1
 70 80 l 1,37,-1
 70 90 l 1,38,-1
 100 90 l 1,39,-1
 100 80 l 1,40,-1
 90 80 l 1,41,-1
 90 60 l 1,42,-1
 80 60 l 1,43,-1
 80 40 l 1,32,-1
EndSplineSet
EndChar

StartChar: d
Encoding: 100 100 75
Width: 110
GlyphClass: 1
Flags: W
LayerCount: 2
Fore
SplineSet
20 20 m 1,0,-1
 10 20 l 1,1,-1
 10 70 l 1,2,-1
 20 70 l 1,3,-1
 20 80 l 1,4,-1
 30 80 l 1,5,-1
 30 90 l 1,6,-1
 60 90 l 1,7,-1
 60 80 l 1,8,-1
 70 80 l 1,9,-1
 70 110 l 1,10,-1
 60 110 l 1,11,-1
 60 120 l 1,12,-1
 90 120 l 1,13,-1
 90 10 l 1,14,-1
 100 10 l 1,15,-1
 100 0 l 1,16,-1
 70 0 l 1,17,-1
 70 10 l 1,18,-1
 60 10 l 1,19,-1
 60 0 l 1,20,-1
 30 0 l 1,21,-1
 30 10 l 1,22,-1
 20 10 l 1,23,-1
 20 20 l 1,0,-1
40 70 m 1,24,-1
 30 70 l 1,25,-1
 30 20 l 1,26,-1
 40 20 l 1,27,-1
 40 10 l 1,28,-1
 60 10 l 1,29,-1
 60 20 l 1,30,-1
 70 20 l 1,31,-1
 70 70 l 1,32,-1
 60 70 l 1,33,-1
 60 80 l 1,34,-1
 40 80 l 1,35,-1
 40 70 l 1,24,-1
EndSplineSet
EndChar

StartChar: h
Encoding: 104 104 76
Width: 110
GlyphClass: 1
Flags: W
LayerCount: 2
Fore
SplineSet
0 10 m 1,0,-1
 10 10 l 1,1,-1
 10 110 l 1,2,-1
 0 110 l 1,3,-1
 0 120 l 1,4,-1
 30 120 l 1,5,-1
 30 80 l 1,6,-1
 40 80 l 1,7,-1
 40 90 l 1,8,-1
 70 90 l 1,9,-1
 70 80 l 1,10,-1
 80 80 l 1,11,-1
 80 70 l 1,12,-1
 90 70 l 1,13,-1
 90 10 l 1,14,-1
 100 10 l 1,15,-1
 100 0 l 1,16,-1
 60 0 l 1,17,-1
 60 10 l 1,18,-1
 70 10 l 1,19,-1
 70 70 l 1,20,-1
 60 70 l 1,21,-1
 60 80 l 1,22,-1
 40 80 l 1,23,-1
 40 70 l 1,24,-1
 30 70 l 1,25,-1
 30 10 l 1,26,-1
 40 10 l 1,27,-1
 40 0 l 1,28,-1
 0 0 l 1,29,-1
 0 10 l 1,0,-1
EndSplineSet
Substitution2: "Single Substitution lookup 1 subtable" caltH-gk
EndChar

StartChar: eight
Encoding: 56 56 77
Width: 110
GlyphClass: 1
Flags: W
LayerCount: 2
Fore
SplineSet
10 20 m 1,0,-1
 10 50 l 1,1,-1
 20 50 l 1,2,-1
 20 70 l 1,3,-1
 10 70 l 1,4,-1
 10 100 l 1,5,-1
 20 100 l 1,6,-1
 20 110 l 1,7,-1
 30 110 l 1,8,-1
 30 120 l 1,9,-1
 80 120 l 1,10,-1
 80 110 l 1,11,-1
 90 110 l 1,12,-1
 90 100 l 1,13,-1
 100 100 l 1,14,-1
 100 70 l 1,15,-1
 90 70 l 1,16,-1
 90 50 l 1,17,-1
 100 50 l 1,18,-1
 100 20 l 1,19,-1
 90 20 l 1,20,-1
 90 10 l 1,21,-1
 80 10 l 1,22,-1
 80 0 l 1,23,-1
 30 0 l 1,24,-1
 30 10 l 1,25,-1
 20 10 l 1,26,-1
 20 20 l 1,27,-1
 10 20 l 1,0,-1
40 80 m 1,28,-1
 40 70 l 1,29,-1
 80 70 l 1,30,-1
 80 100 l 1,31,-1
 70 100 l 1,32,-1
 70 110 l 1,33,-1
 40 110 l 1,34,-1
 40 100 l 1,35,-1
 30 100 l 1,36,-1
 30 80 l 1,37,-1
 40 80 l 1,28,-1
30 20 m 1,38,-1
 40 20 l 1,39,-1
 40 10 l 1,40,-1
 70 10 l 1,41,-1
 70 20 l 1,42,-1
 80 20 l 1,43,-1
 80 40 l 1,44,-1
 70 40 l 1,45,-1
 70 50 l 1,46,-1
 30 50 l 1,47,-1
 30 20 l 1,38,-1
EndSplineSet
EndChar

StartChar: P
Encoding: 80 80 78
Width: 110
GlyphClass: 1
Flags: W
LayerCount: 2
Fore
SplineSet
10 110 m 1,0,-1
 0 110 l 1,1,-1
 0 120 l 1,2,-1
 80 120 l 1,3,-1
 80 110 l 1,4,-1
 90 110 l 1,5,-1
 90 100 l 1,6,-1
 100 100 l 1,7,-1
 100 70 l 1,8,-1
 90 70 l 1,9,-1
 90 60 l 1,10,-1
 80 60 l 1,11,-1
 80 50 l 1,12,-1
 30 50 l 1,13,-1
 30 10 l 1,14,-1
 40 10 l 1,15,-1
 40 0 l 1,16,-1
 0 0 l 1,17,-1
 0 10 l 1,18,-1
 10 10 l 1,19,-1
 10 110 l 1,0,-1
70 110 m 1,20,-1
 30 110 l 1,21,-1
 30 60 l 1,22,-1
 70 60 l 1,23,-1
 70 70 l 1,24,-1
 80 70 l 1,25,-1
 80 100 l 1,26,-1
 70 100 l 1,27,-1
 70 110 l 1,20,-1
EndSplineSet
Substitution2: "'ss01' Style Set 1 lookup 6 subtable" nPr
Substitution2: "'aalt' Access All Alternates lookup 0 subtable" nPr
EndChar

StartChar: O
Encoding: 79 79 79
Width: 110
GlyphClass: 1
Flags: W
LayerCount: 2
Fore
SplineSet
10 90 m 1,0,-1
 10 110 l 1,1,-1
 20 110 l 1,2,-1
 20 120 l 1,3,-1
 80 120 l 1,4,-1
 80 110 l 1,5,-1
 90 110 l 1,6,-1
 90 90 l 1,7,-1
 100 90 l 1,8,-1
 100 30 l 1,9,-1
 90 30 l 1,10,-1
 90 10 l 1,11,-1
 80 10 l 1,12,-1
 80 0 l 1,13,-1
 20 0 l 1,14,-1
 20 10 l 1,15,-1
 10 10 l 1,16,-1
 10 30 l 1,17,-1
 0 30 l 1,18,-1
 0 90 l 1,19,-1
 10 90 l 1,0,-1
20 30 m 1,20,-1
 30 30 l 1,21,-1
 30 10 l 1,22,-1
 70 10 l 1,23,-1
 70 30 l 1,24,-1
 80 30 l 1,25,-1
 80 90 l 1,26,-1
 70 90 l 1,27,-1
 70 110 l 1,28,-1
 30 110 l 1,29,-1
 30 90 l 1,30,-1
 20 90 l 1,31,-1
 20 30 l 1,20,-1
EndSplineSet
EndChar

StartChar: five.inferior
Encoding: 8325 8325 80
Width: 110
GlyphClass: 1
Flags: W
LayerCount: 2
Fore
SplineSet
20 -10 m 1,0,-1
 20 0 l 1,1,-1
 10 0 l 1,2,-1
 10 10 l 1,3,-1
 30 10 l 1,4,-1
 30 0 l 1,5,-1
 60 0 l 1,6,-1
 60 30 l 1,7,-1
 30 30 l 1,8,-1
 30 20 l 1,9,-1
 10 20 l 1,10,-1
 10 60 l 1,11,-1
 80 60 l 1,12,-1
 80 50 l 1,13,-1
 20 50 l 1,14,-1
 20 40 l 1,15,-1
 70 40 l 1,16,-1
 70 30 l 1,17,-1
 81 30 l 1,18,-1
 81 0 l 1,19,-1
 70 0 l 1,20,-1
 70 -10 l 1,21,-1
 20 -10 l 1,0,-1
EndSplineSet
EndChar

StartChar: exclam
Encoding: 33 33 81
Width: 110
GlyphClass: 1
Flags: W
LayerCount: 2
Fore
SplineSet
40 120 m 1,0,-1
 60 120 l 1,1,-1
 60 40 l 1,2,-1
 40 40 l 1,3,-1
 40 120 l 1,0,-1
40 20 m 1,4,-1
 60 20 l 1,5,-1
 60 0 l 1,6,-1
 40 0 l 1,7,-1
 40 20 l 1,4,-1
EndSplineSet
EndChar

StartChar: at
Encoding: 64 64 82
Width: 110
GlyphClass: 1
Flags: W
LayerCount: 2
Fore
SplineSet
0 90 m 1,0,-1
 10 90 l 1,1,-1
 10 110 l 1,2,-1
 30 110 l 1,3,-1
 30 120 l 1,4,-1
 70 120 l 1,5,-1
 70 110 l 1,6,-1
 90 110 l 1,7,-1
 90 100 l 1,8,-1
 100 100 l 1,9,-1
 100 40 l 1,10,-1
 90 40 l 1,11,-1
 90 30 l 1,12,-1
 100 30 l 1,13,-1
 100 10 l 1,14,-1
 80 10 l 1,15,-1
 80 0 l 1,16,-1
 30 0 l 1,17,-1
 30 10 l 1,18,-1
 10 10 l 1,19,-1
 10 30 l 1,20,-1
 0 30 l 1,21,-1
 0 90 l 1,0,-1
20 40 m 1,22,-1
 20 20 l 1,23,-1
 40 20 l 1,24,-1
 40 10 l 1,25,-1
 70 10 l 1,26,-1
 70 20 l 1,27,-1
 90 20 l 1,28,-1
 90 30 l 1,29,-1
 60 30 l 1,30,-1
 60 40 l 1,31,-1
 50 40 l 1,32,-1
 50 60 l 1,33,-1
 60 60 l 1,34,-1
 60 80 l 1,35,-1
 70 80 l 1,36,-1
 70 90 l 1,37,-1
 80 90 l 1,38,-1
 80 60 l 1,39,-1
 70 60 l 1,40,-1
 70 40 l 1,41,-1
 80 40 l 1,42,-1
 80 50 l 1,43,-1
 90 50 l 1,44,-1
 90 90 l 1,45,-1
 80 90 l 1,46,-1
 80 100 l 1,47,-1
 60 100 l 1,48,-1
 60 110 l 1,49,-1
 40 110 l 1,50,-1
 40 100 l 1,51,-1
 20 100 l 1,52,-1
 20 80 l 1,53,-1
 10 80 l 1,54,-1
 10 40 l 1,55,-1
 20 40 l 1,22,-1
30 70 m 1,56,-1
 30 80 l 1,57,-1
 40 80 l 1,58,-1
 40 90 l 1,59,-1
 60 90 l 1,60,-1
 60 80 l 1,61,-1
 50 80 l 1,62,-1
 50 70 l 1,63,-1
 40 70 l 1,64,-1
 40 40 l 1,65,-1
 50 40 l 1,66,-1
 50 30 l 1,67,-1
 30 30 l 1,68,-1
 30 40 l 1,69,-1
 20 40 l 1,70,-1
 20 70 l 1,71,-1
 30 70 l 1,56,-1
EndSplineSet
EndChar

StartChar: Q
Encoding: 81 81 83
Width: 110
GlyphClass: 1
Flags: W
LayerCount: 2
Fore
SplineSet
10 90 m 1,0,-1
 10 110 l 1,1,-1
 20 110 l 1,2,-1
 20 120 l 1,3,-1
 80 120 l 1,4,-1
 80 110 l 1,5,-1
 90 110 l 1,6,-1
 90 90 l 1,7,-1
 100 90 l 1,8,-1
 100 30 l 1,9,-1
 90 30 l 1,10,-1
 90 10 l 1,11,-1
 80 10 l 1,12,-1
 80 0 l 1,13,-1
 90 0 l 1,14,-1
 90 -10 l 1,15,-1
 60 -10 l 1,16,-1
 60 0 l 1,17,-1
 20 0 l 1,18,-1
 20 10 l 1,19,-1
 10 10 l 1,20,-1
 10 30 l 1,21,-1
 0 30 l 1,22,-1
 0 90 l 1,23,-1
 10 90 l 1,0,-1
20 30 m 1,24,-1
 40 30 l 1,25,-1
 40 20 l 1,26,-1
 30 20 l 1,27,-1
 30 10 l 1,28,-1
 60 10 l 1,29,-1
 60 30 l 1,30,-1
 70 30 l 1,31,-1
 70 20 l 1,32,-1
 80 20 l 1,33,-1
 80 90 l 1,34,-1
 70 90 l 1,35,-1
 70 110 l 1,36,-1
 30 110 l 1,37,-1
 30 90 l 1,38,-1
 20 90 l 1,39,-1
 20 30 l 1,24,-1
40 40 m 1,40,-1
 60 40 l 1,41,-1
 60 30 l 1,42,-1
 40 30 l 1,43,-1
 40 40 l 1,40,-1
EndSplineSet
EndChar

StartChar: one.inferior
Encoding: 8321 8321 84
Width: 110
GlyphClass: 1
Flags: W
LayerCount: 2
Fore
SplineSet
30 -10 m 1,0,-1
 30 0 l 1,1,-1
 40 0 l 1,2,-1
 40 40 l 1,3,-1
 30 40 l 1,4,-1
 30 50 l 1,5,-1
 40 50 l 1,6,-1
 40 60 l 1,7,-1
 60 60 l 1,8,-1
 60 0 l 1,9,-1
 70 0 l 1,10,-1
 70 -10 l 1,11,-1
 30 -10 l 1,0,-1
EndSplineSet
EndChar

StartChar: two.inferior
Encoding: 8322 8322 85
Width: 110
GlyphClass: 1
Flags: W
LayerCount: 2
Fore
SplineSet
10 -10 m 1,0,-1
 10 10 l 1,1,-1
 20 10 l 1,2,-1
 20 20 l 1,3,-1
 30 20 l 1,4,-1
 30 30 l 1,5,-1
 60 30 l 1,6,-1
 60 50 l 1,7,-1
 30 50 l 1,8,-1
 30 40 l 1,9,-1
 10 40 l 1,10,-1
 10 50 l 1,11,-1
 20 50 l 1,12,-1
 20 60 l 1,13,-1
 70 60 l 1,14,-1
 70 50 l 1,15,-1
 80 50 l 1,16,-1
 80 30 l 1,17,-1
 70 30 l 1,18,-1
 70 20 l 1,19,-1
 40 20 l 1,20,-1
 40 10 l 1,21,-1
 30 10 l 1,22,-1
 30 0 l 1,23,-1
 70 0 l 1,24,-1
 70 10 l 1,25,-1
 80 10 l 1,26,-1
 80 -10 l 1,27,-1
 10 -10 l 1,0,-1
EndSplineSet
EndChar

StartChar: Mbold
Encoding: 119820 119820 86
Width: 110
GlyphClass: 1
Flags: W
LayerCount: 2
Fore
SplineSet
0 0 m 1,0,-1
 0 10 l 1,1,-1
 10 10 l 1,2,-1
 10 110 l 1,3,-1
 0 110 l 1,4,-1
 0 120 l 1,5,-1
 20 120 l 1,6,-1
 20 100 l 1,7,-1
 30 100 l 1,8,-1
 30 70 l 1,9,-1
 50 70 l 1,10,-1
 50 100 l 1,11,-1
 60 100 l 1,12,-1
 60 120 l 1,13,-1
 100 120 l 1,14,-1
 100 110 l 1,15,-1
 90 110 l 1,16,-1
 90 10 l 1,17,-1
 100 10 l 1,18,-1
 100 0 l 1,19,-1
 40 0 l 1,20,-1
 40 10 l 1,21,-1
 60 10 l 1,22,-1
 60 50 l 1,23,-1
 50 50 l 1,24,-1
 50 20 l 1,25,-1
 30 20 l 1,26,-1
 30 50 l 1,27,-1
 20 50 l 1,28,-1
 20 10 l 1,29,-1
 30 10 l 1,30,-1
 30 0 l 1,31,-1
 0 0 l 1,0,-1
EndSplineSet
EndChar

StartChar: Tbold
Encoding: 119827 119827 87
Width: 110
GlyphClass: 1
Flags: W
LayerCount: 2
Fore
SplineSet
0 120 m 1,0,-1
 90 120 l 1,1,-1
 90 90 l 1,2,-1
 80 90 l 1,3,-1
 80 100 l 1,4,-1
 70 100 l 1,5,-1
 70 110 l 1,6,-1
 60 110 l 1,7,-1
 60 10 l 1,8,-1
 70 10 l 1,9,-1
 70 0 l 1,10,-1
 20 0 l 1,11,-1
 20 10 l 1,12,-1
 30 10 l 1,13,-1
 30 110 l 1,14,-1
 20 110 l 1,15,-1
 20 100 l 1,16,-1
 10 100 l 1,17,-1
 10 90 l 1,18,-1
 0 90 l 1,19,-1
 0 120 l 1,0,-1
EndSplineSet
EndChar

StartChar: fbold
Encoding: 119839 119839 88
Width: 110
GlyphClass: 1
Flags: W
LayerCount: 2
Fore
SplineSet
10 0 m 1,0,-1
 10 10 l 1,1,-1
 30 10 l 1,2,-1
 30 70 l 1,3,-1
 10 70 l 1,4,-1
 10 80 l 1,5,-1
 30 80 l 1,6,-1
 30 110 l 1,7,-1
 40 110 l 1,8,-1
 40 120 l 1,9,-1
 90 120 l 1,10,-1
 90 110 l 1,11,-1
 100 110 l 1,12,-1
 100 100 l 1,13,-1
 70 100 l 1,14,-1
 70 110 l 1,15,-1
 60 110 l 1,16,-1
 60 80 l 1,17,-1
 80 80 l 1,18,-1
 80 70 l 1,19,-1
 60 70 l 1,20,-1
 60 10 l 1,21,-1
 80 10 l 1,22,-1
 80 0 l 1,23,-1
 10 0 l 1,0,-1
EndSplineSet
EndChar

StartChar: Tsmall
Encoding: 7451 7451 89
Width: 110
GlyphClass: 1
Flags: W
LayerCount: 2
Fore
SplineSet
20 -10 m 1,0,-1
 20 0 l 1,1,-1
 30 0 l 1,2,-1
 30 50 l 1,3,-1
 20 50 l 1,4,-1
 20 40 l 1,5,-1
 10 40 l 1,6,-1
 10 60 l 1,7,-1
 70 60 l 1,8,-1
 70 40 l 1,9,-1
 60 40 l 1,10,-1
 60 50 l 1,11,-1
 50 50 l 1,12,-1
 50 0 l 1,13,-1
 60 0 l 1,14,-1
 60 -10 l 1,15,-1
 20 -10 l 1,0,-1
EndSplineSet
EndChar

StartChar: times.small
Encoding: 57356 57356 90
Width: 110
GlyphClass: 1
Flags: W
LayerCount: 2
Fore
SplineSet
30 20 m 1,0,-1
 40 20 l 1,1,-1
 40 30 l 1,2,-1
 50 30 l 1,3,-1
 50 40 l 1,4,-1
 40 40 l 1,5,-1
 40 50 l 1,6,-1
 30 50 l 1,7,-1
 30 70 l 1,8,-1
 40 70 l 1,9,-1
 40 60 l 1,10,-1
 50 60 l 1,11,-1
 50 50 l 1,12,-1
 70 50 l 1,13,-1
 70 60 l 1,14,-1
 80 60 l 1,15,-1
 80 70 l 1,16,-1
 90 70 l 1,17,-1
 90 50 l 1,18,-1
 80 50 l 1,19,-1
 80 40 l 1,20,-1
 70 40 l 1,21,-1
 70 30 l 1,22,-1
 80 30 l 1,23,-1
 80 20 l 1,24,-1
 90 20 l 1,25,-1
 90 0 l 1,26,-1
 80 0 l 1,27,-1
 80 10 l 1,28,-1
 70 10 l 1,29,-1
 70 20 l 1,30,-1
 50 20 l 1,31,-1
 50 10 l 1,32,-1
 40 10 l 1,33,-1
 40 0 l 1,34,-1
 30 0 l 1,35,-1
 30 20 l 1,0,-1
EndSplineSet
EndChar

StartChar: W
Encoding: 87 87 91
Width: 110
GlyphClass: 1
Flags: W
LayerCount: 2
Fore
SplineSet
0 110 m 1,0,-1
 0 120 l 1,1,-1
 40 120 l 1,2,-1
 40 110 l 1,3,-1
 30 110 l 1,4,-1
 30 50 l 1,5,-1
 40 50 l 1,6,-1
 40 80 l 1,7,-1
 50 80 l 1,8,-1
 50 120 l 1,9,-1
 70 120 l 1,10,-1
 70 50 l 1,11,-1
 80 50 l 1,12,-1
 80 80 l 1,13,-1
 90 80 l 1,14,-1
 90 110 l 1,15,-1
 80 110 l 1,16,-1
 80 120 l 1,17,-1
 100 120 l 1,18,-1
 100 70 l 1,19,-1
 90 70 l 1,20,-1
 90 20 l 1,21,-1
 80 20 l 1,22,-1
 80 0 l 1,23,-1
 70 0 l 1,24,-1
 70 20 l 1,25,-1
 60 20 l 1,26,-1
 60 70 l 1,27,-1
 50 70 l 1,28,-1
 50 20 l 1,29,-1
 40 20 l 1,30,-1
 40 0 l 1,31,-1
 30 0 l 1,32,-1
 30 20 l 1,33,-1
 20 20 l 1,34,-1
 20 70 l 1,35,-1
 10 70 l 1,36,-1
 10 110 l 1,37,-1
 0 110 l 1,0,-1
EndSplineSet
EndChar

StartChar: j
Encoding: 106 106 92
Width: 110
GlyphClass: 1
Flags: W
LayerCount: 2
Fore
SplineSet
80 120 m 1,0,-1
 80 100 l 1,1,-1
 60 100 l 1,2,-1
 60 120 l 1,3,-1
 80 120 l 1,0,-1
80 90 m 1,4,-1
 80 0 l 1,5,-1
 70 0 l 1,6,-1
 70 -10 l 1,7,-1
 30 -10 l 1,8,-1
 30 0 l 1,9,-1
 20 0 l 1,10,-1
 20 20 l 1,11,-1
 40 20 l 1,12,-1
 40 0 l 1,13,-1
 60 0 l 1,14,-1
 60 80 l 1,15,-1
 40 80 l 1,16,-1
 40 90 l 1,17,-1
 80 90 l 1,4,-1
EndSplineSet
EndChar

StartChar: times.small.2
Encoding: 57358 57358 93
Width: 110
GlyphClass: 1
Flags: W
LayerCount: 2
Fore
SplineSet
80 0 m 1,0,-1
 70 0 l 1,1,-1
 70 10 l 1,2,-1
 60 10 l 1,3,-1
 60 20 l 1,4,-1
 40 20 l 1,5,-1
 40 10 l 1,6,-1
 30 10 l 1,7,-1
 30 0 l 1,8,-1
 20 0 l 1,9,-1
 20 20 l 1,10,-1
 30 20 l 1,11,-1
 30 30 l 1,12,-1
 40 30 l 1,13,-1
 40 40 l 1,14,-1
 30 40 l 1,15,-1
 30 50 l 1,16,-1
 20 50 l 1,17,-1
 20 70 l 1,18,-1
 30 70 l 1,19,-1
 30 60 l 1,20,-1
 40 60 l 1,21,-1
 40 50 l 1,22,-1
 60 50 l 1,23,-1
 60 60 l 1,24,-1
 70 60 l 1,25,-1
 70 70 l 1,26,-1
 80 70 l 1,27,-1
 80 50 l 1,28,-1
 70 50 l 1,29,-1
 70 40 l 1,30,-1
 60 40 l 1,31,-1
 60 30 l 1,32,-1
 70 30 l 1,33,-1
 70 20 l 1,34,-1
 80 20 l 1,35,-1
 80 0 l 1,0,-1
EndSplineSet
EndChar

StartChar: lessequal
Encoding: 8804 8804 94
Width: 110
GlyphClass: 1
Flags: W
LayerCount: 2
Fore
SplineSet
100 30 m 1,0,-1
 72 30 l 1,1,-1
 72 40 l 1,2,-1
 50 40 l 1,3,-1
 50 50 l 1,4,-1
 30 50 l 1,5,-1
 30 60 l 1,6,-1
 10 60 l 1,7,-1
 10 90 l 1,8,-1
 30 90 l 1,9,-1
 30 100 l 1,10,-1
 50 100 l 1,11,-1
 50 110 l 1,12,-1
 70 110 l 1,13,-1
 70 120 l 1,14,-1
 100 120 l 1,15,-1
 100 100 l 1,16,-1
 80 100 l 1,17,-1
 80 90 l 1,18,-1
 60 90 l 1,19,-1
 60 80 l 1,20,-1
 40 80 l 1,21,-1
 40 70 l 1,22,-1
 60 70 l 1,23,-1
 60 60 l 1,24,-1
 80 60 l 1,25,-1
 80 50 l 1,26,-1
 100 50 l 1,27,-1
 100 30 l 1,0,-1
10 0 m 1,28,-1
 10 20 l 1,29,-1
 100 20 l 1,30,-1
 100 0 l 1,31,-1
 10 0 l 1,28,-1
EndSplineSet
EndChar

StartChar: greaterequal
Encoding: 8805 8805 95
Width: 110
GlyphClass: 1
Flags: W
LayerCount: 2
Fore
SplineSet
10 30 m 1,0,-1
 10 50 l 1,1,-1
 30 50 l 1,2,-1
 30 60 l 1,3,-1
 50 60 l 1,4,-1
 50 70 l 1,5,-1
 70 70 l 1,6,-1
 70 80 l 1,7,-1
 50 80 l 1,8,-1
 50 90 l 1,9,-1
 30 90 l 1,10,-1
 30 100 l 1,11,-1
 10 100 l 1,12,-1
 10 120 l 1,13,-1
 40 120 l 1,14,-1
 40 110 l 1,15,-1
 60 110 l 1,16,-1
 60 100 l 1,17,-1
 80 100 l 1,18,-1
 80 90 l 1,19,-1
 100 90 l 1,20,-1
 100 60 l 1,21,-1
 80 60 l 1,22,-1
 80 50 l 1,23,-1
 60 50 l 1,24,-1
 60 40 l 1,25,-1
 38 40 l 1,26,-1
 38 30 l 1,27,-1
 10 30 l 1,0,-1
100 0 m 1,28,-1
 10 0 l 1,29,-1
 10 20 l 1,30,-1
 100 20 l 1,31,-1
 100 0 l 1,28,-1
EndSplineSet
EndChar

StartChar: f
Encoding: 102 102 96
Width: 110
GlyphClass: 1
Flags: W
LayerCount: 2
Fore
SplineSet
20 10 m 1,0,-1
 40 10 l 1,1,-1
 40 80 l 1,2,-1
 20 80 l 1,3,-1
 20 90 l 1,4,-1
 40 90 l 1,5,-1
 40 110 l 1,6,-1
 50 110 l 1,7,-1
 50 120 l 1,8,-1
 80 120 l 1,9,-1
 80 110 l 1,10,-1
 90 110 l 1,11,-1
 90 100 l 1,12,-1
 70 100 l 1,13,-1
 70 110 l 1,14,-1
 60 110 l 1,15,-1
 60 90 l 1,16,-1
 80 90 l 1,17,-1
 80 80 l 1,18,-1
 60 80 l 1,19,-1
 60 10 l 1,20,-1
 80 10 l 1,21,-1
 80 0 l 1,22,-1
 20 0 l 1,23,-1
 20 10 l 1,0,-1
EndSplineSet
EndChar

StartChar: X
Encoding: 88 88 97
Width: 110
GlyphClass: 1
Flags: W
LayerCount: 2
Fore
SplineSet
70 70 m 1,0,-1
 60 70 l 1,1,-1
 60 90 l 1,2,-1
 70 90 l 1,3,-1
 70 100 l 1,4,-1
 80 100 l 1,5,-1
 80 110 l 1,6,-1
 70 110 l 1,7,-1
 70 120 l 1,8,-1
 100 120 l 1,9,-1
 100 110 l 1,10,-1
 90 110 l 1,11,-1
 90 100 l 1,12,-1
 80 100 l 1,13,-1
 80 90 l 1,14,-1
 70 90 l 1,15,-1
 70 70 l 1,0,-1
0 10 m 1,16,-1
 10 10 l 1,17,-1
 10 20 l 1,18,-1
 20 20 l 1,19,-1
 20 30 l 1,20,-1
 30 30 l 1,21,-1
 30 50 l 1,22,-1
 40 50 l 1,23,-1
 40 70 l 1,24,-1
 30 70 l 1,25,-1
 30 80 l 1,26,-1
 20 80 l 1,27,-1
 20 100 l 1,28,-1
 10 100 l 1,29,-1
 10 110 l 1,30,-1
 0 110 l 1,31,-1
 0 120 l 1,32,-1
 40 120 l 1,33,-1
 40 110 l 1,34,-1
 30 110 l 1,35,-1
 30 100 l 1,36,-1
 40 100 l 1,37,-1
 40 90 l 1,38,-1
 50 90 l 1,39,-1
 50 70 l 1,40,-1
 60 70 l 1,41,-1
 60 50 l 1,42,-1
 70 50 l 1,43,-1
 70 40 l 1,44,-1
 80 40 l 1,45,-1
 80 20 l 1,46,-1
 90 20 l 1,47,-1
 90 10 l 1,48,-1
 100 10 l 1,49,-1
 100 0 l 1,50,-1
 60 0 l 1,51,-1
 60 10 l 1,52,-1
 70 10 l 1,53,-1
 70 20 l 1,54,-1
 60 20 l 1,55,-1
 60 30 l 1,56,-1
 50 30 l 1,57,-1
 50 50 l 1,58,-1
 40 50 l 1,59,-1
 40 30 l 1,60,-1
 30 30 l 1,61,-1
 30 20 l 1,62,-1
 20 20 l 1,63,-1
 20 10 l 1,64,-1
 30 10 l 1,65,-1
 30 0 l 1,66,-1
 0 0 l 1,67,-1
 0 10 l 1,16,-1
EndSplineSet
EndChar

StartChar: Asmall
Encoding: 7424 7424 98
Width: 110
GlyphClass: 1
Flags: W
LayerCount: 2
Fore
SplineSet
40 -10 m 1,0,-1
 10 -10 l 1,1,-1
 10 0 l 1,2,-1
 20 0 l 1,3,-1
 20 20 l 1,4,-1
 30 20 l 1,5,-1
 30 40 l 1,6,-1
 40 40 l 1,7,-1
 40 60 l 1,8,-1
 60 60 l 1,9,-1
 60 40 l 1,10,-1
 70 40 l 1,11,-1
 70 20 l 1,12,-1
 80 20 l 1,13,-1
 80 0 l 1,14,-1
 90 0 l 1,15,-1
 90 -10 l 1,16,-1
 50 -10 l 1,17,-1
 50 0 l 1,18,-1
 60 0 l 1,19,-1
 60 10 l 1,20,-1
 30 10 l 1,21,-1
 30 0 l 1,22,-1
 40 0 l 1,23,-1
 40 -10 l 1,0,-1
50 30 m 1,24,-1
 40 30 l 1,25,-1
 40 20 l 1,26,-1
 50 20 l 1,27,-1
 50 30 l 1,24,-1
EndSplineSet
EndChar

StartChar: five.superior
Encoding: 8309 8309 99
Width: 110
GlyphClass: 1
Flags: W
LayerCount: 2
Fore
SplineSet
10 70 m 1,0,-1
 30 70 l 1,1,-1
 30 60 l 1,2,-1
 60 60 l 1,3,-1
 60 90 l 1,4,-1
 30 90 l 1,5,-1
 30 80 l 1,6,-1
 10 80 l 1,7,-1
 10 120 l 1,8,-1
 80 120 l 1,9,-1
 80 110 l 1,10,-1
 20 110 l 1,11,-1
 20 100 l 1,12,-1
 70 100 l 1,13,-1
 70 90 l 1,14,-1
 81 90 l 1,15,-1
 81 60 l 1,16,-1
 70 60 l 1,17,-1
 70 50 l 1,18,-1
 20 50 l 1,19,-1
 20 60 l 1,20,-1
 10 60 l 1,21,-1
 10 70 l 1,0,-1
EndSplineSet
EndChar

StartChar: parenleft.inferior
Encoding: 8333 8333 100
Width: 110
GlyphClass: 1
Flags: W
LayerCount: 2
Fore
SplineSet
70 -10 m 1,0,-1
 50 -10 l 1,1,-1
 50 0 l 1,2,-1
 40 0 l 1,3,-1
 40 10 l 1,4,-1
 30 10 l 1,5,-1
 30 40 l 1,6,-1
 40 40 l 1,7,-1
 40 50 l 1,8,-1
 50 50 l 1,9,-1
 50 60 l 1,10,-1
 70 60 l 1,11,-1
 70 50 l 1,12,-1
 60 50 l 1,13,-1
 60 40 l 1,14,-1
 50 40 l 1,15,-1
 50 10 l 1,16,-1
 60 10 l 1,17,-1
 60 0 l 1,18,-1
 70 0 l 1,19,-1
 70 -10 l 1,0,-1
EndSplineSet
EndChar

StartChar: notequal
Encoding: 8800 8800 101
Width: 110
GlyphClass: 1
Flags: W
LayerCount: 2
Fore
SplineSet
0 30 m 1,0,-1
 0 50 l 1,1,-1
 40 50 l 1,2,-1
 40 70 l 1,3,-1
 0 70 l 1,4,-1
 0 90 l 1,5,-1
 50 90 l 1,6,-1
 50 120 l 1,7,-1
 70 120 l 1,8,-1
 70 90 l 1,9,-1
 100 90 l 1,10,-1
 100 70 l 1,11,-1
 60 70 l 1,12,-1
 60 50 l 1,13,-1
 100 50 l 1,14,-1
 100 30 l 1,15,-1
 50 30 l 1,16,-1
 50 0 l 1,17,-1
 30 0 l 1,18,-1
 30 30 l 1,19,-1
 0 30 l 1,0,-1
EndSplineSet
EndChar

StartChar: dotmath
Encoding: 8901 8901 102
Width: 110
GlyphClass: 1
Flags: W
LayerCount: 2
Fore
SplineSet
40 70 m 1,0,-1
 40 80 l 1,1,-1
 60 80 l 1,2,-1
 60 70 l 1,3,-1
 70 70 l 1,4,-1
 70 50 l 1,5,-1
 60 50 l 1,6,-1
 60 40 l 1,7,-1
 40 40 l 1,8,-1
 40 50 l 1,9,-1
 30 50 l 1,10,-1
 30 70 l 1,11,-1
 40 70 l 1,0,-1
EndSplineSet
EndChar

StartChar: angle
Encoding: 8736 8736 103
Width: 110
GlyphClass: 1
Flags: W
LayerCount: 2
Fore
SplineSet
0 0 m 1,0,-1
 0 20 l 1,1,-1
 10 20 l 1,2,-1
 10 30 l 1,3,-1
 20 30 l 1,4,-1
 20 40 l 1,5,-1
 30 40 l 1,6,-1
 30 50 l 1,7,-1
 40 50 l 1,8,-1
 40 60 l 1,9,-1
 50 60 l 1,10,-1
 50 70 l 1,11,-1
 60 70 l 1,12,-1
 60 80 l 1,13,-1
 70 80 l 1,14,-1
 70 90 l 1,15,-1
 80 90 l 1,16,-1
 80 100 l 1,17,-1
 90 100 l 1,18,-1
 90 90 l 1,19,-1
 100 90 l 1,20,-1
 100 80 l 1,21,-1
 90 80 l 1,22,-1
 90 70 l 1,23,-1
 80 70 l 1,24,-1
 80 60 l 1,25,-1
 70 60 l 1,26,-1
 70 50 l 1,27,-1
 60 50 l 1,28,-1
 60 40 l 1,29,-1
 50 40 l 1,30,-1
 50 30 l 1,31,-1
 40 30 l 1,32,-1
 40 20 l 1,33,-1
 100 20 l 1,34,-1
 100 0 l 1,35,-1
 0 0 l 1,0,-1
EndSplineSet
EndChar

StartChar: x.itc.superior
Encoding: 57363 57363 104
Width: 110
GlyphClass: 1
Flags: W
LayerCount: 2
Fore
SplineSet
80 100 m 1,0,-1
 60 100 l 1,1,-1
 60 110 l 1,2,-1
 80 110 l 1,3,-1
 80 100 l 1,0,-1
10 50 m 1,4,-1
 10 60 l 1,5,-1
 20 60 l 1,6,-1
 20 70 l 1,7,-1
 30 70 l 1,8,-1
 30 80 l 1,9,-1
 40 80 l 1,10,-1
 40 90 l 1,11,-1
 30 90 l 1,12,-1
 30 100 l 1,13,-1
 20 100 l 1,14,-1
 20 90 l 1,15,-1
 10 90 l 1,16,-1
 10 100 l 1,17,-1
 20 100 l 1,18,-1
 20 110 l 1,19,-1
 50 110 l 1,20,-1
 50 100 l 1,21,-1
 60 100 l 1,22,-1
 60 90 l 1,23,-1
 50 90 l 1,24,-1
 50 70 l 1,25,-1
 60 70 l 1,26,-1
 60 60 l 1,27,-1
 70 60 l 1,28,-1
 70 50 l 1,29,-1
 40 50 l 1,30,-1
 40 60 l 1,31,-1
 30 60 l 1,32,-1
 30 50 l 1,33,-1
 10 50 l 1,4,-1
80 60 m 1,34,-1
 70 60 l 1,35,-1
 70 70 l 1,36,-1
 80 70 l 1,37,-1
 80 60 l 1,34,-1
EndSplineSet
EndChar

StartChar: dollar
Encoding: 36 36 105
Width: 110
GlyphClass: 1
Flags: W
LayerCount: 2
Fore
SplineSet
10 70 m 1,0,-1
 10 100 l 1,1,-1
 20 100 l 1,2,-1
 20 110 l 1,3,-1
 50 110 l 1,4,-1
 50 120 l 1,5,-1
 60 120 l 1,6,-1
 60 110 l 1,7,-1
 80 110 l 1,8,-1
 80 100 l 1,9,-1
 90 100 l 1,10,-1
 90 110 l 1,11,-1
 100 110 l 1,12,-1
 100 70 l 1,13,-1
 90 70 l 1,14,-1
 90 80 l 1,15,-1
 80 80 l 1,16,-1
 80 90 l 1,17,-1
 70 90 l 1,18,-1
 70 100 l 1,19,-1
 60 100 l 1,20,-1
 60 70 l 1,21,-1
 70 70 l 1,22,-1
 70 60 l 1,23,-1
 90 60 l 1,24,-1
 90 50 l 1,25,-1
 100 50 l 1,26,-1
 100 20 l 1,27,-1
 90 20 l 1,28,-1
 90 10 l 1,29,-1
 60 10 l 1,30,-1
 60 0 l 1,31,-1
 50 0 l 1,32,-1
 50 10 l 1,33,-1
 30 10 l 1,34,-1
 30 20 l 1,35,-1
 20 20 l 1,36,-1
 20 10 l 1,37,-1
 10 10 l 1,38,-1
 10 50 l 1,39,-1
 20 50 l 1,40,-1
 20 40 l 1,41,-1
 30 40 l 1,42,-1
 30 30 l 1,43,-1
 40 30 l 1,44,-1
 40 20 l 1,45,-1
 50 20 l 1,46,-1
 50 50 l 1,47,-1
 40 50 l 1,48,-1
 40 60 l 1,49,-1
 20 60 l 1,50,-1
 20 70 l 1,51,-1
 10 70 l 1,0,-1
40 80 m 1,52,-1
 40 70 l 1,53,-1
 50 70 l 1,54,-1
 50 100 l 1,55,-1
 40 100 l 1,56,-1
 40 90 l 1,57,-1
 30 90 l 1,58,-1
 30 80 l 1,59,-1
 40 80 l 1,52,-1
60 20 m 1,60,-1
 70 20 l 1,61,-1
 70 30 l 1,62,-1
 80 30 l 1,63,-1
 80 40 l 1,64,-1
 70 40 l 1,65,-1
 70 50 l 1,66,-1
 60 50 l 1,67,-1
 60 20 l 1,60,-1
EndSplineSet
EndChar

StartChar: mubolditalic
Encoding: 120641 120641 106
Width: 110
GlyphClass: 1
Flags: W
LayerCount: 2
Fore
SplineSet
50 -10 m 1,0,-1
 0 -10 l 1,1,-1
 0 0 l 1,2,-1
 10 0 l 1,3,-1
 10 30 l 1,4,-1
 20 30 l 1,5,-1
 20 60 l 1,6,-1
 30 60 l 1,7,-1
 30 80 l 1,8,-1
 20 80 l 1,9,-1
 20 90 l 1,10,-1
 60 90 l 1,11,-1
 60 60 l 1,12,-1
 70 60 l 1,13,-1
 70 90 l 1,14,-1
 100 90 l 1,15,-1
 100 60 l 1,16,-1
 90 60 l 1,17,-1
 90 30 l 1,18,-1
 100 30 l 1,19,-1
 100 20 l 1,20,-1
 70 20 l 1,21,-1
 70 30 l 1,22,-1
 60 30 l 1,23,-1
 60 20 l 1,24,-1
 40 20 l 1,25,-1
 40 0 l 1,26,-1
 50 0 l 1,27,-1
 50 -10 l 1,0,-1
60 60 m 1,28,-1
 50 60 l 1,29,-1
 50 30 l 1,30,-1
 60 30 l 1,31,-1
 60 60 l 1,28,-1
EndSplineSet
EndChar

StartChar: v
Encoding: 118 118 107
Width: 110
GlyphClass: 1
Flags: W
LayerCount: 2
Fore
SplineSet
80 40 m 1,0,-1
 70 40 l 1,1,-1
 70 60 l 1,2,-1
 80 60 l 1,3,-1
 80 80 l 1,4,-1
 70 80 l 1,5,-1
 70 90 l 1,6,-1
 100 90 l 1,7,-1
 100 80 l 1,8,-1
 90 80 l 1,9,-1
 90 60 l 1,10,-1
 80 60 l 1,11,-1
 80 40 l 1,0,-1
20 80 m 1,12,-1
 10 80 l 1,13,-1
 10 90 l 1,14,-1
 50 90 l 1,15,-1
 50 80 l 1,16,-1
 40 80 l 1,17,-1
 40 60 l 1,18,-1
 50 60 l 1,19,-1
 50 40 l 1,20,-1
 70 40 l 1,21,-1
 70 20 l 1,22,-1
 60 20 l 1,23,-1
 60 0 l 1,24,-1
 50 0 l 1,25,-1
 50 20 l 1,26,-1
 40 20 l 1,27,-1
 40 40 l 1,28,-1
 30 40 l 1,29,-1
 30 60 l 1,30,-1
 20 60 l 1,31,-1
 20 80 l 1,12,-1
EndSplineSet
EndChar

StartChar: ampersand
Encoding: 38 38 108
Width: 110
GlyphClass: 1
Flags: W
LayerCount: 2
Fore
SplineSet
10 10 m 1,0,-1
 0 10 l 1,1,-1
 0 50 l 1,2,-1
 10 50 l 1,3,-1
 10 60 l 1,4,-1
 20 60 l 1,5,-1
 20 70 l 1,6,-1
 10 70 l 1,7,-1
 10 110 l 1,8,-1
 20 110 l 1,9,-1
 20 120 l 1,10,-1
 60 120 l 1,11,-1
 60 110 l 1,12,-1
 70 110 l 1,13,-1
 70 80 l 1,14,-1
 60 80 l 1,15,-1
 60 70 l 1,16,-1
 100 70 l 1,17,-1
 100 60 l 1,18,-1
 90 60 l 1,19,-1
 90 40 l 1,20,-1
 80 40 l 1,21,-1
 80 30 l 1,22,-1
 70 30 l 1,23,-1
 70 20 l 1,24,-1
 80 20 l 1,25,-1
 80 10 l 1,26,-1
 90 10 l 1,27,-1
 90 0 l 1,28,-1
 70 0 l 1,29,-1
 70 10 l 1,30,-1
 50 10 l 1,31,-1
 50 0 l 1,32,-1
 10 0 l 1,33,-1
 10 10 l 1,0,-1
30 110 m 1,34,-1
 30 70 l 1,35,-1
 40 70 l 1,36,-1
 40 80 l 1,37,-1
 50 80 l 1,38,-1
 50 110 l 1,39,-1
 30 110 l 1,34,-1
50 60 m 1,40,-1
 40 60 l 1,41,-1
 40 50 l 1,42,-1
 50 50 l 1,43,-1
 50 40 l 1,44,-1
 70 40 l 1,45,-1
 70 60 l 1,46,-1
 60 60 l 1,47,-1
 60 70 l 1,48,-1
 50 70 l 1,49,-1
 50 60 l 1,40,-1
40 10 m 1,50,-1
 40 20 l 1,51,-1
 50 20 l 1,52,-1
 50 30 l 1,53,-1
 40 30 l 1,54,-1
 40 40 l 1,55,-1
 30 40 l 1,56,-1
 30 50 l 1,57,-1
 20 50 l 1,58,-1
 20 10 l 1,59,-1
 40 10 l 1,50,-1
100 10 m 1,60,-1
 90 10 l 1,61,-1
 90 20 l 1,62,-1
 100 20 l 1,63,-1
 100 10 l 1,60,-1
EndSplineSet
EndChar

StartChar: H
Encoding: 72 72 109
Width: 110
GlyphClass: 1
Flags: W
LayerCount: 2
Fore
SplineSet
10 110 m 1,0,-1
 0 110 l 1,1,-1
 0 120 l 1,2,-1
 40 120 l 1,3,-1
 40 110 l 1,4,-1
 30 110 l 1,5,-1
 30 70 l 1,6,-1
 70 70 l 1,7,-1
 70 110 l 1,8,-1
 60 110 l 1,9,-1
 60 120 l 1,10,-1
 100 120 l 1,11,-1
 100 110 l 1,12,-1
 90 110 l 1,13,-1
 90 10 l 1,14,-1
 100 10 l 1,15,-1
 100 0 l 1,16,-1
 60 0 l 1,17,-1
 60 10 l 1,18,-1
 70 10 l 1,19,-1
 70 60 l 1,20,-1
 30 60 l 1,21,-1
 30 10 l 1,22,-1
 40 10 l 1,23,-1
 40 0 l 1,24,-1
 0 0 l 1,25,-1
 0 10 l 1,26,-1
 10 10 l 1,27,-1
 10 110 l 1,0,-1
EndSplineSet
EndChar

StartChar: L
Encoding: 76 76 110
Width: 110
GlyphClass: 1
Flags: W
LayerCount: 2
Fore
SplineSet
0 110 m 1,0,-1
 0 120 l 1,1,-1
 40 120 l 1,2,-1
 40 110 l 1,3,-1
 30 110 l 1,4,-1
 30 10 l 1,5,-1
 80 10 l 1,6,-1
 80 20 l 1,7,-1
 90 20 l 1,8,-1
 90 40 l 1,9,-1
 100 40 l 1,10,-1
 100 0 l 1,11,-1
 0 0 l 1,12,-1
 0 10 l 1,13,-1
 10 10 l 1,14,-1
 10 110 l 1,15,-1
 0 110 l 1,0,-1
EndSplineSet
EndChar

StartChar: w
Encoding: 119 119 111
Width: 110
GlyphClass: 1
Flags: W
LayerCount: 2
Fore
SplineSet
0 80 m 1,0,-1
 0 90 l 1,1,-1
 40 90 l 1,2,-1
 40 80 l 1,3,-1
 30 80 l 1,4,-1
 30 40 l 1,5,-1
 40 40 l 1,6,-1
 40 60 l 1,7,-1
 50 60 l 1,8,-1
 50 90 l 1,9,-1
 70 90 l 1,10,-1
 70 40 l 1,11,-1
 80 40 l 1,12,-1
 80 60 l 1,13,-1
 90 60 l 1,14,-1
 90 80 l 1,15,-1
 80 80 l 1,16,-1
 80 90 l 1,17,-1
 100 90 l 1,18,-1
 100 50 l 1,19,-1
 90 50 l 1,20,-1
 90 20 l 1,21,-1
 80 20 l 1,22,-1
 80 0 l 1,23,-1
 70 0 l 1,24,-1
 70 20 l 1,25,-1
 60 20 l 1,26,-1
 60 50 l 1,27,-1
 50 50 l 1,28,-1
 50 20 l 1,29,-1
 40 20 l 1,30,-1
 40 0 l 1,31,-1
 30 0 l 1,32,-1
 30 20 l 1,33,-1
 20 20 l 1,34,-1
 20 60 l 1,35,-1
 10 60 l 1,36,-1
 10 80 l 1,37,-1
 0 80 l 1,0,-1
EndSplineSet
EndChar

StartChar: G
Encoding: 71 71 112
Width: 110
GlyphClass: 1
Flags: W
LayerCount: 2
Fore
SplineSet
0 80 m 1,0,-1
 10 80 l 1,1,-1
 10 100 l 1,2,-1
 20 100 l 1,3,-1
 20 110 l 1,4,-1
 30 110 l 1,5,-1
 30 120 l 1,6,-1
 80 120 l 1,7,-1
 80 110 l 1,8,-1
 90 110 l 1,9,-1
 90 120 l 1,10,-1
 100 120 l 1,11,-1
 100 80 l 1,12,-1
 90 80 l 1,13,-1
 90 90 l 1,14,-1
 80 90 l 1,15,-1
 80 100 l 1,16,-1
 70 100 l 1,17,-1
 70 110 l 1,18,-1
 40 110 l 1,19,-1
 40 100 l 1,20,-1
 30 100 l 1,21,-1
 30 80 l 1,22,-1
 20 80 l 1,23,-1
 20 40 l 1,24,-1
 30 40 l 1,25,-1
 30 20 l 1,26,-1
 40 20 l 1,27,-1
 40 10 l 1,28,-1
 70 10 l 1,29,-1
 70 0 l 1,30,-1
 30 0 l 1,31,-1
 30 10 l 1,32,-1
 20 10 l 1,33,-1
 20 20 l 1,34,-1
 10 20 l 1,35,-1
 10 40 l 1,36,-1
 0 40 l 1,37,-1
 0 80 l 1,0,-1
80 20 m 1,38,-1
 80 10 l 1,39,-1
 70 10 l 1,40,-1
 70 20 l 1,41,-1
 80 20 l 1,42,-1
 80 50 l 1,43,-1
 60 50 l 1,44,-1
 60 60 l 1,45,-1
 100 60 l 1,46,-1
 100 0 l 1,47,-1
 90 0 l 1,48,-1
 90 20 l 1,49,-1
 80 20 l 1,38,-1
EndSplineSet
EndChar

StartChar: K
Encoding: 75 75 113
Width: 110
GlyphClass: 1
Flags: W
LayerCount: 2
Fore
SplineSet
10 110 m 1,0,-1
 0 110 l 1,1,-1
 0 120 l 1,2,-1
 40 120 l 1,3,-1
 40 110 l 1,4,-1
 30 110 l 1,5,-1
 30 60 l 1,6,-1
 40 60 l 1,7,-1
 40 70 l 1,8,-1
 50 70 l 1,9,-1
 50 80 l 1,10,-1
 60 80 l 1,11,-1
 60 90 l 1,12,-1
 70 90 l 1,13,-1
 70 100 l 1,14,-1
 80 100 l 1,15,-1
 80 110 l 1,16,-1
 70 110 l 1,17,-1
 70 120 l 1,18,-1
 100 120 l 1,19,-1
 100 110 l 1,20,-1
 90 110 l 1,21,-1
 90 100 l 1,22,-1
 80 100 l 1,23,-1
 80 90 l 1,24,-1
 70 90 l 1,25,-1
 70 80 l 1,26,-1
 60 80 l 1,27,-1
 60 60 l 1,28,-1
 70 60 l 1,29,-1
 70 40 l 1,30,-1
 80 40 l 1,31,-1
 80 30 l 1,32,-1
 90 30 l 1,33,-1
 90 10 l 1,34,-1
 100 10 l 1,35,-1
 100 0 l 1,36,-1
 60 0 l 1,37,-1
 60 10 l 1,38,-1
 70 10 l 1,39,-1
 70 20 l 1,40,-1
 60 20 l 1,41,-1
 60 40 l 1,42,-1
 50 40 l 1,43,-1
 50 50 l 1,44,-1
 30 50 l 1,45,-1
 30 10 l 1,46,-1
 40 10 l 1,47,-1
 40 0 l 1,48,-1
 0 0 l 1,49,-1
 0 10 l 1,50,-1
 10 10 l 1,51,-1
 10 110 l 1,0,-1
EndSplineSet
EndChar

StartChar: Z
Encoding: 90 90 114
Width: 110
GlyphClass: 1
Flags: W
LayerCount: 2
Fore
SplineSet
90 30 m 1,0,-1
 100 30 l 1,1,-1
 100 0 l 1,2,-1
 0 0 l 1,3,-1
 0 10 l 1,4,-1
 10 10 l 1,5,-1
 10 20 l 1,6,-1
 20 20 l 1,7,-1
 20 40 l 1,8,-1
 30 40 l 1,9,-1
 30 50 l 1,10,-1
 40 50 l 1,11,-1
 40 70 l 1,12,-1
 50 70 l 1,13,-1
 50 80 l 1,14,-1
 60 80 l 1,15,-1
 60 100 l 1,16,-1
 70 100 l 1,17,-1
 70 110 l 1,18,-1
 20 110 l 1,19,-1
 20 100 l 1,20,-1
 10 100 l 1,21,-1
 10 90 l 1,22,-1
 0 90 l 1,23,-1
 0 120 l 1,24,-1
 100 120 l 1,25,-1
 100 110 l 1,26,-1
 90 110 l 1,27,-1
 90 100 l 1,28,-1
 80 100 l 1,29,-1
 80 80 l 1,30,-1
 70 80 l 1,31,-1
 70 70 l 1,32,-1
 60 70 l 1,33,-1
 60 50 l 1,34,-1
 50 50 l 1,35,-1
 50 40 l 1,36,-1
 40 40 l 1,37,-1
 40 20 l 1,38,-1
 30 20 l 1,39,-1
 30 10 l 1,40,-1
 80 10 l 1,41,-1
 80 20 l 1,42,-1
 90 20 l 1,43,-1
 90 30 l 1,0,-1
EndSplineSet
EndChar

StartChar: Jsmall
Encoding: 7434 7434 115
Width: 110
GlyphClass: 1
Flags: W
LayerCount: 2
Fore
SplineSet
30 20 m 1,0,-1
 30 0 l 1,1,-1
 50 0 l 1,2,-1
 50 50 l 1,3,-1
 40 50 l 1,4,-1
 40 60 l 1,5,-1
 80 60 l 1,6,-1
 80 50 l 1,7,-1
 70 50 l 1,8,-1
 70 0 l 1,9,-1
 60 0 l 1,10,-1
 60 -10 l 1,11,-1
 20 -10 l 1,12,-1
 20 0 l 1,13,-1
 10 0 l 1,14,-1
 10 20 l 1,15,-1
 30 20 l 1,0,-1
EndSplineSet
EndChar

StartChar: zero.inferior
Encoding: 8320 8320 116
Width: 110
GlyphClass: 1
Flags: W
LayerCount: 2
Fore
SplineSet
10 50 m 1,0,-1
 20 50 l 1,1,-1
 20 60 l 1,2,-1
 70 60 l 1,3,-1
 70 50 l 1,4,-1
 80 50 l 1,5,-1
 80 0 l 1,6,-1
 70 0 l 1,7,-1
 70 -10 l 1,8,-1
 20 -10 l 1,9,-1
 20 0 l 1,10,-1
 10 0 l 1,11,-1
 10 50 l 1,0,-1
30 0 m 1,12,-1
 60 0 l 1,13,-1
 60 50 l 1,14,-1
 30 50 l 1,15,-1
 30 0 l 1,12,-1
EndSplineSet
EndChar

StartChar: pinferior
Encoding: 8346 8346 117
Width: 110
GlyphClass: 1
Flags: W
LayerCount: 2
Fore
SplineSet
10 -10 m 1,0,-1
 10 0 l 1,1,-1
 20 0 l 1,2,-1
 20 40 l 1,3,-1
 10 40 l 1,4,-1
 10 50 l 1,5,-1
 40 50 l 1,6,-1
 40 40 l 1,7,-1
 50 40 l 1,8,-1
 50 30 l 1,9,-1
 40 30 l 1,10,-1
 40 20 l 1,11,-1
 60 20 l 1,12,-1
 60 40 l 1,13,-1
 50 40 l 1,14,-1
 50 50 l 1,15,-1
 70 50 l 1,16,-1
 70 40 l 1,17,-1
 80 40 l 1,18,-1
 80 20 l 1,19,-1
 70 20 l 1,20,-1
 70 10 l 1,21,-1
 40 10 l 1,22,-1
 40 0 l 1,23,-1
 50 0 l 1,24,-1
 50 -10 l 1,25,-1
 10 -10 l 1,0,-1
EndSplineSet
EndChar

StartChar: ninferior
Encoding: 8345 8345 118
Width: 110
GlyphClass: 1
Flags: W
LayerCount: 2
Fore
SplineSet
40 -10 m 1,0,-1
 10 -10 l 1,1,-1
 10 0 l 1,2,-1
 20 0 l 1,3,-1
 20 40 l 1,4,-1
 10 40 l 1,5,-1
 10 50 l 1,6,-1
 40 50 l 1,7,-1
 40 40 l 1,8,-1
 50 40 l 1,9,-1
 50 50 l 1,10,-1
 70 50 l 1,11,-1
 70 40 l 1,12,-1
 80 40 l 1,13,-1
 80 0 l 1,14,-1
 90 0 l 1,15,-1
 90 -10 l 1,16,-1
 50 -10 l 1,17,-1
 50 0 l 1,18,-1
 60 0 l 1,19,-1
 60 40 l 1,20,-1
 50 40 l 1,21,-1
 50 30 l 1,22,-1
 40 30 l 1,23,-1
 40 -10 l 1,0,-1
EndSplineSet
EndChar

StartChar: einferior
Encoding: 8337 8337 119
Width: 110
GlyphClass: 1
Flags: W
LayerCount: 2
Fore
SplineSet
10 0 m 1,0,-1
 10 30 l 1,1,-1
 20 30 l 1,2,-1
 20 40 l 1,3,-1
 60 40 l 1,4,-1
 60 30 l 1,5,-1
 70 30 l 1,6,-1
 70 10 l 1,7,-1
 30 10 l 1,8,-1
 30 0 l 1,9,-1
 70 0 l 1,10,-1
 70 -10 l 1,11,-1
 20 -10 l 1,12,-1
 20 0 l 1,13,-1
 10 0 l 1,0,-1
30 20 m 1,14,-1
 50 20 l 1,15,-1
 50 30 l 1,16,-1
 30 30 l 1,17,-1
 30 20 l 1,14,-1
EndSplineSet
EndChar

StartChar: minus.inferior
Encoding: 8331 8331 120
Width: 110
GlyphClass: 1
Flags: W
LayerCount: 2
Fore
SplineSet
20 20 m 1,0,-1
 20 30 l 1,1,-1
 70 30 l 1,2,-1
 70 20 l 1,3,-1
 20 20 l 1,0,-1
EndSplineSet
EndChar

StartChar: nine.inferior
Encoding: 8329 8329 121
Width: 110
GlyphClass: 1
Flags: W
LayerCount: 2
Fore
SplineSet
30 10 m 1,0,-1
 30 0 l 1,1,-1
 60 0 l 1,2,-1
 60 20 l 1,3,-1
 20 20 l 1,4,-1
 20 30 l 1,5,-1
 10 30 l 1,6,-1
 10 50 l 1,7,-1
 20 50 l 1,8,-1
 20 60 l 1,9,-1
 70 60 l 1,10,-1
 70 50 l 1,11,-1
 80 50 l 1,12,-1
 80 0 l 1,13,-1
 70 0 l 1,14,-1
 70 -10 l 1,15,-1
 20 -10 l 1,16,-1
 20 0 l 1,17,-1
 10 0 l 1,18,-1
 10 10 l 1,19,-1
 30 10 l 1,0,-1
60 30 m 1,20,-1
 60 50 l 1,21,-1
 30 50 l 1,22,-1
 30 30 l 1,23,-1
 60 30 l 1,20,-1
EndSplineSet
EndChar

StartChar: Csmall
Encoding: 7428 7428 122
Width: 110
GlyphClass: 1
Flags: W
LayerCount: 2
Fore
SplineSet
30 -10 m 1,0,-1
 30 0 l 1,1,-1
 20 0 l 1,2,-1
 20 10 l 1,3,-1
 10 10 l 1,4,-1
 10 40 l 1,5,-1
 20 40 l 1,6,-1
 20 50 l 1,7,-1
 30 50 l 1,8,-1
 30 60 l 1,9,-1
 60 60 l 1,10,-1
 60 50 l 1,11,-1
 70 50 l 1,12,-1
 70 60 l 1,13,-1
 80 60 l 1,14,-1
 80 40 l 1,15,-1
 60 40 l 1,16,-1
 60 50 l 1,17,-1
 40 50 l 1,18,-1
 40 40 l 1,19,-1
 30 40 l 1,20,-1
 30 10 l 1,21,-1
 40 10 l 1,22,-1
 40 0 l 1,23,-1
 70 0 l 1,24,-1
 70 -10 l 1,25,-1
 30 -10 l 1,0,-1
80 0 m 1,26,-1
 70 0 l 1,27,-1
 70 10 l 1,28,-1
 80 10 l 1,29,-1
 80 0 l 1,26,-1
EndSplineSet
EndChar

StartChar: Ksmall
Encoding: 7435 7435 123
Width: 110
GlyphClass: 1
Flags: W
LayerCount: 2
Fore
SplineSet
10 -10 m 1,0,-1
 10 0 l 1,1,-1
 20 0 l 1,2,-1
 20 50 l 1,3,-1
 10 50 l 1,4,-1
 10 60 l 1,5,-1
 50 60 l 1,6,-1
 50 50 l 1,7,-1
 40 50 l 1,8,-1
 40 30 l 1,9,-1
 50 30 l 1,10,-1
 50 40 l 1,11,-1
 60 40 l 1,12,-1
 60 60 l 1,13,-1
 90 60 l 1,14,-1
 90 50 l 1,15,-1
 80 50 l 1,16,-1
 80 40 l 1,17,-1
 70 40 l 1,18,-1
 70 30 l 1,19,-1
 60 30 l 1,20,-1
 60 20 l 1,21,-1
 70 20 l 1,22,-1
 70 10 l 1,23,-1
 80 10 l 1,24,-1
 80 0 l 1,25,-1
 90 0 l 1,26,-1
 90 -10 l 1,27,-1
 60 -10 l 1,28,-1
 60 10 l 1,29,-1
 50 10 l 1,30,-1
 50 20 l 1,31,-1
 40 20 l 1,32,-1
 40 0 l 1,33,-1
 50 0 l 1,34,-1
 50 -10 l 1,35,-1
 10 -10 l 1,0,-1
EndSplineSet
EndChar

StartChar: twosuperior
Encoding: 178 178 124
Width: 110
GlyphClass: 1
Flags: W
LayerCount: 2
Fore
SplineSet
10 100 m 1,0,-1
 10 110 l 1,1,-1
 20 110 l 1,2,-1
 20 120 l 1,3,-1
 70 120 l 1,4,-1
 70 110 l 1,5,-1
 80 110 l 1,6,-1
 80 90 l 1,7,-1
 70 90 l 1,8,-1
 70 80 l 1,9,-1
 40 80 l 1,10,-1
 40 70 l 1,11,-1
 30 70 l 1,12,-1
 30 60 l 1,13,-1
 70 60 l 1,14,-1
 70 70 l 1,15,-1
 80 70 l 1,16,-1
 80 50 l 1,17,-1
 10 50 l 1,18,-1
 10 70 l 1,19,-1
 20 70 l 1,20,-1
 20 80 l 1,21,-1
 30 80 l 1,22,-1
 30 90 l 1,23,-1
 60 90 l 1,24,-1
 60 110 l 1,25,-1
 30 110 l 1,26,-1
 30 100 l 1,27,-1
 10 100 l 1,0,-1
EndSplineSet
EndChar

StartChar: greater
Encoding: 62 62 125
Width: 110
GlyphClass: 1
Flags: W
LayerCount: 2
Fore
SplineSet
20 0 m 1,0,-1
 20 20 l 1,1,-1
 30 20 l 1,2,-1
 30 30 l 1,3,-1
 40 30 l 1,4,-1
 40 40 l 1,5,-1
 50 40 l 1,6,-1
 50 50 l 1,7,-1
 60 50 l 1,8,-1
 60 60 l 1,9,-1
 50 60 l 1,10,-1
 50 70 l 1,11,-1
 40 70 l 1,12,-1
 40 80 l 1,13,-1
 30 80 l 1,14,-1
 30 90 l 1,15,-1
 20 90 l 1,16,-1
 20 110 l 1,17,-1
 40 110 l 1,18,-1
 40 100 l 1,19,-1
 50 100 l 1,20,-1
 50 90 l 1,21,-1
 60 90 l 1,22,-1
 60 80 l 1,23,-1
 70 80 l 1,24,-1
 70 70 l 1,25,-1
 80 70 l 1,26,-1
 80 60 l 1,27,-1
 90 60 l 1,28,-1
 90 50 l 1,29,-1
 80 50 l 1,30,-1
 80 40 l 1,31,-1
 70 40 l 1,32,-1
 70 30 l 1,33,-1
 60 30 l 1,34,-1
 60 20 l 1,35,-1
 50 20 l 1,36,-1
 50 10 l 1,37,-1
 40 10 l 1,38,-1
 40 0 l 1,39,-1
 20 0 l 1,0,-1
EndSplineSet
EndChar

StartChar: less
Encoding: 60 60 126
Width: 110
GlyphClass: 1
Flags: W
LayerCount: 2
Fore
SplineSet
80 0 m 1,0,-1
 60 0 l 1,1,-1
 60 10 l 1,2,-1
 50 10 l 1,3,-1
 50 20 l 1,4,-1
 40 20 l 1,5,-1
 40 30 l 1,6,-1
 30 30 l 1,7,-1
 30 40 l 1,8,-1
 20 40 l 1,9,-1
 20 50 l 1,10,-1
 10 50 l 1,11,-1
 10 60 l 1,12,-1
 20 60 l 1,13,-1
 20 70 l 1,14,-1
 30 70 l 1,15,-1
 30 80 l 1,16,-1
 40 80 l 1,17,-1
 40 90 l 1,18,-1
 50 90 l 1,19,-1
 50 100 l 1,20,-1
 60 100 l 1,21,-1
 60 110 l 1,22,-1
 80 110 l 1,23,-1
 80 90 l 1,24,-1
 70 90 l 1,25,-1
 70 80 l 1,26,-1
 60 80 l 1,27,-1
 60 70 l 1,28,-1
 50 70 l 1,29,-1
 50 60 l 1,30,-1
 40 60 l 1,31,-1
 40 50 l 1,32,-1
 50 50 l 1,33,-1
 50 40 l 1,34,-1
 60 40 l 1,35,-1
 60 30 l 1,36,-1
 70 30 l 1,37,-1
 70 20 l 1,38,-1
 80 20 l 1,39,-1
 80 0 l 1,0,-1
EndSplineSet
EndChar

StartChar: equal
Encoding: 61 61 127
Width: 110
GlyphClass: 1
Flags: W
LayerCount: 2
Fore
SplineSet
0 90 m 1,0,-1
 100 90 l 1,1,-1
 100 70 l 1,2,-1
 0 70 l 1,3,-1
 0 90 l 1,0,-1
0 50 m 1,4,-1
 100 50 l 1,5,-1
 100 30 l 1,6,-1
 0 30 l 1,7,-1
 0 50 l 1,4,-1
EndSplineSet
EndChar

StartChar: infty.inferior
Encoding: 57367 57367 128
Width: 110
GlyphClass: 1
Flags: W
LayerCount: 2
Fore
SplineSet
0 10 m 1,0,-1
 0 40 l 1,1,-1
 10 40 l 1,2,-1
 10 50 l 1,3,-1
 20 50 l 1,4,-1
 20 60 l 1,5,-1
 40 60 l 1,6,-1
 40 50 l 1,7,-1
 60 50 l 1,8,-1
 60 60 l 1,9,-1
 80 60 l 1,10,-1
 80 50 l 1,11,-1
 90 50 l 1,12,-1
 90 40 l 1,13,-1
 100 40 l 1,14,-1
 100 10 l 1,15,-1
 90 10 l 1,16,-1
 90 0 l 1,17,-1
 80 0 l 1,18,-1
 80 -10 l 1,19,-1
 60 -10 l 1,20,-1
 60 0 l 1,21,-1
 40 0 l 1,22,-1
 40 -10 l 1,23,-1
 20 -10 l 1,24,-1
 20 0 l 1,25,-1
 10 0 l 1,26,-1
 10 10 l 1,27,-1
 0 10 l 1,0,-1
70 30 m 1,28,-1
 60 30 l 1,29,-1
 60 10 l 1,30,-1
 80 10 l 1,31,-1
 80 20 l 1,32,-1
 90 20 l 1,33,-1
 90 30 l 1,34,-1
 80 30 l 1,35,-1
 80 40 l 1,36,-1
 70 40 l 1,37,-1
 70 30 l 1,28,-1
10 20 m 1,38,-1
 20 20 l 1,39,-1
 20 10 l 1,40,-1
 30 10 l 1,41,-1
 30 20 l 1,42,-1
 40 20 l 1,43,-1
 40 40 l 1,44,-1
 20 40 l 1,45,-1
 20 30 l 1,46,-1
 10 30 l 1,47,-1
 10 20 l 1,38,-1
EndSplineSet
EndChar

StartChar: plancktwopi
Encoding: 8463 8463 129
Width: 110
GlyphClass: 1
Flags: W
LayerCount: 2
Fore
SplineSet
30 70 m 1,0,-1
 40 70 l 1,1,-1
 40 80 l 1,2,-1
 70 80 l 1,3,-1
 70 70 l 1,4,-1
 80 70 l 1,5,-1
 80 60 l 1,6,-1
 90 60 l 1,7,-1
 90 10 l 1,8,-1
 100 10 l 1,9,-1
 100 0 l 1,10,-1
 60 0 l 1,11,-1
 60 10 l 1,12,-1
 70 10 l 1,13,-1
 70 60 l 1,14,-1
 60 60 l 1,15,-1
 60 70 l 1,16,-1
 40 70 l 1,17,-1
 40 60 l 1,18,-1
 30 60 l 1,19,-1
 30 10 l 1,20,-1
 40 10 l 1,21,-1
 40 0 l 1,22,-1
 0 0 l 1,23,-1
 0 10 l 1,24,-1
 10 10 l 1,25,-1
 10 80 l 1,26,-1
 0 80 l 1,27,-1
 0 90 l 1,28,-1
 10 90 l 1,29,-1
 10 110 l 1,30,-1
 0 110 l 1,31,-1
 0 120 l 1,32,-1
 30 120 l 1,33,-1
 30 100 l 1,34,-1
 50 100 l 1,35,-1
 50 90 l 1,36,-1
 30 90 l 1,37,-1
 30 70 l 1,0,-1
70 100 m 1,38,-1
 50 100 l 1,39,-1
 50 110 l 1,40,-1
 70 110 l 1,41,-1
 70 100 l 1,38,-1
EndSplineSet
EndChar

StartChar: bracketleft
Encoding: 91 91 130
Width: 110
GlyphClass: 1
Flags: W
LayerCount: 2
Fore
SplineSet
30 0 m 1,0,-1
 30 120 l 1,1,-1
 80 120 l 1,2,-1
 80 110 l 1,3,-1
 50 110 l 1,4,-1
 50 10 l 1,5,-1
 80 10 l 1,6,-1
 80 0 l 1,7,-1
 30 0 l 1,0,-1
EndSplineSet
EndChar

StartChar: bracketright
Encoding: 93 93 131
Width: 110
GlyphClass: 1
Flags: W
LayerCount: 2
Fore
SplineSet
30 120 m 1,0,-1
 80 120 l 1,1,-1
 80 0 l 1,2,-1
 30 0 l 1,3,-1
 30 10 l 1,4,-1
 60 10 l 1,5,-1
 60 110 l 1,6,-1
 30 110 l 1,7,-1
 30 120 l 1,0,-1
EndSplineSet
EndChar

StartChar: zero
Encoding: 48 48 132
Width: 110
GlyphClass: 1
Flags: W
LayerCount: 2
Fore
SplineSet
10 90 m 1,0,-1
 20 90 l 1,1,-1
 20 110 l 1,2,-1
 30 110 l 1,3,-1
 30 120 l 1,4,-1
 80 120 l 1,5,-1
 80 110 l 1,6,-1
 90 110 l 1,7,-1
 90 90 l 1,8,-1
 100 90 l 1,9,-1
 100 30 l 1,10,-1
 90 30 l 1,11,-1
 90 10 l 1,12,-1
 80 10 l 1,13,-1
 80 0 l 1,14,-1
 30 0 l 1,15,-1
 30 10 l 1,16,-1
 20 10 l 1,17,-1
 20 30 l 1,18,-1
 10 30 l 1,19,-1
 10 90 l 1,0,-1
40 20 m 1,20,-1
 40 10 l 1,21,-1
 70 10 l 1,22,-1
 70 20 l 1,23,-1
 80 20 l 1,24,-1
 80 100 l 1,25,-1
 70 100 l 1,26,-1
 70 110 l 1,27,-1
 40 110 l 1,28,-1
 40 100 l 1,29,-1
 30 100 l 1,30,-1
 30 20 l 1,31,-1
 40 20 l 1,20,-1
EndSplineSet
EndChar

StartChar: period
Encoding: 46 46 133
Width: 110
GlyphClass: 1
Flags: W
LayerCount: 2
Fore
SplineSet
20 0 m 1,0,-1
 20 30 l 1,1,-1
 50 30 l 1,2,-1
 50 0 l 1,3,-1
 20 0 l 1,0,-1
EndSplineSet
EndChar

StartChar: comma
Encoding: 44 44 134
Width: 110
GlyphClass: 1
Flags: W
LayerCount: 2
Fore
SplineSet
20 10 m 1,0,-1
 20 40 l 1,1,-1
 50 40 l 1,2,-1
 50 0 l 1,3,-1
 40 0 l 1,4,-1
 40 -10 l 1,5,-1
 20 -10 l 1,6,-1
 20 0 l 1,7,-1
 30 0 l 1,8,-1
 30 10 l 1,9,-1
 20 10 l 1,0,-1
EndSplineSet
EndChar

StartChar: question
Encoding: 63 63 135
Width: 110
GlyphClass: 1
Flags: W
LayerCount: 2
Fore
SplineSet
10 80 m 1,0,-1
 10 100 l 1,1,-1
 20 100 l 1,2,-1
 20 110 l 1,3,-1
 30 110 l 1,4,-1
 30 120 l 1,5,-1
 70 120 l 1,6,-1
 70 110 l 1,7,-1
 80 110 l 1,8,-1
 80 100 l 1,9,-1
 90 100 l 1,10,-1
 90 80 l 1,11,-1
 80 80 l 1,12,-1
 80 70 l 1,13,-1
 70 70 l 1,14,-1
 70 60 l 1,15,-1
 60 60 l 1,16,-1
 60 40 l 1,17,-1
 40 40 l 1,18,-1
 40 60 l 1,19,-1
 50 60 l 1,20,-1
 50 70 l 1,21,-1
 60 70 l 1,22,-1
 60 80 l 1,23,-1
 70 80 l 1,24,-1
 70 100 l 1,25,-1
 60 100 l 1,26,-1
 60 110 l 1,27,-1
 40 110 l 1,28,-1
 40 100 l 1,29,-1
 30 100 l 1,30,-1
 30 80 l 1,31,-1
 10 80 l 1,0,-1
40 0 m 1,32,-1
 40 20 l 1,33,-1
 60 20 l 1,34,-1
 60 0 l 1,35,-1
 40 0 l 1,32,-1
EndSplineSet
EndChar

StartChar: J
Encoding: 74 74 136
Width: 110
GlyphClass: 1
Flags: W
LayerCount: 2
Fore
SplineSet
10 50 m 1,0,-1
 30 50 l 1,1,-1
 30 20 l 1,2,-1
 40 20 l 1,3,-1
 40 10 l 1,4,-1
 50 10 l 1,5,-1
 50 20 l 1,6,-1
 60 20 l 1,7,-1
 60 110 l 1,8,-1
 40 110 l 1,9,-1
 40 120 l 1,10,-1
 100 120 l 1,11,-1
 100 110 l 1,12,-1
 80 110 l 1,13,-1
 80 20 l 1,14,-1
 70 20 l 1,15,-1
 70 10 l 1,16,-1
 60 10 l 1,17,-1
 60 0 l 1,18,-1
 30 0 l 1,19,-1
 30 10 l 1,20,-1
 20 10 l 1,21,-1
 20 20 l 1,22,-1
 10 20 l 1,23,-1
 10 50 l 1,0,-1
EndSplineSet
EndChar

StartChar: Y
Encoding: 89 89 137
Width: 110
GlyphClass: 1
Flags: W
LayerCount: 2
Fore
SplineSet
10 110 m 1,0,-1
 0 110 l 1,1,-1
 0 120 l 1,2,-1
 40 120 l 1,3,-1
 40 110 l 1,4,-1
 30 110 l 1,5,-1
 30 90 l 1,6,-1
 40 90 l 1,7,-1
 40 70 l 1,8,-1
 50 70 l 1,9,-1
 50 60 l 1,10,-1
 60 60 l 1,11,-1
 60 70 l 1,12,-1
 70 70 l 1,13,-1
 70 90 l 1,14,-1
 80 90 l 1,15,-1
 80 110 l 1,16,-1
 70 110 l 1,17,-1
 70 120 l 1,18,-1
 100 120 l 1,19,-1
 100 110 l 1,20,-1
 90 110 l 1,21,-1
 90 90 l 1,22,-1
 80 90 l 1,23,-1
 80 70 l 1,24,-1
 70 70 l 1,25,-1
 70 50 l 1,26,-1
 60 50 l 1,27,-1
 60 10 l 1,28,-1
 70 10 l 1,29,-1
 70 0 l 1,30,-1
 30 0 l 1,31,-1
 30 10 l 1,32,-1
 40 10 l 1,33,-1
 40 50 l 1,34,-1
 30 50 l 1,35,-1
 30 70 l 1,36,-1
 20 70 l 1,37,-1
 20 90 l 1,38,-1
 10 90 l 1,39,-1
 10 110 l 1,0,-1
EndSplineSet
EndChar

StartChar: semicolon
Encoding: 59 59 138
Width: 110
GlyphClass: 1
Flags: W
LayerCount: 2
Fore
SplineSet
40 70 m 1,0,-1
 40 100 l 1,1,-1
 70 100 l 1,2,-1
 70 70 l 1,3,-1
 40 70 l 1,0,-1
40 10 m 1,4,-1
 40 40 l 1,5,-1
 70 40 l 1,6,-1
 70 0 l 1,7,-1
 60 0 l 1,8,-1
 60 -10 l 1,9,-1
 40 -10 l 1,10,-1
 40 0 l 1,11,-1
 50 0 l 1,12,-1
 50 10 l 1,13,-1
 40 10 l 1,4,-1
EndSplineSet
EndChar

StartChar: quotedbl
Encoding: 34 34 139
Width: 110
GlyphClass: 1
Flags: W
LayerCount: 2
Fore
SplineSet
20 80 m 1,0,-1
 20 120 l 1,1,-1
 40 120 l 1,2,-1
 40 80 l 1,3,-1
 20 80 l 1,0,-1
50 80 m 1,4,-1
 50 120 l 1,5,-1
 70 120 l 1,6,-1
 70 80 l 1,7,-1
 50 80 l 1,4,-1
EndSplineSet
EndChar

StartChar: asterisk
Encoding: 42 42 140
Width: 110
GlyphClass: 1
Flags: W
LayerCount: 2
Fore
SplineSet
40 70 m 1,0,-1
 40 80 l 1,1,-1
 60 80 l 1,2,-1
 60 70 l 1,3,-1
 70 70 l 1,4,-1
 70 50 l 1,5,-1
 60 50 l 1,6,-1
 60 40 l 1,7,-1
 40 40 l 1,8,-1
 40 50 l 1,9,-1
 30 50 l 1,10,-1
 30 70 l 1,11,-1
 40 70 l 1,0,-1
EndSplineSet
EndChar

StartChar: underscore
Encoding: 95 95 141
Width: 110
GlyphClass: 1
Flags: W
LayerCount: 2
Fore
SplineSet
0 10 m 1,0,-1
 100 10 l 1,1,-1
 100 0 l 1,2,-1
 0 0 l 1,3,-1
 0 10 l 1,0,-1
EndSplineSet
Substitution2: "'ss01' Style Set 1 lookup 6 subtable" cursor.replace
Substitution2: "'aalt' Access All Alternates lookup 0 subtable" cursor.replace
EndChar

StartChar: braceleft
Encoding: 123 123 142
Width: 110
GlyphClass: 1
Flags: W
LayerCount: 2
Fore
SplineSet
80 120 m 1,0,-1
 80 110 l 1,1,-1
 60 110 l 1,2,-1
 60 70 l 1,3,-1
 50 70 l 1,4,-1
 50 60 l 1,5,-1
 40 60 l 1,6,-1
 40 50 l 1,7,-1
 50 50 l 1,8,-1
 50 40 l 1,9,-1
 60 40 l 1,10,-1
 60 0 l 1,11,-1
 80 0 l 1,12,-1
 80 -10 l 1,13,-1
 50 -10 l 1,14,-1
 50 0 l 1,15,-1
 40 0 l 1,16,-1
 40 40 l 1,17,-1
 30 40 l 1,18,-1
 30 50 l 1,19,-1
 20 50 l 1,20,-1
 20 60 l 1,21,-1
 30 60 l 1,22,-1
 30 70 l 1,23,-1
 40 70 l 1,24,-1
 40 110 l 1,25,-1
 50 110 l 1,26,-1
 50 120 l 1,27,-1
 80 120 l 1,0,-1
EndSplineSet
EndChar

StartChar: bar
Encoding: 124 124 143
Width: 110
VWidth: 0
GlyphClass: 1
Flags: W
LayerCount: 2
Fore
SplineSet
40 120 m 261,0,-1
 60 120 l 257,1,-1
 60 0 l 257,2,-1
 40 0 l 257,3,-1
 40 120 l 261,0,-1
EndSplineSet
Substitution2: "'ss02' Style Set 2 lookup 9 subtable" bar.ss02
Substitution2: "'aalt' Access All Alternates lookup 0 subtable" bar.ss01
Substitution2: "'ss01' Style Set 1 lookup 6 subtable" bar.ss01
EndChar

StartChar: braceright
Encoding: 125 125 144
Width: 110
GlyphClass: 1
Flags: W
LayerCount: 2
Fore
SplineSet
30 120 m 1,0,-1
 60 120 l 1,1,-1
 60 110 l 1,2,-1
 70 110 l 1,3,-1
 70 70 l 1,4,-1
 80 70 l 1,5,-1
 80 60 l 1,6,-1
 90 60 l 1,7,-1
 90 50 l 1,8,-1
 80 50 l 1,9,-1
 80 40 l 1,10,-1
 70 40 l 1,11,-1
 70 0 l 1,12,-1
 60 0 l 1,13,-1
 60 -10 l 1,14,-1
 30 -10 l 1,15,-1
 30 0 l 1,16,-1
 50 0 l 1,17,-1
 50 40 l 1,18,-1
 60 40 l 1,19,-1
 60 50 l 1,20,-1
 70 50 l 1,21,-1
 70 60 l 1,22,-1
 60 60 l 1,23,-1
 60 70 l 1,24,-1
 50 70 l 1,25,-1
 50 110 l 1,26,-1
 30 110 l 1,27,-1
 30 120 l 1,0,-1
EndSplineSet
EndChar

StartChar: minferior
Encoding: 8344 8344 145
Width: 110
GlyphClass: 1
Flags: W
LayerCount: 2
Fore
SplineSet
0 0 m 1,0,-1
 10 0 l 1,1,-1
 10 30 l 1,2,-1
 0 30 l 1,3,-1
 0 40 l 1,4,-1
 20 40 l 1,5,-1
 20 30 l 1,6,-1
 30 30 l 1,7,-1
 30 40 l 1,8,-1
 50 40 l 1,9,-1
 50 30 l 1,10,-1
 60 30 l 1,11,-1
 60 40 l 1,12,-1
 80 40 l 1,13,-1
 80 30 l 1,14,-1
 90 30 l 1,15,-1
 90 0 l 1,16,-1
 100 0 l 1,17,-1
 100 -10 l 1,18,-1
 70 -10 l 1,19,-1
 70 30 l 1,20,-1
 60 30 l 1,21,-1
 60 -10 l 1,22,-1
 40 -10 l 1,23,-1
 40 30 l 1,24,-1
 30 30 l 1,25,-1
 30 -10 l 1,26,-1
 0 -10 l 1,27,-1
 0 0 l 1,0,-1
EndSplineSet
EndChar

StartChar: Psmall
Encoding: 7448 7448 146
Width: 110
GlyphClass: 1
Flags: W
LayerCount: 2
Fore
SplineSet
10 60 m 1,0,-1
 70 60 l 1,1,-1
 70 50 l 1,2,-1
 80 50 l 1,3,-1
 80 30 l 1,4,-1
 70 30 l 1,5,-1
 70 20 l 1,6,-1
 40 20 l 1,7,-1
 40 0 l 1,8,-1
 50 0 l 1,9,-1
 50 -10 l 1,10,-1
 10 -10 l 1,11,-1
 10 0 l 1,12,-1
 20 0 l 1,13,-1
 20 50 l 1,14,-1
 10 50 l 1,15,-1
 10 60 l 1,0,-1
60 50 m 1,16,-1
 40 50 l 1,17,-1
 40 30 l 1,18,-1
 60 30 l 1,19,-1
 60 50 l 1,16,-1
EndSplineSet
EndChar

StartChar: Nsmall
Encoding: 628 628 147
Width: 110
GlyphClass: 1
Flags: W
LayerCount: 2
Fore
SplineSet
10 -10 m 1,0,-1
 10 0 l 1,1,-1
 20 0 l 1,2,-1
 20 50 l 1,3,-1
 10 50 l 1,4,-1
 10 60 l 1,5,-1
 30 60 l 1,6,-1
 30 50 l 1,7,-1
 40 50 l 1,8,-1
 40 40 l 1,9,-1
 50 40 l 1,10,-1
 50 30 l 1,11,-1
 60 30 l 1,12,-1
 60 50 l 1,13,-1
 50 50 l 1,14,-1
 50 60 l 1,15,-1
 80 60 l 1,16,-1
 80 50 l 1,17,-1
 70 50 l 1,18,-1
 70 -10 l 1,19,-1
 60 -10 l 1,20,-1
 60 0 l 1,21,-1
 50 0 l 1,22,-1
 50 10 l 1,23,-1
 40 10 l 1,24,-1
 40 20 l 1,25,-1
 30 20 l 1,26,-1
 30 0 l 1,27,-1
 40 0 l 1,28,-1
 40 -10 l 1,29,-1
 10 -10 l 1,0,-1
EndSplineSet
EndChar

StartChar: Bsmall
Encoding: 665 665 148
Width: 110
GlyphClass: 1
Flags: W
LayerCount: 2
Fore
SplineSet
10 50 m 1,0,-1
 10 60 l 1,1,-1
 70 60 l 1,2,-1
 70 50 l 1,3,-1
 80 50 l 1,4,-1
 80 30 l 1,5,-1
 70 30 l 1,6,-1
 70 20 l 1,7,-1
 80 20 l 1,8,-1
 80 0 l 1,9,-1
 70 0 l 1,10,-1
 70 -10 l 1,11,-1
 10 -10 l 1,12,-1
 10 0 l 1,13,-1
 20 0 l 1,14,-1
 20 50 l 1,15,-1
 10 50 l 1,0,-1
40 50 m 1,16,-1
 40 30 l 1,17,-1
 60 30 l 1,18,-1
 60 50 l 1,19,-1
 40 50 l 1,16,-1
60 20 m 1,20,-1
 40 20 l 1,21,-1
 40 0 l 1,22,-1
 60 0 l 1,23,-1
 60 20 l 1,20,-1
EndSplineSet
EndChar

StartChar: mu.itc.inferior
Encoding: 57365 57365 149
Width: 110
GlyphClass: 1
Flags: W
LayerCount: 2
Fore
SplineSet
10 10 m 1,0,-1
 20 10 l 1,1,-1
 20 40 l 1,2,-1
 30 40 l 1,3,-1
 30 60 l 1,4,-1
 50 60 l 1,5,-1
 50 40 l 1,6,-1
 40 40 l 1,7,-1
 40 10 l 1,8,-1
 60 10 l 1,9,-1
 60 40 l 1,10,-1
 70 40 l 1,11,-1
 70 60 l 1,12,-1
 90 60 l 1,13,-1
 90 40 l 1,14,-1
 80 40 l 1,15,-1
 80 10 l 1,16,-1
 90 10 l 1,17,-1
 90 0 l 1,18,-1
 70 0 l 1,19,-1
 70 10 l 1,20,-1
 60 10 l 1,21,-1
 60 0 l 1,22,-1
 40 0 l 1,23,-1
 40 10 l 1,24,-1
 30 10 l 1,25,-1
 30 -10 l 1,26,-1
 10 -10 l 1,27,-1
 10 10 l 1,0,-1
EndSplineSet
EndChar

StartChar: tau.itc.inferior
Encoding: 57364 57364 150
Width: 110
GlyphClass: 1
Flags: W
LayerCount: 2
Fore
SplineSet
10 30 m 1,0,-1
 20 30 l 1,1,-1
 20 40 l 1,2,-1
 80 40 l 1,3,-1
 80 30 l 1,4,-1
 60 30 l 1,5,-1
 60 20 l 1,6,-1
 50 20 l 1,7,-1
 50 0 l 1,8,-1
 60 0 l 1,9,-1
 60 -10 l 1,10,-1
 40 -10 l 1,11,-1
 40 0 l 1,12,-1
 30 0 l 1,13,-1
 30 20 l 1,14,-1
 40 20 l 1,15,-1
 40 30 l 1,16,-1
 20 30 l 1,17,-1
 20 20 l 1,18,-1
 10 20 l 1,19,-1
 10 30 l 1,0,-1
70 0 m 1,20,-1
 60 0 l 1,21,-1
 60 10 l 1,22,-1
 70 10 l 1,23,-1
 70 0 l 1,20,-1
EndSplineSet
EndChar

StartChar: cut
Encoding: 57385 57385 151
Width: 110
GlyphClass: 1
Flags: W
LayerCount: 2
Fore
SplineSet
0 0 m 1,0,-1
 0 120 l 1,1,-1
 100 120 l 1,2,-1
 100 0 l 1,3,-1
 0 0 l 1,0,-1
10 40 m 1,4,-1
 10 20 l 1,5,-1
 20 20 l 1,6,-1
 20 10 l 1,7,-1
 40 10 l 1,8,-1
 40 20 l 1,9,-1
 60 20 l 1,10,-1
 60 10 l 1,11,-1
 80 10 l 1,12,-1
 80 20 l 1,13,-1
 60 20 l 1,14,-1
 60 40 l 1,15,-1
 80 40 l 1,16,-1
 80 20 l 1,17,-1
 90 20 l 1,18,-1
 90 40 l 1,19,-1
 80 40 l 1,20,-1
 80 50 l 1,21,-1
 60 50 l 1,22,-1
 60 60 l 1,23,-1
 70 60 l 1,24,-1
 70 80 l 1,25,-1
 80 80 l 1,26,-1
 80 110 l 1,27,-1
 70 110 l 1,28,-1
 70 90 l 1,29,-1
 60 90 l 1,30,-1
 60 70 l 1,31,-1
 40 70 l 1,32,-1
 40 90 l 1,33,-1
 30 90 l 1,34,-1
 30 110 l 1,35,-1
 20 110 l 1,36,-1
 20 80 l 1,37,-1
 30 80 l 1,38,-1
 30 60 l 1,39,-1
 40 60 l 1,40,-1
 40 50 l 1,41,-1
 20 50 l 1,42,-1
 20 40 l 1,43,-1
 10 40 l 1,4,-1
20 40 m 1,44,-1
 40 40 l 1,45,-1
 40 20 l 1,46,-1
 20 20 l 1,47,-1
 20 40 l 1,44,-1
EndSplineSet
EndChar

StartChar: ten.small
Encoding: 9192 9192 152
AltUni2: 00e010.ffffffff.0 00e010.ffffffff.0
Width: 110
GlyphClass: 1
Flags: W
LayerCount: 2
Fore
SplineSet
10 60 m 1,0,-1
 0 60 l 1,1,-1
 0 70 l 1,2,-1
 10 70 l 1,3,-1
 10 80 l 1,4,-1
 30 80 l 1,5,-1
 30 0 l 1,6,-1
 10 0 l 1,7,-1
 10 60 l 1,0,-1
50 10 m 1,8,-1
 50 70 l 1,9,-1
 60 70 l 1,10,-1
 60 80 l 1,11,-1
 90 80 l 1,12,-1
 90 70 l 1,13,-1
 100 70 l 1,14,-1
 100 10 l 1,15,-1
 90 10 l 1,16,-1
 90 0 l 1,17,-1
 60 0 l 1,18,-1
 60 10 l 1,19,-1
 50 10 l 1,8,-1
70 70 m 1,20,-1
 70 10 l 1,21,-1
 80 10 l 1,22,-1
 80 70 l 1,23,-1
 70 70 l 1,20,-1
EndSplineSet
EndChar

StartChar: BOX
Encoding: 57384 57384 153
Width: 110
GlyphClass: 1
Flags: W
LayerCount: 2
Fore
SplineSet
0 120 m 1,0,-1
 100 120 l 1,1,-1
 100 -10 l 1,2,-1
 0 -10 l 1,3,-1
 0 120 l 1,0,-1
10 110 m 1,4,-1
 10 0 l 1,5,-1
 90 0 l 1,6,-1
 90 110 l 1,7,-1
 10 110 l 1,4,-1
EndSplineSet
EndChar

StartChar: degree
Encoding: 176 176 154
Width: 110
GlyphClass: 1
Flags: W
LayerCount: 2
Fore
SplineSet
20 120 m 1,0,-1
 60 120 l 1,1,-1
 60 110 l 1,2,-1
 70 110 l 1,3,-1
 70 70 l 1,4,-1
 60 70 l 1,5,-1
 60 60 l 1,6,-1
 20 60 l 1,7,-1
 20 70 l 1,8,-1
 10 70 l 1,9,-1
 10 110 l 1,10,-1
 20 110 l 1,11,-1
 20 120 l 1,0,-1
30 110 m 1,12,-1
 30 100 l 1,13,-1
 20 100 l 1,14,-1
 20 80 l 1,15,-1
 30 80 l 1,16,-1
 30 70 l 1,17,-1
 50 70 l 1,18,-1
 50 80 l 1,19,-1
 60 80 l 1,20,-1
 60 100 l 1,21,-1
 50 100 l 1,22,-1
 50 110 l 1,23,-1
 30 110 l 1,12,-1
EndSplineSet
Substitution2: "'ss01' Style Set 1 lookup 6 subtable" dms
Substitution2: "'aalt' Access All Alternates lookup 0 subtable" dms
EndChar

StartChar: shade
Encoding: 9618 9618 155
Width: 110
GlyphClass: 1
Flags: W
LayerCount: 2
Fore
SplineSet
20 20 m 1,0,-1
 30 20 l 1,1,-1
 30 30 l 1,2,-1
 20 30 l 1,3,-1
 20 40 l 1,4,-1
 30 40 l 1,5,-1
 30 50 l 1,6,-1
 20 50 l 1,7,-1
 20 60 l 1,8,-1
 30 60 l 1,9,-1
 30 70 l 1,10,-1
 20 70 l 1,11,-1
 20 80 l 1,12,-1
 30 80 l 1,13,-1
 30 90 l 1,14,-1
 20 90 l 1,15,-1
 20 100 l 1,16,-1
 30 100 l 1,17,-1
 30 90 l 1,18,-1
 40 90 l 1,19,-1
 40 100 l 1,20,-1
 50 100 l 1,21,-1
 50 90 l 1,22,-1
 60 90 l 1,23,-1
 60 100 l 1,24,-1
 70 100 l 1,25,-1
 70 90 l 1,26,-1
 80 90 l 1,27,-1
 80 80 l 1,28,-1
 70 80 l 1,29,-1
 70 90 l 1,30,-1
 60 90 l 1,31,-1
 60 80 l 1,32,-1
 70 80 l 1,33,-1
 70 70 l 1,34,-1
 80 70 l 1,35,-1
 80 60 l 1,36,-1
 70 60 l 1,37,-1
 70 50 l 1,38,-1
 80 50 l 1,39,-1
 80 40 l 1,40,-1
 70 40 l 1,41,-1
 70 30 l 1,42,-1
 80 30 l 1,43,-1
 80 20 l 1,44,-1
 90 20 l 1,45,-1
 90 30 l 1,46,-1
 80 30 l 1,47,-1
 80 40 l 1,48,-1
 90 40 l 1,49,-1
 90 50 l 1,50,-1
 80 50 l 1,51,-1
 80 60 l 1,52,-1
 90 60 l 1,53,-1
 90 70 l 1,54,-1
 80 70 l 1,55,-1
 80 80 l 1,56,-1
 90 80 l 1,57,-1
 90 90 l 1,58,-1
 80 90 l 1,59,-1
 80 100 l 1,60,-1
 70 100 l 1,61,-1
 70 110 l 1,62,-1
 60 110 l 1,63,-1
 60 100 l 1,64,-1
 50 100 l 1,65,-1
 50 110 l 1,66,-1
 40 110 l 1,67,-1
 40 100 l 1,68,-1
 30 100 l 1,69,-1
 30 110 l 1,70,-1
 20 110 l 1,71,-1
 20 100 l 1,72,-1
 10 100 l 1,73,-1
 10 90 l 1,74,-1
 20 90 l 1,75,-1
 20 80 l 1,76,-1
 10 80 l 1,77,-1
 10 70 l 1,78,-1
 20 70 l 1,79,-1
 20 60 l 1,80,-1
 10 60 l 1,81,-1
 10 50 l 1,82,-1
 20 50 l 1,83,-1
 20 40 l 1,84,-1
 10 40 l 1,85,-1
 10 30 l 1,86,-1
 20 30 l 1,87,-1
 20 20 l 1,88,-1
 10 20 l 1,89,-1
 10 10 l 1,90,-1
 20 10 l 1,91,-1
 20 0 l 1,92,-1
 30 0 l 1,93,-1
 30 10 l 1,94,-1
 40 10 l 1,95,-1
 40 0 l 1,96,-1
 50 0 l 1,97,-1
 50 10 l 1,98,-1
 60 10 l 1,99,-1
 60 0 l 1,100,-1
 70 0 l 1,101,-1
 70 10 l 1,102,-1
 80 10 l 1,103,-1
 80 0 l 1,104,-1
 90 0 l 1,105,-1
 90 -10 l 1,106,-1
 80 -10 l 1,107,-1
 80 0 l 1,108,-1
 70 0 l 1,109,-1
 70 -10 l 1,110,-1
 60 -10 l 1,111,-1
 60 0 l 1,112,-1
 50 0 l 1,113,-1
 50 -10 l 1,114,-1
 40 -10 l 1,115,-1
 40 0 l 1,116,-1
 30 0 l 1,117,-1
 30 -10 l 1,118,-1
 20 -10 l 1,119,-1
 20 0 l 1,120,-1
 10 0 l 1,121,-1
 10 -10 l 1,122,-1
 0 -10 l 1,123,-1
 0 0 l 1,124,-1
 10 0 l 1,125,-1
 10 10 l 1,126,-1
 0 10 l 1,127,-1
 0 20 l 1,128,-1
 10 20 l 1,129,-1
 10 30 l 1,130,-1
 0 30 l 1,131,-1
 0 40 l 1,132,-1
 10 40 l 1,133,-1
 10 50 l 1,134,-1
 0 50 l 1,135,-1
 0 60 l 1,136,-1
 10 60 l 1,137,-1
 10 70 l 1,138,-1
 0 70 l 1,139,-1
 0 80 l 1,140,-1
 10 80 l 1,141,-1
 10 90 l 1,142,-1
 0 90 l 1,143,-1
 0 100 l 1,144,-1
 10 100 l 1,145,-1
 10 110 l 1,146,-1
 0 110 l 1,147,-1
 0 120 l 1,148,-1
 10 120 l 1,149,-1
 10 110 l 1,150,-1
 20 110 l 1,151,-1
 20 120 l 1,152,-1
 30 120 l 1,153,-1
 30 110 l 1,154,-1
 40 110 l 1,155,-1
 40 120 l 1,156,-1
 50 120 l 1,157,-1
 50 110 l 1,158,-1
 60 110 l 1,159,-1
 60 120 l 1,160,-1
 70 120 l 1,161,-1
 70 110 l 1,162,-1
 80 110 l 1,163,-1
 80 120 l 1,164,-1
 90 120 l 1,165,-1
 90 110 l 1,166,-1
 100 110 l 1,167,-1
 100 100 l 1,168,-1
 90 100 l 1,169,-1
 90 110 l 1,170,-1
 80 110 l 1,171,-1
 80 100 l 1,172,-1
 90 100 l 1,173,-1
 90 90 l 1,174,-1
 100 90 l 1,175,-1
 100 80 l 1,176,-1
 90 80 l 1,177,-1
 90 70 l 1,178,-1
 100 70 l 1,179,-1
 100 60 l 1,180,-1
 90 60 l 1,181,-1
 90 50 l 1,182,-1
 100 50 l 1,183,-1
 100 40 l 1,184,-1
 90 40 l 1,185,-1
 90 30 l 1,186,-1
 100 30 l 1,187,-1
 100 20 l 1,188,-1
 90 20 l 1,189,-1
 90 10 l 1,190,-1
 100 10 l 1,191,-1
 100 0 l 1,192,-1
 90 0 l 1,193,-1
 90 10 l 1,194,-1
 80 10 l 1,195,-1
 80 20 l 1,196,-1
 70 20 l 1,197,-1
 70 30 l 1,198,-1
 60 30 l 1,199,-1
 60 40 l 1,200,-1
 70 40 l 1,201,-1
 70 50 l 1,202,-1
 60 50 l 1,203,-1
 60 60 l 1,204,-1
 70 60 l 1,205,-1
 70 70 l 1,206,-1
 60 70 l 1,207,-1
 60 80 l 1,208,-1
 50 80 l 1,209,-1
 50 90 l 1,210,-1
 40 90 l 1,211,-1
 40 80 l 1,212,-1
 30 80 l 1,213,-1
 30 70 l 1,214,-1
 40 70 l 1,215,-1
 40 60 l 1,216,-1
 30 60 l 1,217,-1
 30 50 l 1,218,-1
 40 50 l 1,219,-1
 40 40 l 1,220,-1
 30 40 l 1,221,-1
 30 30 l 1,222,-1
 40 30 l 1,223,-1
 40 20 l 1,224,-1
 50 20 l 1,225,-1
 50 30 l 1,226,-1
 60 30 l 1,227,-1
 60 20 l 1,228,-1
 70 20 l 1,229,-1
 70 10 l 1,230,-1
 60 10 l 1,231,-1
 60 20 l 1,232,-1
 50 20 l 1,233,-1
 50 10 l 1,234,-1
 40 10 l 1,235,-1
 40 20 l 1,236,-1
 30 20 l 1,237,-1
 30 10 l 1,238,-1
 20 10 l 1,239,-1
 20 20 l 1,0,-1
50 70 m 1,240,-1
 40 70 l 1,241,-1
 40 80 l 1,242,-1
 50 80 l 1,243,-1
 50 70 l 1,244,-1
 60 70 l 1,245,-1
 60 60 l 1,246,-1
 50 60 l 1,247,-1
 50 50 l 1,248,-1
 60 50 l 1,249,-1
 60 40 l 1,250,-1
 50 40 l 1,251,-1
 50 30 l 1,252,-1
 40 30 l 1,253,-1
 40 40 l 1,254,-1
 50 40 l 1,255,-1
 50 50 l 1,256,-1
 40 50 l 1,257,-1
 40 60 l 1,258,-1
 50 60 l 1,259,-1
 50 70 l 1,240,-1
EndSplineSet
EndChar

StartChar: trianglerightsmallblack
Encoding: 9656 9656 156
Width: 110
GlyphClass: 1
Flags: W
LayerCount: 2
Fore
SplineSet
30 20 m 1,0,-1
 30 80 l 1,1,-1
 50 80 l 1,2,-1
 50 70 l 1,3,-1
 70 70 l 1,4,-1
 70 60 l 1,5,-1
 90 60 l 1,6,-1
 90 40 l 1,7,-1
 70 40 l 1,8,-1
 70 30 l 1,9,-1
 50 30 l 1,10,-1
 50 20 l 1,11,-1
 30 20 l 1,0,-1
EndSplineSet
EndChar

StartChar: uni7B97
Encoding: 31639 31639 157
Width: 120
GlyphClass: 1
Flags: W
LayerCount: 2
Fore
SplineSet
10 80 m 1,0,-1
 0 80 l 1,1,-1
 0 90 l 1,2,-1
 10 90 l 1,3,-1
 10 110 l 1,4,-1
 20 110 l 1,5,-1
 20 120 l 1,6,-1
 30 120 l 1,7,-1
 30 110 l 1,8,-1
 50 110 l 1,9,-1
 50 100 l 1,10,-1
 60 100 l 1,11,-1
 60 110 l 1,12,-1
 70 110 l 1,13,-1
 70 120 l 1,14,-1
 80 120 l 1,15,-1
 80 110 l 1,16,-1
 110 110 l 1,17,-1
 110 100 l 1,18,-1
 90 100 l 1,19,-1
 90 40 l 1,20,-1
 80 40 l 1,21,-1
 80 30 l 1,22,-1
 110 30 l 1,23,-1
 110 20 l 1,24,-1
 80 20 l 1,25,-1
 80 0 l 1,26,-1
 70 0 l 1,27,-1
 70 20 l 1,28,-1
 30 20 l 1,29,-1
 30 10 l 1,30,-1
 20 10 l 1,31,-1
 20 0 l 1,32,-1
 10 0 l 1,33,-1
 10 10 l 1,34,-1
 20 10 l 1,35,-1
 20 20 l 1,36,-1
 0 20 l 1,37,-1
 0 30 l 1,38,-1
 30 30 l 1,39,-1
 30 40 l 1,40,-1
 20 40 l 1,41,-1
 20 90 l 1,42,-1
 10 90 l 1,43,-1
 10 80 l 1,0,-1
60 90 m 1,44,-1
 80 90 l 1,45,-1
 80 100 l 1,46,-1
 60 100 l 1,47,-1
 60 90 l 1,44,-1
50 100 m 1,48,-1
 40 100 l 1,49,-1
 40 90 l 1,50,-1
 50 90 l 1,51,-1
 50 100 l 1,48,-1
30 90 m 1,52,-1
 30 100 l 1,53,-1
 20 100 l 1,54,-1
 20 90 l 1,55,-1
 30 90 l 1,52,-1
40 50 m 1,56,-1
 40 60 l 1,57,-1
 50 60 l 1,58,-1
 50 50 l 1,59,-1
 70 50 l 1,60,-1
 70 60 l 1,61,-1
 60 60 l 1,62,-1
 60 70 l 1,63,-1
 70 70 l 1,64,-1
 70 60 l 1,65,-1
 80 60 l 1,66,-1
 80 80 l 1,67,-1
 60 80 l 1,68,-1
 60 70 l 1,69,-1
 50 70 l 1,70,-1
 50 80 l 1,71,-1
 30 80 l 1,72,-1
 30 70 l 1,73,-1
 40 70 l 1,74,-1
 40 60 l 1,75,-1
 30 60 l 1,76,-1
 30 50 l 1,77,-1
 40 50 l 1,56,-1
70 40 m 1,78,-1
 40 40 l 1,79,-1
 40 30 l 1,80,-1
 70 30 l 1,81,-1
 70 40 l 1,78,-1
EndSplineSet
Substitution2: "'ss01' Style Set 1 lookup 6 subtable" uni7B97_uniFE00
Substitution2: "'aalt' Access All Alternates lookup 0 subtable" uni7B97_uniFE00
EndChar

StartChar: uni8BA1
Encoding: 35745 35745 158
Width: 120
GlyphClass: 1
Flags: W
LayerCount: 2
Fore
SplineSet
30 90 m 1,0,-1
 20 90 l 1,1,-1
 20 110 l 1,2,-1
 10 110 l 1,3,-1
 10 120 l 1,4,-1
 20 120 l 1,5,-1
 20 110 l 1,6,-1
 30 110 l 1,7,-1
 30 90 l 1,0,-1
80 60 m 1,8,-1
 80 0 l 1,9,-1
 70 0 l 1,10,-1
 70 60 l 1,11,-1
 40 60 l 1,12,-1
 40 70 l 1,13,-1
 70 70 l 1,14,-1
 70 120 l 1,15,-1
 80 120 l 1,16,-1
 80 70 l 1,17,-1
 110 70 l 1,18,-1
 110 60 l 1,19,-1
 80 60 l 1,8,-1
0 70 m 1,20,-1
 0 80 l 1,21,-1
 30 80 l 1,22,-1
 30 20 l 1,23,-1
 40 20 l 1,24,-1
 40 10 l 1,25,-1
 30 10 l 1,26,-1
 30 0 l 1,27,-1
 20 0 l 1,28,-1
 20 70 l 1,29,-1
 0 70 l 1,20,-1
50 20 m 1,30,-1
 40 20 l 1,31,-1
 40 30 l 1,32,-1
 50 30 l 1,33,-1
 50 20 l 1,30,-1
EndSplineSet
EndChar

StartChar: uni5668
Encoding: 22120 22120 159
Width: 120
GlyphClass: 1
Flags: W
LayerCount: 2
Fore
SplineSet
0 50 m 1,0,-1
 30 50 l 1,1,-1
 30 60 l 1,2,-1
 0 60 l 1,3,-1
 0 70 l 1,4,-1
 50 70 l 1,5,-1
 50 80 l 1,6,-1
 10 80 l 1,7,-1
 10 120 l 1,8,-1
 50 120 l 1,9,-1
 50 80 l 1,10,-1
 60 80 l 1,11,-1
 60 120 l 1,12,-1
 100 120 l 1,13,-1
 100 80 l 1,14,-1
 90 80 l 1,15,-1
 90 70 l 1,16,-1
 110 70 l 1,17,-1
 110 60 l 1,18,-1
 90 60 l 1,19,-1
 90 50 l 1,20,-1
 100 50 l 1,21,-1
 100 40 l 1,22,-1
 110 40 l 1,23,-1
 110 30 l 1,24,-1
 100 30 l 1,25,-1
 100 0 l 1,26,-1
 60 0 l 1,27,-1
 60 40 l 1,28,-1
 90 40 l 1,29,-1
 90 50 l 1,30,-1
 80 50 l 1,31,-1
 80 60 l 1,32,-1
 40 60 l 1,33,-1
 40 50 l 1,34,-1
 30 50 l 1,35,-1
 30 40 l 1,36,-1
 50 40 l 1,37,-1
 50 0 l 1,38,-1
 10 0 l 1,39,-1
 10 40 l 1,40,-1
 0 40 l 1,41,-1
 0 50 l 1,0,-1
20 110 m 1,42,-1
 20 90 l 1,43,-1
 40 90 l 1,44,-1
 40 110 l 1,45,-1
 20 110 l 1,42,-1
90 110 m 1,46,-1
 70 110 l 1,47,-1
 70 90 l 1,48,-1
 90 90 l 1,49,-1
 90 110 l 1,46,-1
60 70 m 1,50,-1
 80 70 l 1,51,-1
 80 80 l 1,52,-1
 60 80 l 1,53,-1
 60 70 l 1,50,-1
40 30 m 1,54,-1
 20 30 l 1,55,-1
 20 10 l 1,56,-1
 40 10 l 1,57,-1
 40 30 l 1,54,-1
70 30 m 1,58,-1
 70 10 l 1,59,-1
 90 10 l 1,60,-1
 90 30 l 1,61,-1
 70 30 l 1,58,-1
EndSplineSet
EndChar

StartChar: uni51FD
Encoding: 20989 20989 160
Width: 120
GlyphClass: 1
Flags: W
LayerCount: 2
Fore
SplineSet
60 30 m 1,0,-1
 50 30 l 1,1,-1
 50 60 l 1,2,-1
 40 60 l 1,3,-1
 40 50 l 1,4,-1
 30 50 l 1,5,-1
 30 60 l 1,6,-1
 40 60 l 1,7,-1
 40 70 l 1,8,-1
 30 70 l 1,9,-1
 30 80 l 1,10,-1
 20 80 l 1,11,-1
 20 90 l 1,12,-1
 30 90 l 1,13,-1
 30 80 l 1,14,-1
 40 80 l 1,15,-1
 40 70 l 1,16,-1
 50 70 l 1,17,-1
 50 90 l 1,18,-1
 60 90 l 1,19,-1
 60 100 l 1,20,-1
 70 100 l 1,21,-1
 70 110 l 1,22,-1
 10 110 l 1,23,-1
 10 120 l 1,24,-1
 90 120 l 1,25,-1
 90 110 l 1,26,-1
 80 110 l 1,27,-1
 80 100 l 1,28,-1
 70 100 l 1,29,-1
 70 90 l 1,30,-1
 60 90 l 1,31,-1
 60 70 l 1,32,-1
 70 70 l 1,33,-1
 70 60 l 1,34,-1
 80 60 l 1,35,-1
 80 50 l 1,36,-1
 90 50 l 1,37,-1
 90 30 l 1,38,-1
 80 30 l 1,39,-1
 80 50 l 1,40,-1
 70 50 l 1,41,-1
 70 60 l 1,42,-1
 60 60 l 1,43,-1
 60 30 l 1,0,-1
80 70 m 1,44,-1
 70 70 l 1,45,-1
 70 80 l 1,46,-1
 80 80 l 1,47,-1
 80 90 l 1,48,-1
 90 90 l 1,49,-1
 90 80 l 1,50,-1
 80 80 l 1,51,-1
 80 70 l 1,44,-1
10 40 m 1,52,-1
 10 20 l 1,53,-1
 40 20 l 1,54,-1
 40 30 l 1,55,-1
 30 30 l 1,56,-1
 30 40 l 1,57,-1
 40 40 l 1,58,-1
 40 30 l 1,59,-1
 50 30 l 1,60,-1
 50 20 l 1,61,-1
 100 20 l 1,62,-1
 100 80 l 1,63,-1
 110 80 l 1,64,-1
 110 0 l 1,65,-1
 100 0 l 1,66,-1
 100 10 l 1,67,-1
 0 10 l 1,68,-1
 0 80 l 1,69,-1
 10 80 l 1,70,-1
 10 50 l 1,71,-1
 30 50 l 1,72,-1
 30 40 l 1,73,-1
 10 40 l 1,52,-1
EndSplineSet
EndChar

StartChar: uni6570
Encoding: 25968 25968 161
Width: 120
GlyphClass: 1
Flags: W
LayerCount: 2
Fore
SplineSet
20 40 m 1,0,-1
 20 30 l 1,1,-1
 40 30 l 1,2,-1
 40 20 l 1,3,-1
 50 20 l 1,4,-1
 50 10 l 1,5,-1
 60 10 l 1,6,-1
 60 0 l 1,7,-1
 50 0 l 1,8,-1
 50 10 l 1,9,-1
 40 10 l 1,10,-1
 40 20 l 1,11,-1
 20 20 l 1,12,-1
 20 10 l 1,13,-1
 10 10 l 1,14,-1
 10 0 l 1,15,-1
 0 0 l 1,16,-1
 0 10 l 1,17,-1
 10 10 l 1,18,-1
 10 20 l 1,19,-1
 20 20 l 1,20,-1
 20 30 l 1,21,-1
 10 30 l 1,22,-1
 10 40 l 1,23,-1
 0 40 l 1,24,-1
 0 50 l 1,25,-1
 20 50 l 1,26,-1
 20 60 l 1,27,-1
 30 60 l 1,28,-1
 30 80 l 1,29,-1
 20 80 l 1,30,-1
 20 70 l 1,31,-1
 10 70 l 1,32,-1
 10 60 l 1,33,-1
 0 60 l 1,34,-1
 0 70 l 1,35,-1
 10 70 l 1,36,-1
 10 80 l 1,37,-1
 20 80 l 1,38,-1
 20 90 l 1,39,-1
 0 90 l 1,40,-1
 0 100 l 1,41,-1
 10 100 l 1,42,-1
 10 110 l 1,43,-1
 0 110 l 1,44,-1
 0 120 l 1,45,-1
 10 120 l 1,46,-1
 10 110 l 1,47,-1
 20 110 l 1,48,-1
 20 100 l 1,49,-1
 30 100 l 1,50,-1
 30 120 l 1,51,-1
 40 120 l 1,52,-1
 40 110 l 1,53,-1
 50 110 l 1,54,-1
 50 100 l 1,55,-1
 60 100 l 1,56,-1
 60 90 l 1,57,-1
 70 90 l 1,58,-1
 70 120 l 1,59,-1
 80 120 l 1,60,-1
 80 100 l 1,61,-1
 110 100 l 1,62,-1
 110 90 l 1,63,-1
 100 90 l 1,64,-1
 100 50 l 1,65,-1
 90 50 l 1,66,-1
 90 90 l 1,67,-1
 70 90 l 1,68,-1
 70 70 l 1,69,-1
 60 70 l 1,70,-1
 60 90 l 1,71,-1
 40 90 l 1,72,-1
 40 80 l 1,73,-1
 50 80 l 1,74,-1
 50 70 l 1,75,-1
 40 70 l 1,76,-1
 40 60 l 1,77,-1
 30 60 l 1,78,-1
 30 50 l 1,79,-1
 60 50 l 1,80,-1
 60 40 l 1,81,-1
 50 40 l 1,82,-1
 50 30 l 1,83,-1
 40 30 l 1,84,-1
 40 40 l 1,85,-1
 20 40 l 1,0,-1
60 110 m 1,86,-1
 50 110 l 1,87,-1
 50 120 l 1,88,-1
 60 120 l 1,89,-1
 60 110 l 1,86,-1
110 10 m 1,90,-1
 110 0 l 1,91,-1
 100 0 l 1,92,-1
 100 10 l 1,93,-1
 90 10 l 1,94,-1
 90 30 l 1,95,-1
 80 30 l 1,96,-1
 80 20 l 1,97,-1
 70 20 l 1,98,-1
 70 10 l 1,99,-1
 60 10 l 1,100,-1
 60 20 l 1,101,-1
 70 20 l 1,102,-1
 70 30 l 1,103,-1
 80 30 l 1,104,-1
 80 50 l 1,105,-1
 70 50 l 1,106,-1
 70 70 l 1,107,-1
 80 70 l 1,108,-1
 80 50 l 1,109,-1
 90 50 l 1,110,-1
 90 30 l 1,111,-1
 100 30 l 1,112,-1
 100 10 l 1,113,-1
 110 10 l 1,90,-1
50 60 m 1,114,-1
 50 70 l 1,115,-1
 60 70 l 1,116,-1
 60 60 l 1,117,-1
 50 60 l 1,114,-1
EndSplineSet
Substitution2: "'ss01' Style Set 1 lookup 6 subtable" uni6570_uniFE00
Substitution2: "'aalt' Access All Alternates lookup 0 subtable" uni6570_uniFE00
EndChar

StartChar: mbold
Encoding: 119846 119846 162
Width: 110
GlyphClass: 1
Flags: W
LayerCount: 2
Fore
SplineSet
100 80 m 1,0,-1
 100 0 l 1,1,-1
 70 0 l 1,2,-1
 70 80 l 1,3,-1
 60 80 l 1,4,-1
 60 0 l 1,5,-1
 40 0 l 1,6,-1
 40 80 l 1,7,-1
 30 80 l 1,8,-1
 30 0 l 1,9,-1
 0 0 l 1,10,-1
 0 90 l 1,11,-1
 20 90 l 1,12,-1
 20 80 l 1,13,-1
 30 80 l 1,14,-1
 30 90 l 1,15,-1
 50 90 l 1,16,-1
 50 80 l 1,17,-1
 60 80 l 1,18,-1
 60 90 l 1,19,-1
 90 90 l 1,20,-1
 90 80 l 1,21,-1
 100 80 l 1,0,-1
EndSplineSet
EndChar

StartChar: nbold
Encoding: 119847 119847 163
Width: 110
GlyphClass: 1
Flags: W
LayerCount: 2
Fore
SplineSet
40 70 m 1,0,-1
 40 0 l 1,1,-1
 0 0 l 1,2,-1
 0 10 l 1,3,-1
 10 10 l 1,4,-1
 10 80 l 1,5,-1
 0 80 l 1,6,-1
 0 90 l 1,7,-1
 30 90 l 1,8,-1
 30 80 l 1,9,-1
 40 80 l 1,10,-1
 40 90 l 1,11,-1
 70 90 l 1,12,-1
 70 80 l 1,13,-1
 80 80 l 1,14,-1
 80 70 l 1,15,-1
 90 70 l 1,16,-1
 90 10 l 1,17,-1
 100 10 l 1,18,-1
 100 0 l 1,19,-1
 50 0 l 1,20,-1
 50 10 l 1,21,-1
 60 10 l 1,22,-1
 60 70 l 1,23,-1
 40 70 l 1,0,-1
EndSplineSet
EndChar

StartChar: pbold
Encoding: 119849 119849 164
Width: 110
GlyphClass: 1
Flags: W
LayerCount: 2
Fore
SplineSet
0 90 m 1,0,-1
 40 90 l 1,1,-1
 40 80 l 1,2,-1
 50 80 l 1,3,-1
 50 90 l 1,4,-1
 80 90 l 1,5,-1
 80 80 l 1,6,-1
 90 80 l 1,7,-1
 90 70 l 1,8,-1
 100 70 l 1,9,-1
 100 30 l 1,10,-1
 90 30 l 1,11,-1
 90 20 l 1,12,-1
 80 20 l 1,13,-1
 80 10 l 1,14,-1
 50 10 l 1,15,-1
 50 20 l 1,16,-1
 40 20 l 1,17,-1
 40 0 l 1,18,-1
 50 0 l 1,19,-1
 50 -10 l 1,20,-1
 0 -10 l 1,21,-1
 0 0 l 1,22,-1
 10 0 l 1,23,-1
 10 80 l 1,24,-1
 0 80 l 1,25,-1
 0 90 l 1,0,-1
50 70 m 1,26,-1
 40 70 l 1,27,-1
 40 30 l 1,28,-1
 50 30 l 1,29,-1
 50 20 l 1,30,-1
 60 20 l 1,31,-1
 60 30 l 1,32,-1
 70 30 l 1,33,-1
 70 70 l 1,34,-1
 60 70 l 1,35,-1
 60 80 l 1,36,-1
 50 80 l 1,37,-1
 50 70 l 1,26,-1
EndSplineSet
EndChar

StartChar: kbold
Encoding: 119844 119844 165
Width: 110
GlyphClass: 1
Flags: W
LayerCount: 2
Fore
SplineSet
40 0 m 1,0,-1
 0 0 l 1,1,-1
 0 10 l 1,2,-1
 10 10 l 1,3,-1
 10 110 l 1,4,-1
 0 110 l 1,5,-1
 0 120 l 1,6,-1
 40 120 l 1,7,-1
 40 50 l 1,8,-1
 50 50 l 1,9,-1
 50 60 l 1,10,-1
 60 60 l 1,11,-1
 60 70 l 1,12,-1
 70 70 l 1,13,-1
 70 80 l 1,14,-1
 60 80 l 1,15,-1
 60 90 l 1,16,-1
 100 90 l 1,17,-1
 100 80 l 1,18,-1
 80 80 l 1,19,-1
 80 70 l 1,20,-1
 70 70 l 1,21,-1
 70 60 l 1,22,-1
 60 60 l 1,23,-1
 60 50 l 1,24,-1
 70 50 l 1,25,-1
 70 40 l 1,26,-1
 80 40 l 1,27,-1
 80 20 l 1,28,-1
 90 20 l 1,29,-1
 90 10 l 1,30,-1
 100 10 l 1,31,-1
 100 0 l 1,32,-1
 50 0 l 1,33,-1
 50 10 l 1,34,-1
 60 10 l 1,35,-1
 60 20 l 1,36,-1
 50 20 l 1,37,-1
 50 40 l 1,38,-1
 40 40 l 1,39,-1
 40 0 l 1,0,-1
EndSplineSet
EndChar

StartChar: Gbold
Encoding: 119814 119814 166
Width: 110
GlyphClass: 1
Flags: W
LayerCount: 2
Fore
SplineSet
100 120 m 1,0,-1
 100 80 l 1,1,-1
 90 80 l 1,2,-1
 90 90 l 1,3,-1
 80 90 l 1,4,-1
 80 100 l 1,5,-1
 70 100 l 1,6,-1
 70 110 l 1,7,-1
 50 110 l 1,8,-1
 50 100 l 1,9,-1
 40 100 l 1,10,-1
 40 90 l 1,11,-1
 30 90 l 1,12,-1
 30 30 l 1,13,-1
 40 30 l 1,14,-1
 40 20 l 1,15,-1
 50 20 l 1,16,-1
 50 10 l 1,17,-1
 70 10 l 1,18,-1
 70 20 l 1,19,-1
 80 20 l 1,20,-1
 80 50 l 1,21,-1
 60 50 l 1,22,-1
 60 60 l 1,23,-1
 100 60 l 1,24,-1
 100 0 l 1,25,-1
 90 0 l 1,26,-1
 90 10 l 1,27,-1
 80 10 l 1,28,-1
 80 0 l 1,29,-1
 30 0 l 1,30,-1
 30 10 l 1,31,-1
 10 10 l 1,32,-1
 10 30 l 1,33,-1
 0 30 l 1,34,-1
 0 90 l 1,35,-1
 10 90 l 1,36,-1
 10 110 l 1,37,-1
 30 110 l 1,38,-1
 30 120 l 1,39,-1
 80 120 l 1,40,-1
 80 110 l 1,41,-1
 90 110 l 1,42,-1
 90 120 l 1,43,-1
 100 120 l 1,0,-1
EndSplineSet
EndChar

StartChar: Pbold
Encoding: 119823 119823 167
Width: 110
GlyphClass: 1
Flags: W
LayerCount: 2
Fore
SplineSet
0 110 m 1,0,-1
 0 120 l 1,1,-1
 80 120 l 1,2,-1
 80 110 l 1,3,-1
 90 110 l 1,4,-1
 90 100 l 1,5,-1
 100 100 l 1,6,-1
 100 70 l 1,7,-1
 90 70 l 1,8,-1
 90 60 l 1,9,-1
 80 60 l 1,10,-1
 80 50 l 1,11,-1
 40 50 l 1,12,-1
 40 10 l 1,13,-1
 50 10 l 1,14,-1
 50 0 l 1,15,-1
 0 0 l 1,16,-1
 0 10 l 1,17,-1
 10 10 l 1,18,-1
 10 110 l 1,19,-1
 0 110 l 1,0,-1
40 60 m 1,20,-1
 60 60 l 1,21,-1
 60 70 l 1,22,-1
 70 70 l 1,23,-1
 70 100 l 1,24,-1
 60 100 l 1,25,-1
 60 110 l 1,26,-1
 40 110 l 1,27,-1
 40 60 l 1,20,-1
EndSplineSet
EndChar

StartChar: HexA
Encoding: 57345 57345 168
Width: 110
GlyphClass: 1
Flags: W
LayerCount: 2
Fore
SplineSet
0 10 m 1,0,-1
 10 10 l 1,1,-1
 10 40 l 1,2,-1
 20 40 l 1,3,-1
 20 70 l 1,4,-1
 30 70 l 1,5,-1
 30 100 l 1,6,-1
 40 100 l 1,7,-1
 40 120 l 1,8,-1
 60 120 l 1,9,-1
 60 100 l 1,10,-1
 70 100 l 1,11,-1
 70 70 l 1,12,-1
 80 70 l 1,13,-1
 80 40 l 1,14,-1
 90 40 l 1,15,-1
 90 10 l 1,16,-1
 100 10 l 1,17,-1
 100 0 l 1,18,-1
 40 0 l 1,19,-1
 40 10 l 1,20,-1
 50 10 l 1,21,-1
 50 40 l 1,22,-1
 20 40 l 1,23,-1
 20 10 l 1,24,-1
 30 10 l 1,25,-1
 30 0 l 1,26,-1
 0 0 l 1,27,-1
 0 10 l 1,0,-1
30 70 m 1,28,-1
 30 50 l 1,29,-1
 40 50 l 1,30,-1
 40 70 l 1,31,-1
 30 70 l 1,28,-1
EndSplineSet
EndChar

StartChar: HexB
Encoding: 57346 57346 169
Width: 110
GlyphClass: 1
Flags: W
LayerCount: 2
Fore
SplineSet
0 110 m 1,0,-1
 0 120 l 1,1,-1
 80 120 l 1,2,-1
 80 110 l 1,3,-1
 90 110 l 1,4,-1
 90 100 l 1,5,-1
 100 100 l 1,6,-1
 100 80 l 1,7,-1
 90 80 l 1,8,-1
 90 50 l 1,9,-1
 100 50 l 1,10,-1
 100 20 l 1,11,-1
 90 20 l 1,12,-1
 90 10 l 1,13,-1
 80 10 l 1,14,-1
 80 0 l 1,15,-1
 0 0 l 1,16,-1
 0 10 l 1,17,-1
 10 10 l 1,18,-1
 10 110 l 1,19,-1
 0 110 l 1,0,-1
50 110 m 1,20,-1
 50 70 l 1,21,-1
 60 70 l 1,22,-1
 60 80 l 1,23,-1
 70 80 l 1,24,-1
 70 100 l 1,25,-1
 60 100 l 1,26,-1
 60 110 l 1,27,-1
 50 110 l 1,20,-1
60 60 m 1,28,-1
 50 60 l 1,29,-1
 50 10 l 1,30,-1
 60 10 l 1,31,-1
 60 20 l 1,32,-1
 70 20 l 1,33,-1
 70 50 l 1,34,-1
 60 50 l 1,35,-1
 60 60 l 1,28,-1
EndSplineSet
EndChar

StartChar: HexC-nCr
Encoding: 57347 57347 170
Width: 110
GlyphClass: 1
Flags: W
LayerCount: 2
Fore
SplineSet
100 120 m 1,0,-1
 100 80 l 1,1,-1
 90 80 l 1,2,-1
 90 90 l 1,3,-1
 70 90 l 1,4,-1
 70 100 l 1,5,-1
 60 100 l 1,6,-1
 60 90 l 1,7,-1
 50 90 l 1,8,-1
 50 80 l 1,9,-1
 40 80 l 1,10,-1
 40 30 l 1,11,-1
 50 30 l 1,12,-1
 50 20 l 1,13,-1
 60 20 l 1,14,-1
 60 10 l 1,15,-1
 80 10 l 1,16,-1
 80 20 l 1,17,-1
 90 20 l 1,18,-1
 90 30 l 1,19,-1
 100 30 l 1,20,-1
 100 10 l 1,21,-1
 90 10 l 1,22,-1
 90 0 l 1,23,-1
 30 0 l 1,24,-1
 30 10 l 1,25,-1
 10 10 l 1,26,-1
 10 30 l 1,27,-1
 0 30 l 1,28,-1
 0 90 l 1,29,-1
 10 90 l 1,30,-1
 10 110 l 1,31,-1
 30 110 l 1,32,-1
 30 120 l 1,33,-1
 80 120 l 1,34,-1
 80 110 l 1,35,-1
 90 110 l 1,36,-1
 90 120 l 1,37,-1
 100 120 l 1,0,-1
EndSplineSet
EndChar

StartChar: HexD
Encoding: 57348 57348 171
Width: 110
GlyphClass: 1
Flags: W
LayerCount: 2
Fore
SplineSet
0 0 m 1,0,-1
 0 10 l 1,1,-1
 10 10 l 1,2,-1
 10 110 l 1,3,-1
 0 110 l 1,4,-1
 0 120 l 1,5,-1
 70 120 l 1,6,-1
 70 110 l 1,7,-1
 90 110 l 1,8,-1
 90 90 l 1,9,-1
 100 90 l 1,10,-1
 100 20 l 1,11,-1
 90 20 l 1,12,-1
 90 10 l 1,13,-1
 70 10 l 1,14,-1
 70 0 l 1,15,-1
 0 0 l 1,0,-1
60 10 m 1,16,-1
 60 30 l 1,17,-1
 70 30 l 1,18,-1
 70 90 l 1,19,-1
 60 90 l 1,20,-1
 60 110 l 1,21,-1
 50 110 l 1,22,-1
 50 10 l 1,23,-1
 60 10 l 1,16,-1
EndSplineSet
EndChar

StartChar: HexE
Encoding: 57349 57349 172
Width: 110
GlyphClass: 1
Flags: W
LayerCount: 2
Fore
SplineSet
0 0 m 1,0,-1
 0 10 l 1,1,-1
 10 10 l 1,2,-1
 10 110 l 1,3,-1
 0 110 l 1,4,-1
 0 120 l 1,5,-1
 100 120 l 1,6,-1
 100 90 l 1,7,-1
 90 90 l 1,8,-1
 90 100 l 1,9,-1
 80 100 l 1,10,-1
 80 110 l 1,11,-1
 50 110 l 1,12,-1
 50 70 l 1,13,-1
 70 70 l 1,14,-1
 70 90 l 1,15,-1
 80 90 l 1,16,-1
 80 40 l 1,17,-1
 70 40 l 1,18,-1
 70 60 l 1,19,-1
 50 60 l 1,20,-1
 50 10 l 1,21,-1
 80 10 l 1,22,-1
 80 20 l 1,23,-1
 90 20 l 1,24,-1
 90 30 l 1,25,-1
 100 30 l 1,26,-1
 100 0 l 1,27,-1
 0 0 l 1,0,-1
EndSplineSet
EndChar

StartChar: HexF
Encoding: 57350 57350 173
Width: 110
GlyphClass: 1
Flags: W
LayerCount: 2
Fore
SplineSet
60 10 m 1,0,-1
 60 0 l 1,1,-1
 0 0 l 1,2,-1
 0 10 l 1,3,-1
 10 10 l 1,4,-1
 10 110 l 1,5,-1
 0 110 l 1,6,-1
 0 120 l 1,7,-1
 100 120 l 1,8,-1
 100 90 l 1,9,-1
 90 90 l 1,10,-1
 90 100 l 1,11,-1
 80 100 l 1,12,-1
 80 110 l 1,13,-1
 50 110 l 1,14,-1
 50 70 l 1,15,-1
 70 70 l 1,16,-1
 70 90 l 1,17,-1
 80 90 l 1,18,-1
 80 40 l 1,19,-1
 70 40 l 1,20,-1
 70 60 l 1,21,-1
 50 60 l 1,22,-1
 50 10 l 1,23,-1
 60 10 l 1,0,-1
EndSplineSet
EndChar

StartChar: nPr
Encoding: 57351 57351 174
Width: 110
GlyphClass: 1
Flags: W
LayerCount: 2
Fore
SplineSet
10 110 m 1,0,-1
 0 110 l 1,1,-1
 0 120 l 1,2,-1
 80 120 l 1,3,-1
 80 110 l 1,4,-1
 90 110 l 1,5,-1
 90 100 l 1,6,-1
 100 100 l 1,7,-1
 100 60 l 1,8,-1
 90 60 l 1,9,-1
 90 50 l 1,10,-1
 80 50 l 1,11,-1
 80 40 l 1,12,-1
 50 40 l 1,13,-1
 50 10 l 1,14,-1
 60 10 l 1,15,-1
 60 0 l 1,16,-1
 0 0 l 1,17,-1
 0 10 l 1,18,-1
 10 10 l 1,19,-1
 10 110 l 1,0,-1
50 50 m 1,20,-1
 60 50 l 1,21,-1
 60 60 l 1,22,-1
 70 60 l 1,23,-1
 70 100 l 1,24,-1
 60 100 l 1,25,-1
 60 110 l 1,26,-1
 50 110 l 1,27,-1
 50 50 l 1,20,-1
EndSplineSet
EndChar

StartChar: x.bar
Encoding: 57352 57352 175
Width: 110
GlyphClass: 1
Flags: W
LayerCount: 2
Fore
SplineSet
10 110 m 1,0,-1
 10 120 l 1,1,-1
 100 120 l 1,2,-1
 100 110 l 1,3,-1
 10 110 l 1,0,-1
80 60 m 1,4,-1
 70 60 l 1,5,-1
 70 70 l 1,6,-1
 80 70 l 1,7,-1
 80 80 l 1,8,-1
 70 80 l 1,9,-1
 70 90 l 1,10,-1
 100 90 l 1,11,-1
 100 80 l 1,12,-1
 90 80 l 1,13,-1
 90 70 l 1,14,-1
 80 70 l 1,15,-1
 80 60 l 1,4,-1
20 80 m 1,16,-1
 10 80 l 1,17,-1
 10 90 l 1,18,-1
 50 90 l 1,19,-1
 50 80 l 1,20,-1
 40 80 l 1,21,-1
 40 70 l 1,22,-1
 50 70 l 1,23,-1
 50 60 l 1,24,-1
 70 60 l 1,25,-1
 70 40 l 1,26,-1
 80 40 l 1,27,-1
 80 20 l 1,28,-1
 90 20 l 1,29,-1
 90 10 l 1,30,-1
 100 10 l 1,31,-1
 100 0 l 1,32,-1
 60 0 l 1,33,-1
 60 10 l 1,34,-1
 70 10 l 1,35,-1
 70 20 l 1,36,-1
 60 20 l 1,37,-1
 60 30 l 1,38,-1
 40 30 l 1,39,-1
 40 20 l 1,40,-1
 30 20 l 1,41,-1
 30 10 l 1,42,-1
 40 10 l 1,43,-1
 40 0 l 1,44,-1
 10 0 l 1,45,-1
 10 10 l 1,46,-1
 20 10 l 1,47,-1
 20 20 l 1,48,-1
 30 20 l 1,49,-1
 30 30 l 1,50,-1
 40 30 l 1,51,-1
 40 50 l 1,52,-1
 30 50 l 1,53,-1
 30 70 l 1,54,-1
 20 70 l 1,55,-1
 20 80 l 1,16,-1
EndSplineSet
LCarets2: 1 0
Ligature2: "'ccmp' Glyph Composition/Decomposition lookup 5 subtable" x uni0305
EndChar

StartChar: y.bar
Encoding: 57354 57354 176
Width: 110
GlyphClass: 1
Flags: W
LayerCount: 2
Fore
SplineSet
100 110 m 1,0,-1
 10 110 l 1,1,-1
 10 120 l 1,2,-1
 100 120 l 1,3,-1
 100 110 l 1,0,-1
20 0 m 1,4,-1
 10 0 l 1,5,-1
 10 10 l 1,6,-1
 30 10 l 1,7,-1
 30 0 l 1,8,-1
 40 0 l 1,9,-1
 40 10 l 1,10,-1
 50 10 l 1,11,-1
 50 20 l 1,12,-1
 40 20 l 1,13,-1
 40 40 l 1,14,-1
 30 40 l 1,15,-1
 30 60 l 1,16,-1
 20 60 l 1,17,-1
 20 80 l 1,18,-1
 10 80 l 1,19,-1
 10 90 l 1,20,-1
 50 90 l 1,21,-1
 50 80 l 1,22,-1
 40 80 l 1,23,-1
 40 70 l 1,24,-1
 50 70 l 1,25,-1
 50 50 l 1,26,-1
 60 50 l 1,27,-1
 60 40 l 1,28,-1
 70 40 l 1,29,-1
 70 20 l 1,30,-1
 60 20 l 1,31,-1
 60 0 l 1,32,-1
 50 0 l 1,33,-1
 50 -10 l 1,34,-1
 20 -10 l 1,35,-1
 20 0 l 1,4,-1
80 40 m 1,36,-1
 70 40 l 1,37,-1
 70 60 l 1,38,-1
 80 60 l 1,39,-1
 80 80 l 1,40,-1
 70 80 l 1,41,-1
 70 90 l 1,42,-1
 100 90 l 1,43,-1
 100 80 l 1,44,-1
 90 80 l 1,45,-1
 90 60 l 1,46,-1
 80 60 l 1,47,-1
 80 40 l 1,36,-1
EndSplineSet
Ligature2: "'ccmp' Glyph Composition/Decomposition lookup 5 subtable" y uni0305
EndChar

StartChar: x.hat
Encoding: 57353 57353 177
Width: 110
GlyphClass: 1
Flags: W
LayerCount: 2
Fore
SplineSet
20 90 m 1,0,-1
 20 100 l 1,1,-1
 30 100 l 1,2,-1
 30 110 l 1,3,-1
 40 110 l 1,4,-1
 40 120 l 1,5,-1
 60 120 l 1,6,-1
 60 110 l 1,7,-1
 70 110 l 1,8,-1
 70 100 l 1,9,-1
 80 100 l 1,10,-1
 80 90 l 1,11,-1
 60 90 l 1,12,-1
 60 100 l 1,13,-1
 40 100 l 1,14,-1
 40 90 l 1,15,-1
 20 90 l 1,0,-1
80 50 m 1,16,-1
 70 50 l 1,17,-1
 70 60 l 1,18,-1
 80 60 l 1,19,-1
 80 70 l 1,20,-1
 70 70 l 1,21,-1
 70 80 l 1,22,-1
 100 80 l 1,23,-1
 100 70 l 1,24,-1
 90 70 l 1,25,-1
 90 60 l 1,26,-1
 80 60 l 1,27,-1
 80 50 l 1,16,-1
10 0 m 1,28,-1
 10 10 l 1,29,-1
 20 10 l 1,30,-1
 20 20 l 1,31,-1
 30 20 l 1,32,-1
 30 30 l 1,33,-1
 40 30 l 1,34,-1
 40 50 l 1,35,-1
 30 50 l 1,36,-1
 30 60 l 1,37,-1
 20 60 l 1,38,-1
 20 70 l 1,39,-1
 10 70 l 1,40,-1
 10 80 l 1,41,-1
 50 80 l 1,42,-1
 50 70 l 1,43,-1
 40 70 l 1,44,-1
 40 60 l 1,45,-1
 50 60 l 1,46,-1
 50 50 l 1,47,-1
 70 50 l 1,48,-1
 70 30 l 1,49,-1
 80 30 l 1,50,-1
 80 20 l 1,51,-1
 90 20 l 1,52,-1
 90 10 l 1,53,-1
 100 10 l 1,54,-1
 100 0 l 1,55,-1
 60 0 l 1,56,-1
 60 10 l 1,57,-1
 70 10 l 1,58,-1
 70 20 l 1,59,-1
 60 20 l 1,60,-1
 60 30 l 1,61,-1
 40 30 l 1,62,-1
 40 20 l 1,63,-1
 30 20 l 1,64,-1
 30 10 l 1,65,-1
 40 10 l 1,66,-1
 40 0 l 1,67,-1
 10 0 l 1,28,-1
EndSplineSet
Ligature2: "'ccmp' Glyph Composition/Decomposition lookup 5 subtable" x uni0302
EndChar

StartChar: y.hat
Encoding: 57355 57355 178
Width: 110
GlyphClass: 1
Flags: W
LayerCount: 2
Fore
SplineSet
20 90 m 1,0,-1
 20 100 l 1,1,-1
 30 100 l 1,2,-1
 30 110 l 1,3,-1
 40 110 l 1,4,-1
 40 120 l 1,5,-1
 60 120 l 1,6,-1
 60 110 l 1,7,-1
 70 110 l 1,8,-1
 70 100 l 1,9,-1
 80 100 l 1,10,-1
 80 90 l 1,11,-1
 60 90 l 1,12,-1
 60 100 l 1,13,-1
 40 100 l 1,14,-1
 40 90 l 1,15,-1
 20 90 l 1,0,-1
10 80 m 1,16,-1
 50 80 l 1,17,-1
 50 70 l 1,18,-1
 40 70 l 1,19,-1
 40 60 l 1,20,-1
 50 60 l 1,21,-1
 50 40 l 1,22,-1
 60 40 l 1,23,-1
 60 30 l 1,24,-1
 70 30 l 1,25,-1
 70 20 l 1,26,-1
 60 20 l 1,27,-1
 60 0 l 1,28,-1
 50 0 l 1,29,-1
 50 -10 l 1,30,-1
 20 -10 l 1,31,-1
 20 0 l 1,32,-1
 10 0 l 1,33,-1
 10 10 l 1,34,-1
 30 10 l 1,35,-1
 30 0 l 1,36,-1
 40 0 l 1,37,-1
 40 10 l 1,38,-1
 50 10 l 1,39,-1
 50 20 l 1,40,-1
 39 20 l 1,41,-1
 39 40 l 1,42,-1
 30 40 l 1,43,-1
 30 60 l 1,44,-1
 20 60 l 1,45,-1
 20 70 l 1,46,-1
 10 70 l 1,47,-1
 10 80 l 1,16,-1
80 30 m 1,48,-1
 70 30 l 1,49,-1
 70 50 l 1,50,-1
 80 50 l 1,51,-1
 80 70 l 1,52,-1
 70 70 l 1,53,-1
 70 80 l 1,54,-1
 100 80 l 1,55,-1
 100 70 l 1,56,-1
 90 70 l 1,57,-1
 90 50 l 1,58,-1
 80 50 l 1,59,-1
 80 30 l 1,48,-1
EndSplineSet
Ligature2: "'ccmp' Glyph Composition/Decomposition lookup 5 subtable" y uni0302
EndChar

StartChar: EE
Encoding: 57357 57357 179
Width: 110
GlyphClass: 1
Flags: W
LayerCount: 2
Fore
SplineSet
50 10 m 1,0,-1
 50 50 l 1,1,-1
 60 50 l 1,2,-1
 60 60 l 1,3,-1
 90 60 l 1,4,-1
 90 50 l 1,5,-1
 100 50 l 1,6,-1
 100 10 l 1,7,-1
 90 10 l 1,8,-1
 90 0 l 1,9,-1
 60 0 l 1,10,-1
 60 10 l 1,11,-1
 50 10 l 1,0,-1
10 60 m 1,12,-1
 30 60 l 1,13,-1
 30 0 l 1,14,-1
 10 0 l 1,15,-1
 10 60 l 1,12,-1
70 50 m 1,16,-1
 70 10 l 1,17,-1
 80 10 l 1,18,-1
 80 50 l 1,19,-1
 70 50 l 1,16,-1
EndSplineSet
EndChar

StartChar: EE-
Encoding: 57359 57359 180
Width: 110
GlyphClass: 1
Flags: W
LayerCount: 2
Fore
SplineSet
50 80 m 1,0,-1
 50 100 l 1,1,-1
 100 100 l 1,2,-1
 100 80 l 1,3,-1
 50 80 l 1,0,-1
30 10 m 1,4,-1
 30 50 l 1,5,-1
 40 50 l 1,6,-1
 40 60 l 1,7,-1
 70 60 l 1,8,-1
 70 50 l 1,9,-1
 80 50 l 1,10,-1
 80 10 l 1,11,-1
 70 10 l 1,12,-1
 70 0 l 1,13,-1
 40 0 l 1,14,-1
 40 10 l 1,15,-1
 30 10 l 1,4,-1
0 60 m 1,16,-1
 20 60 l 1,17,-1
 20 0 l 1,18,-1
 0 0 l 1,19,-1
 0 60 l 1,16,-1
50 50 m 1,20,-1
 50 10 l 1,21,-1
 60 10 l 1,22,-1
 60 50 l 1,23,-1
 50 50 l 1,20,-1
EndSplineSet
EndChar

StartChar: four.superior
Encoding: 8308 8308 181
Width: 110
GlyphClass: 1
Flags: W
LayerCount: 2
Fore
SplineSet
10 70 m 1,0,-1
 10 80 l 1,1,-1
 20 80 l 1,2,-1
 20 90 l 1,3,-1
 30 90 l 1,4,-1
 30 100 l 1,5,-1
 40 100 l 1,6,-1
 40 110 l 1,7,-1
 50 110 l 1,8,-1
 50 120 l 1,9,-1
 70 120 l 1,10,-1
 70 80 l 1,11,-1
 80 80 l 1,12,-1
 80 70 l 1,13,-1
 70 70 l 1,14,-1
 70 60 l 1,15,-1
 80 60 l 1,16,-1
 80 50 l 1,17,-1
 40 50 l 1,18,-1
 40 60 l 1,19,-1
 50 60 l 1,20,-1
 50 70 l 1,21,-1
 10 70 l 1,0,-1
30 80 m 1,22,-1
 50 80 l 1,23,-1
 50 100 l 1,24,-1
 40 100 l 1,25,-1
 40 90 l 1,26,-1
 30 90 l 1,27,-1
 30 80 l 1,22,-1
EndSplineSet
EndChar

StartChar: threesuperior
Encoding: 179 179 182
Width: 110
GlyphClass: 1
Flags: W
LayerCount: 2
Fore
SplineSet
10 110 m 1,0,-1
 20 110 l 1,1,-1
 20 120 l 1,2,-1
 70 120 l 1,3,-1
 70 110 l 1,4,-1
 80 110 l 1,5,-1
 80 90 l 1,6,-1
 70 90 l 1,7,-1
 70 80 l 1,8,-1
 80 80 l 1,9,-1
 80 60 l 1,10,-1
 70 60 l 1,11,-1
 70 50 l 1,12,-1
 20 50 l 1,13,-1
 20 60 l 1,14,-1
 10 60 l 1,15,-1
 10 70 l 1,16,-1
 30 70 l 1,17,-1
 30 60 l 1,18,-1
 60 60 l 1,19,-1
 60 80 l 1,20,-1
 30 80 l 1,21,-1
 30 90 l 1,22,-1
 60 90 l 1,23,-1
 60 110 l 1,24,-1
 30 110 l 1,25,-1
 30 100 l 1,26,-1
 10 100 l 1,27,-1
 10 110 l 1,0,-1
EndSplineSet
EndChar

StartChar: onesuperior
Encoding: 185 185 183
Width: 110
GlyphClass: 1
Flags: W
LayerCount: 2
Fore
SplineSet
30 50 m 1,0,-1
 30 60 l 1,1,-1
 40 60 l 1,2,-1
 40 100 l 1,3,-1
 30 100 l 1,4,-1
 30 110 l 1,5,-1
 40 110 l 1,6,-1
 40 120 l 1,7,-1
 60 120 l 1,8,-1
 60 60 l 1,9,-1
 70 60 l 1,10,-1
 70 50 l 1,11,-1
 30 50 l 1,0,-1
EndSplineSet
EndChar

StartChar: zero.superior
Encoding: 8304 8304 184
Width: 110
GlyphClass: 1
Flags: W
LayerCount: 2
Fore
SplineSet
10 110 m 1,0,-1
 20 110 l 1,1,-1
 20 120 l 1,2,-1
 70 120 l 1,3,-1
 70 110 l 1,4,-1
 80 110 l 1,5,-1
 80 60 l 1,6,-1
 70 60 l 1,7,-1
 70 50 l 1,8,-1
 20 50 l 1,9,-1
 20 60 l 1,10,-1
 10 60 l 1,11,-1
 10 110 l 1,0,-1
30 60 m 1,12,-1
 60 60 l 1,13,-1
 60 110 l 1,14,-1
 30 110 l 1,15,-1
 30 60 l 1,12,-1
EndSplineSet
EndChar

StartChar: three.inferior
Encoding: 8323 8323 185
Width: 110
GlyphClass: 1
Flags: W
LayerCount: 2
Fore
SplineSet
10 0 m 1,0,-1
 10 10 l 1,1,-1
 30 10 l 1,2,-1
 30 0 l 1,3,-1
 60 0 l 1,4,-1
 60 20 l 1,5,-1
 30 20 l 1,6,-1
 30 30 l 1,7,-1
 60 30 l 1,8,-1
 60 50 l 1,9,-1
 30 50 l 1,10,-1
 30 40 l 1,11,-1
 10 40 l 1,12,-1
 10 50 l 1,13,-1
 20 50 l 1,14,-1
 20 60 l 1,15,-1
 70 60 l 1,16,-1
 70 50 l 1,17,-1
 80 50 l 1,18,-1
 80 30 l 1,19,-1
 70 30 l 1,20,-1
 70 20 l 1,21,-1
 80 20 l 1,22,-1
 80 0 l 1,23,-1
 70 0 l 1,24,-1
 70 -10 l 1,25,-1
 20 -10 l 1,26,-1
 20 0 l 1,27,-1
 10 0 l 1,0,-1
EndSplineSet
EndChar

StartChar: four.inferior
Encoding: 8324 8324 186
Width: 110
GlyphClass: 1
Flags: W
LayerCount: 2
Fore
SplineSet
10 10 m 1,0,-1
 10 20 l 1,1,-1
 20 20 l 1,2,-1
 20 30 l 1,3,-1
 30 30 l 1,4,-1
 30 40 l 1,5,-1
 40 40 l 1,6,-1
 40 50 l 1,7,-1
 50 50 l 1,8,-1
 50 60 l 1,9,-1
 70 60 l 1,10,-1
 70 20 l 1,11,-1
 80 20 l 1,12,-1
 80 10 l 1,13,-1
 70 10 l 1,14,-1
 70 0 l 1,15,-1
 80 0 l 1,16,-1
 80 -10 l 1,17,-1
 40 -10 l 1,18,-1
 40 0 l 1,19,-1
 50 0 l 1,20,-1
 50 10 l 1,21,-1
 10 10 l 1,0,-1
30 20 m 1,22,-1
 50 20 l 1,23,-1
 50 40 l 1,24,-1
 40 40 l 1,25,-1
 40 30 l 1,26,-1
 30 30 l 1,27,-1
 30 20 l 1,22,-1
EndSplineSet
EndChar

StartChar: six.inferior
Encoding: 8326 8326 187
Width: 110
GlyphClass: 1
Flags: W
LayerCount: 2
Fore
SplineSet
20 0 m 1,0,-1
 10 0 l 1,1,-1
 10 50 l 1,2,-1
 20 50 l 1,3,-1
 20 60 l 1,4,-1
 70 60 l 1,5,-1
 70 50 l 1,6,-1
 80 50 l 1,7,-1
 80 40 l 1,8,-1
 60 40 l 1,9,-1
 60 50 l 1,10,-1
 30 50 l 1,11,-1
 30 30 l 1,12,-1
 70 30 l 1,13,-1
 70 20 l 1,14,-1
 80 20 l 1,15,-1
 80 0 l 1,16,-1
 70 0 l 1,17,-1
 70 -10 l 1,18,-1
 20 -10 l 1,19,-1
 20 0 l 1,0,-1
60 0 m 1,20,-1
 60 20 l 1,21,-1
 30 20 l 1,22,-1
 30 0 l 1,23,-1
 60 0 l 1,20,-1
EndSplineSet
EndChar

StartChar: seven.inferior
Encoding: 8327 8327 188
Width: 110
GlyphClass: 1
Flags: W
LayerCount: 2
Fore
SplineSet
10 60 m 1,0,-1
 80 60 l 1,1,-1
 80 40 l 1,2,-1
 70 40 l 1,3,-1
 70 30 l 1,4,-1
 60 30 l 1,5,-1
 60 20 l 1,6,-1
 50 20 l 1,7,-1
 50 -10 l 1,8,-1
 30 -10 l 1,9,-1
 30 20 l 1,10,-1
 40 20 l 1,11,-1
 40 30 l 1,12,-1
 50 30 l 1,13,-1
 50 40 l 1,14,-1
 60 40 l 1,15,-1
 60 50 l 1,16,-1
 20 50 l 1,17,-1
 20 40 l 1,18,-1
 10 40 l 1,19,-1
 10 60 l 1,0,-1
EndSplineSet
EndChar

StartChar: eight.inferior
Encoding: 8328 8328 189
Width: 110
GlyphClass: 1
Flags: W
LayerCount: 2
Fore
SplineSet
20 60 m 1,0,-1
 70 60 l 1,1,-1
 70 50 l 1,2,-1
 80 50 l 1,3,-1
 80 30 l 1,4,-1
 70 30 l 1,5,-1
 70 20 l 1,6,-1
 80 20 l 1,7,-1
 80 0 l 1,8,-1
 70 0 l 1,9,-1
 70 -10 l 1,10,-1
 20 -10 l 1,11,-1
 20 0 l 1,12,-1
 10 0 l 1,13,-1
 10 20 l 1,14,-1
 20 20 l 1,15,-1
 20 30 l 1,16,-1
 10 30 l 1,17,-1
 10 50 l 1,18,-1
 20 50 l 1,19,-1
 20 60 l 1,0,-1
30 50 m 1,20,-1
 30 30 l 1,21,-1
 60 30 l 1,22,-1
 60 50 l 1,23,-1
 30 50 l 1,20,-1
30 20 m 1,24,-1
 30 0 l 1,25,-1
 60 0 l 1,26,-1
 60 20 l 1,27,-1
 30 20 l 1,24,-1
EndSplineSet
EndChar

StartChar: six.superior
Encoding: 8310 8310 190
Width: 110
GlyphClass: 1
Flags: W
LayerCount: 2
Fore
SplineSet
20 60 m 1,0,-1
 10 60 l 1,1,-1
 10 110 l 1,2,-1
 20 110 l 1,3,-1
 20 120 l 1,4,-1
 70 120 l 1,5,-1
 70 110 l 1,6,-1
 80 110 l 1,7,-1
 80 100 l 1,8,-1
 60 100 l 1,9,-1
 60 110 l 1,10,-1
 30 110 l 1,11,-1
 30 90 l 1,12,-1
 70 90 l 1,13,-1
 70 80 l 1,14,-1
 80 80 l 1,15,-1
 80 60 l 1,16,-1
 70 60 l 1,17,-1
 70 50 l 1,18,-1
 20 50 l 1,19,-1
 20 60 l 1,0,-1
60 60 m 1,20,-1
 60 80 l 1,21,-1
 30 80 l 1,22,-1
 30 60 l 1,23,-1
 60 60 l 1,20,-1
EndSplineSet
EndChar

StartChar: seven.superior
Encoding: 8311 8311 191
Width: 110
GlyphClass: 1
Flags: W
LayerCount: 2
Fore
SplineSet
10 120 m 1,0,-1
 80 120 l 1,1,-1
 80 100 l 1,2,-1
 70 100 l 1,3,-1
 70 90 l 1,4,-1
 60 90 l 1,5,-1
 60 80 l 1,6,-1
 50 80 l 1,7,-1
 50 50 l 1,8,-1
 30 50 l 1,9,-1
 30 80 l 1,10,-1
 40 80 l 1,11,-1
 40 90 l 1,12,-1
 50 90 l 1,13,-1
 50 100 l 1,14,-1
 60 100 l 1,15,-1
 60 110 l 1,16,-1
 20 110 l 1,17,-1
 20 100 l 1,18,-1
 10 100 l 1,19,-1
 10 120 l 1,0,-1
EndSplineSet
EndChar

StartChar: eight.superior
Encoding: 8312 8312 192
Width: 110
GlyphClass: 1
Flags: W
LayerCount: 2
Fore
SplineSet
20 120 m 1,0,-1
 70 120 l 1,1,-1
 70 110 l 1,2,-1
 80 110 l 1,3,-1
 80 90 l 1,4,-1
 70 90 l 1,5,-1
 70 80 l 1,6,-1
 80 80 l 1,7,-1
 80 60 l 1,8,-1
 70 60 l 1,9,-1
 70 50 l 1,10,-1
 20 50 l 1,11,-1
 20 60 l 1,12,-1
 10 60 l 1,13,-1
 10 80 l 1,14,-1
 20 80 l 1,15,-1
 20 90 l 1,16,-1
 10 90 l 1,17,-1
 10 110 l 1,18,-1
 20 110 l 1,19,-1
 20 120 l 1,0,-1
30 110 m 1,20,-1
 30 90 l 1,21,-1
 60 90 l 1,22,-1
 60 110 l 1,23,-1
 30 110 l 1,20,-1
30 80 m 1,24,-1
 30 60 l 1,25,-1
 60 60 l 1,26,-1
 60 80 l 1,27,-1
 30 80 l 1,24,-1
EndSplineSet
EndChar

StartChar: nine.superior
Encoding: 8313 8313 193
Width: 110
GlyphClass: 1
Flags: W
LayerCount: 2
Fore
SplineSet
30 70 m 1,0,-1
 30 60 l 1,1,-1
 60 60 l 1,2,-1
 60 80 l 1,3,-1
 20 80 l 1,4,-1
 20 90 l 1,5,-1
 10 90 l 1,6,-1
 10 110 l 1,7,-1
 20 110 l 1,8,-1
 20 120 l 1,9,-1
 70 120 l 1,10,-1
 70 110 l 1,11,-1
 80 110 l 1,12,-1
 80 60 l 1,13,-1
 70 60 l 1,14,-1
 70 50 l 1,15,-1
 20 50 l 1,16,-1
 20 60 l 1,17,-1
 10 60 l 1,18,-1
 10 70 l 1,19,-1
 30 70 l 1,0,-1
60 90 m 1,20,-1
 60 110 l 1,21,-1
 30 110 l 1,22,-1
 30 90 l 1,23,-1
 60 90 l 1,20,-1
EndSplineSet
EndChar

StartChar: rsupmod
Encoding: 691 691 194
Width: 110
GlyphClass: 1
Flags: W
LayerCount: 2
Fore
SplineSet
10 120 m 1,0,-1
 40 120 l 1,1,-1
 40 110 l 1,2,-1
 50 110 l 1,3,-1
 50 120 l 1,4,-1
 70 120 l 1,5,-1
 70 110 l 1,6,-1
 80 110 l 1,7,-1
 80 100 l 1,8,-1
 60 100 l 1,9,-1
 60 110 l 1,10,-1
 50 110 l 1,11,-1
 50 100 l 1,12,-1
 40 100 l 1,13,-1
 40 70 l 1,14,-1
 50 70 l 1,15,-1
 50 60 l 1,16,-1
 10 60 l 1,17,-1
 10 70 l 1,18,-1
 20 70 l 1,19,-1
 20 111 l 1,20,-1
 10 111 l 1,21,-1
 10 120 l 1,0,-1
EndSplineSet
EndChar

StartChar: gmod
Encoding: 7501 7501 195
Width: 110
GlyphClass: 1
Flags: W
LayerCount: 2
Fore
SplineSet
80 110 m 1,0,-1
 70 110 l 1,1,-1
 70 120 l 1,2,-1
 80 120 l 1,3,-1
 80 110 l 1,0,-1
10 110 m 1,4,-1
 20 110 l 1,5,-1
 20 120 l 1,6,-1
 60 120 l 1,7,-1
 60 110 l 1,8,-1
 70 110 l 1,9,-1
 70 100 l 1,10,-1
 60 100 l 1,11,-1
 60 90 l 1,12,-1
 40 90 l 1,13,-1
 40 80 l 1,14,-1
 70 80 l 1,15,-1
 70 70 l 1,16,-1
 80 70 l 1,17,-1
 80 60 l 1,18,-1
 70 60 l 1,19,-1
 70 50 l 1,20,-1
 20 50 l 1,21,-1
 20 60 l 1,22,-1
 10 60 l 1,23,-1
 10 70 l 1,24,-1
 20 70 l 1,25,-1
 20 80 l 1,26,-1
 30 80 l 1,27,-1
 30 90 l 1,28,-1
 20 90 l 1,29,-1
 20 100 l 1,30,-1
 10 100 l 1,31,-1
 10 110 l 1,4,-1
40 110 m 1,32,-1
 30 110 l 1,33,-1
 30 100 l 1,34,-1
 40 100 l 1,35,-1
 40 110 l 1,32,-1
30 70 m 1,36,-1
 30 60 l 1,37,-1
 50 60 l 1,38,-1
 50 70 l 1,39,-1
 30 70 l 1,36,-1
EndSplineSet
EndChar

StartChar: minus.one.superior
Encoding: 57361 57361 196
Width: 110
GlyphClass: 1
Flags: W
LayerCount: 2
Fore
SplineSet
60 50 m 1,0,-1
 60 60 l 1,1,-1
 70 60 l 1,2,-1
 70 100 l 1,3,-1
 60 100 l 1,4,-1
 60 110 l 1,5,-1
 70 110 l 1,6,-1
 70 120 l 1,7,-1
 90 120 l 1,8,-1
 90 60 l 1,9,-1
 100 60 l 1,10,-1
 100 50 l 1,11,-1
 60 50 l 1,0,-1
0 80 m 1,12,-1
 0 90 l 1,13,-1
 50 90 l 1,14,-1
 50 80 l 1,15,-1
 0 80 l 1,12,-1
EndSplineSet
EndChar

StartChar: trianglerightblack
Encoding: 9654 9654 197
Width: 110
GlyphClass: 1
Flags: W
LayerCount: 2
Fore
SplineSet
30 30 m 1,0,-1
 30 20 l 1,1,-1
 10 20 l 1,2,-1
 10 100 l 1,3,-1
 30 100 l 1,4,-1
 30 90 l 1,5,-1
 50 90 l 1,6,-1
 50 80 l 1,7,-1
 70 80 l 1,8,-1
 70 70 l 1,9,-1
 90 70 l 1,10,-1
 90 50 l 1,11,-1
 70 50 l 1,12,-1
 70 40 l 1,13,-1
 50 40 l 1,14,-1
 50 30 l 1,15,-1
 30 30 l 1,0,-1
EndSplineSet
Substitution2: "Single Substitution lookup 8 subtable" to
Substitution2: "'ss01' Style Set 1 lookup 6 subtable" triangle.left-below
Substitution2: "'aalt' Access All Alternates lookup 0 subtable" triangle.left-below
EndChar

StartChar: triangleleftblack
Encoding: 9664 9664 198
Width: 110
GlyphClass: 1
Flags: W
LayerCount: 2
Fore
SplineSet
70 30 m 1,0,-1
 50 30 l 1,1,-1
 50 40 l 1,2,-1
 30 40 l 1,3,-1
 30 50 l 1,4,-1
 10 50 l 1,5,-1
 10 70 l 1,6,-1
 30 70 l 1,7,-1
 30 80 l 1,8,-1
 50 80 l 1,9,-1
 50 90 l 1,10,-1
 70 90 l 1,11,-1
 70 100 l 1,12,-1
 90 100 l 1,13,-1
 90 20 l 1,14,-1
 70 20 l 1,15,-1
 70 30 l 1,0,-1
EndSplineSet
EndChar

StartChar: quotesingle
Encoding: 39 39 199
Width: 110
GlyphClass: 1
Flags: W
LayerCount: 2
Fore
SplineSet
40 80 m 1,0,-1
 40 120 l 1,1,-1
 60 120 l 1,2,-1
 60 80 l 1,3,-1
 40 80 l 1,0,-1
EndSplineSet
EndChar

StartChar: triangleleftwhite
Encoding: 9665 9665 200
Width: 110
GlyphClass: 1
Flags: W
LayerCount: 2
Fore
SplineSet
70 30 m 1,0,-1
 50 30 l 1,1,-1
 50 40 l 1,2,-1
 30 40 l 1,3,-1
 30 50 l 1,4,-1
 10 50 l 1,5,-1
 10 70 l 1,6,-1
 30 70 l 1,7,-1
 30 80 l 1,8,-1
 50 80 l 1,9,-1
 50 90 l 1,10,-1
 70 90 l 1,11,-1
 70 100 l 1,12,-1
 90 100 l 1,13,-1
 90 20 l 1,14,-1
 70 20 l 1,15,-1
 70 30 l 1,0,-1
50 70 m 1,16,-1
 30 70 l 1,17,-1
 30 50 l 1,18,-1
 50 50 l 1,19,-1
 50 40 l 1,20,-1
 70 40 l 1,21,-1
 70 30 l 1,22,-1
 80 30 l 1,23,-1
 80 90 l 1,24,-1
 70 90 l 1,25,-1
 70 80 l 1,26,-1
 50 80 l 1,27,-1
 50 70 l 1,16,-1
EndSplineSet
Substitution2: "'ss01' Style Set 1 lookup 6 subtable" uniE033
Substitution2: "'aalt' Access All Alternates lookup 0 subtable" uniE033
EndChar

StartChar: litre
Encoding: 8467 8467 201
Width: 110
GlyphClass: 1
Flags: W
LayerCount: 2
Fore
SplineSet
40 0 m 1,0,-1
 10 0 l 1,1,-1
 10 10 l 1,2,-1
 30 10 l 1,3,-1
 30 20 l 1,4,-1
 40 20 l 1,5,-1
 40 30 l 1,6,-1
 30 30 l 1,7,-1
 30 60 l 1,8,-1
 40 60 l 1,9,-1
 40 90 l 1,10,-1
 50 90 l 1,11,-1
 50 110 l 1,12,-1
 60 110 l 1,13,-1
 60 120 l 1,14,-1
 80 120 l 1,15,-1
 80 110 l 1,16,-1
 90 110 l 1,17,-1
 90 90 l 1,18,-1
 80 90 l 1,19,-1
 80 60 l 1,20,-1
 70 60 l 1,21,-1
 70 30 l 1,22,-1
 60 30 l 1,23,-1
 60 10 l 1,24,-1
 70 10 l 1,25,-1
 70 20 l 1,26,-1
 90 20 l 1,27,-1
 90 10 l 1,28,-1
 80 10 l 1,29,-1
 80 0 l 1,30,-1
 60 0 l 1,31,-1
 60 10 l 1,32,-1
 40 10 l 1,33,-1
 40 0 l 1,0,-1
40 60 m 1,34,-1
 40 30 l 1,35,-1
 50 30 l 1,36,-1
 50 60 l 1,37,-1
 60 60 l 1,38,-1
 60 90 l 1,39,-1
 70 90 l 1,40,-1
 70 110 l 1,41,-1
 60 110 l 1,42,-1
 60 90 l 1,43,-1
 50 90 l 1,44,-1
 50 60 l 1,45,-1
 40 60 l 1,34,-1
EndSplineSet
EndChar

StartChar: titalic
Encoding: 119905 119905 202
Width: 110
GlyphClass: 1
Flags: W
LayerCount: 2
Fore
SplineSet
30 40 m 1,0,-1
 30 70 l 1,1,-1
 40 70 l 1,2,-1
 40 80 l 1,3,-1
 20 80 l 1,4,-1
 20 90 l 1,5,-1
 40 90 l 1,6,-1
 40 100 l 1,7,-1
 50 100 l 1,8,-1
 50 110 l 1,9,-1
 70 110 l 1,10,-1
 70 100 l 1,11,-1
 60 100 l 1,12,-1
 60 90 l 1,13,-1
 90 90 l 1,14,-1
 90 80 l 1,15,-1
 60 80 l 1,16,-1
 60 70 l 1,17,-1
 50 70 l 1,18,-1
 50 40 l 1,19,-1
 40 40 l 1,20,-1
 40 10 l 1,21,-1
 50 10 l 1,22,-1
 50 20 l 1,23,-1
 60 20 l 1,24,-1
 60 30 l 1,25,-1
 80 30 l 1,26,-1
 80 20 l 1,27,-1
 70 20 l 1,28,-1
 70 10 l 1,29,-1
 60 10 l 1,30,-1
 60 0 l 1,31,-1
 30 0 l 1,32,-1
 30 10 l 1,33,-1
 20 10 l 1,34,-1
 20 40 l 1,35,-1
 30 40 l 1,0,-1
EndSplineSet
EndChar

StartChar: uni5168
Encoding: 20840 20840 203
Width: 120
GlyphClass: 1
Flags: W
LayerCount: 2
Fore
SplineSet
20 70 m 1,0,-1
 0 70 l 1,1,-1
 0 80 l 1,2,-1
 20 80 l 1,3,-1
 20 90 l 1,4,-1
 30 90 l 1,5,-1
 30 100 l 1,6,-1
 40 100 l 1,7,-1
 40 110 l 1,8,-1
 50 110 l 1,9,-1
 50 120 l 1,10,-1
 60 120 l 1,11,-1
 60 110 l 1,12,-1
 70 110 l 1,13,-1
 70 100 l 1,14,-1
 80 100 l 1,15,-1
 80 90 l 1,16,-1
 90 90 l 1,17,-1
 90 80 l 1,18,-1
 110 80 l 1,19,-1
 110 70 l 1,20,-1
 90 70 l 1,21,-1
 90 80 l 1,22,-1
 80 80 l 1,23,-1
 80 70 l 1,24,-1
 60 70 l 1,25,-1
 60 50 l 1,26,-1
 90 50 l 1,27,-1
 90 40 l 1,28,-1
 60 40 l 1,29,-1
 60 10 l 1,30,-1
 100 10 l 1,31,-1
 100 0 l 1,32,-1
 10 0 l 1,33,-1
 10 10 l 1,34,-1
 50 10 l 1,35,-1
 50 40 l 1,36,-1
 20 40 l 1,37,-1
 20 50 l 1,38,-1
 50 50 l 1,39,-1
 50 70 l 1,40,-1
 30 70 l 1,41,-1
 30 80 l 1,42,-1
 20 80 l 1,43,-1
 20 70 l 1,0,-1
30 90 m 1,44,-1
 30 80 l 1,45,-1
 80 80 l 1,46,-1
 80 90 l 1,47,-1
 70 90 l 1,48,-1
 70 100 l 1,49,-1
 60 100 l 1,50,-1
 60 110 l 1,51,-1
 50 110 l 1,52,-1
 50 100 l 1,53,-1
 40 100 l 1,54,-1
 40 90 l 1,55,-1
 30 90 l 1,44,-1
EndSplineSet
EndChar

StartChar: uni90E8
Encoding: 37096 37096 204
Width: 120
GlyphClass: 1
Flags: W
LayerCount: 2
Fore
SplineSet
0 100 m 1,0,-1
 30 100 l 1,1,-1
 30 110 l 1,2,-1
 20 110 l 1,3,-1
 20 120 l 1,4,-1
 30 120 l 1,5,-1
 30 110 l 1,6,-1
 40 110 l 1,7,-1
 40 100 l 1,8,-1
 70 100 l 1,9,-1
 70 110 l 1,10,-1
 110 110 l 1,11,-1
 110 80 l 1,12,-1
 100 80 l 1,13,-1
 100 70 l 1,14,-1
 110 70 l 1,15,-1
 110 30 l 1,16,-1
 100 30 l 1,17,-1
 100 70 l 1,18,-1
 90 70 l 1,19,-1
 90 80 l 1,20,-1
 100 80 l 1,21,-1
 100 100 l 1,22,-1
 80 100 l 1,23,-1
 80 40 l 1,24,-1
 90 40 l 1,25,-1
 90 30 l 1,26,-1
 100 30 l 1,27,-1
 100 20 l 1,28,-1
 90 20 l 1,29,-1
 90 30 l 1,30,-1
 80 30 l 1,31,-1
 80 0 l 1,32,-1
 70 0 l 1,33,-1
 70 60 l 1,34,-1
 0 60 l 1,35,-1
 0 70 l 1,36,-1
 20 70 l 1,37,-1
 20 80 l 1,38,-1
 10 80 l 1,39,-1
 10 90 l 1,40,-1
 0 90 l 1,41,-1
 0 100 l 1,0,-1
20 80 m 1,42,-1
 30 80 l 1,43,-1
 30 70 l 1,44,-1
 40 70 l 1,45,-1
 40 80 l 1,46,-1
 50 80 l 1,47,-1
 50 90 l 1,48,-1
 20 90 l 1,49,-1
 20 80 l 1,42,-1
50 80 m 1,50,-1
 50 70 l 1,51,-1
 70 70 l 1,52,-1
 70 90 l 1,53,-1
 60 90 l 1,54,-1
 60 80 l 1,55,-1
 50 80 l 1,50,-1
10 50 m 1,56,-1
 60 50 l 1,57,-1
 60 0 l 1,58,-1
 50 0 l 1,59,-1
 50 10 l 1,60,-1
 20 10 l 1,61,-1
 20 0 l 1,62,-1
 10 0 l 1,63,-1
 10 50 l 1,56,-1
20 40 m 1,64,-1
 20 20 l 1,65,-1
 50 20 l 1,66,-1
 50 40 l 1,67,-1
 20 40 l 1,64,-1
EndSplineSet
Substitution2: "'ss01' Style Set 1 lookup 6 subtable" uni90E8_uniFE00
Substitution2: "'aalt' Access All Alternates lookup 0 subtable" uni90E8_uniFE00
EndChar

StartChar: uni521D
Encoding: 21021 21021 205
Width: 120
GlyphClass: 1
Flags: W
LayerCount: 2
Fore
SplineSet
0 90 m 1,0,-1
 0 100 l 1,1,-1
 20 100 l 1,2,-1
 20 110 l 1,3,-1
 10 110 l 1,4,-1
 10 120 l 1,5,-1
 20 120 l 1,6,-1
 20 110 l 1,7,-1
 30 110 l 1,8,-1
 30 100 l 1,9,-1
 50 100 l 1,10,-1
 50 110 l 1,11,-1
 110 110 l 1,12,-1
 110 10 l 1,13,-1
 100 10 l 1,14,-1
 100 100 l 1,15,-1
 80 100 l 1,16,-1
 80 40 l 1,17,-1
 70 40 l 1,18,-1
 70 20 l 1,19,-1
 60 20 l 1,20,-1
 60 10 l 1,21,-1
 50 10 l 1,22,-1
 50 0 l 1,23,-1
 40 0 l 1,24,-1
 40 10 l 1,25,-1
 50 10 l 1,26,-1
 50 20 l 1,27,-1
 60 20 l 1,28,-1
 60 40 l 1,29,-1
 70 40 l 1,30,-1
 70 100 l 1,31,-1
 50 100 l 1,32,-1
 50 90 l 1,33,-1
 40 90 l 1,34,-1
 40 80 l 1,35,-1
 30 80 l 1,36,-1
 30 60 l 1,37,-1
 40 60 l 1,38,-1
 40 50 l 1,39,-1
 50 50 l 1,40,-1
 50 40 l 1,41,-1
 40 40 l 1,42,-1
 40 50 l 1,43,-1
 30 50 l 1,44,-1
 30 0 l 1,45,-1
 20 0 l 1,46,-1
 20 60 l 1,47,-1
 10 60 l 1,48,-1
 10 50 l 1,49,-1
 0 50 l 1,50,-1
 0 60 l 1,51,-1
 10 60 l 1,52,-1
 10 70 l 1,53,-1
 20 70 l 1,54,-1
 20 80 l 1,55,-1
 30 80 l 1,56,-1
 30 90 l 1,57,-1
 0 90 l 1,0,-1
50 60 m 1,58,-1
 40 60 l 1,59,-1
 40 70 l 1,60,-1
 50 70 l 1,61,-1
 50 60 l 1,58,-1
100 10 m 1,62,-1
 100 0 l 1,63,-1
 90 0 l 1,64,-1
 90 10 l 1,65,-1
 80 10 l 1,66,-1
 80 20 l 1,67,-1
 90 20 l 1,68,-1
 90 10 l 1,69,-1
 100 10 l 1,62,-1
EndSplineSet
Substitution2: "'ss01' Style Set 1 lookup 6 subtable" uni521D_uniFE00
Substitution2: "'aalt' Access All Alternates lookup 0 subtable" uni521D_uniFE00
EndChar

StartChar: uni59CB
Encoding: 22987 22987 206
Width: 120
GlyphClass: 1
Flags: W
LayerCount: 2
Fore
SplineSet
10 80 m 1,0,-1
 0 80 l 1,1,-1
 0 90 l 1,2,-1
 10 90 l 1,3,-1
 10 120 l 1,4,-1
 20 120 l 1,5,-1
 20 90 l 1,6,-1
 40 90 l 1,7,-1
 40 30 l 1,8,-1
 30 30 l 1,9,-1
 30 80 l 1,10,-1
 20 80 l 1,11,-1
 20 60 l 1,12,-1
 10 60 l 1,13,-1
 10 40 l 1,14,-1
 20 40 l 1,15,-1
 20 30 l 1,16,-1
 30 30 l 1,17,-1
 30 20 l 1,18,-1
 40 20 l 1,19,-1
 40 10 l 1,20,-1
 30 10 l 1,21,-1
 30 20 l 1,22,-1
 20 20 l 1,23,-1
 20 10 l 1,24,-1
 10 10 l 1,25,-1
 10 0 l 1,26,-1
 0 0 l 1,27,-1
 0 10 l 1,28,-1
 10 10 l 1,29,-1
 10 20 l 1,30,-1
 20 20 l 1,31,-1
 20 30 l 1,32,-1
 10 30 l 1,33,-1
 10 40 l 1,34,-1
 0 40 l 1,35,-1
 0 60 l 1,36,-1
 10 60 l 1,37,-1
 10 80 l 1,0,-1
110 70 m 1,38,-1
 50 70 l 1,39,-1
 50 90 l 1,40,-1
 60 90 l 1,41,-1
 60 100 l 1,42,-1
 70 100 l 1,43,-1
 70 120 l 1,44,-1
 80 120 l 1,45,-1
 80 100 l 1,46,-1
 70 100 l 1,47,-1
 70 90 l 1,48,-1
 60 90 l 1,49,-1
 60 80 l 1,50,-1
 100 80 l 1,51,-1
 100 90 l 1,52,-1
 90 90 l 1,53,-1
 90 100 l 1,54,-1
 100 100 l 1,55,-1
 100 90 l 1,56,-1
 110 90 l 1,57,-1
 110 70 l 1,38,-1
60 0 m 1,58,-1
 50 0 l 1,59,-1
 50 60 l 1,60,-1
 110 60 l 1,61,-1
 110 0 l 1,62,-1
 100 0 l 1,63,-1
 100 10 l 1,64,-1
 60 10 l 1,65,-1
 60 0 l 1,58,-1
60 20 m 1,66,-1
 100 20 l 1,67,-1
 100 50 l 1,68,-1
 60 50 l 1,69,-1
 60 20 l 1,66,-1
EndSplineSet
Substitution2: "'ss01' Style Set 1 lookup 6 subtable" uni59CB_uniFE00
Substitution2: "'aalt' Access All Alternates lookup 0 subtable" uni59CB_uniFE00
EndChar

StartChar: uni5316
Encoding: 21270 21270 207
Width: 120
GlyphClass: 1
Flags: W
LayerCount: 2
Fore
SplineSet
0 70 m 1,0,-1
 10 70 l 1,1,-1
 10 80 l 1,2,-1
 20 80 l 1,3,-1
 20 100 l 1,4,-1
 30 100 l 1,5,-1
 30 120 l 1,6,-1
 40 120 l 1,7,-1
 40 100 l 1,8,-1
 30 100 l 1,9,-1
 30 50 l 1,10,-1
 50 50 l 1,11,-1
 50 60 l 1,12,-1
 60 60 l 1,13,-1
 60 120 l 1,14,-1
 70 120 l 1,15,-1
 70 70 l 1,16,-1
 80 70 l 1,17,-1
 80 60 l 1,18,-1
 70 60 l 1,19,-1
 70 10 l 1,20,-1
 100 10 l 1,21,-1
 100 40 l 1,22,-1
 110 40 l 1,23,-1
 110 0 l 1,24,-1
 70 0 l 1,25,-1
 70 10 l 1,26,-1
 60 10 l 1,27,-1
 60 50 l 1,28,-1
 50 50 l 1,29,-1
 50 40 l 1,30,-1
 30 40 l 1,31,-1
 30 0 l 1,32,-1
 20 0 l 1,33,-1
 20 70 l 1,34,-1
 10 70 l 1,35,-1
 10 60 l 1,36,-1
 0 60 l 1,37,-1
 0 70 l 1,0,-1
90 70 m 1,38,-1
 80 70 l 1,39,-1
 80 80 l 1,40,-1
 90 80 l 1,41,-1
 90 90 l 1,42,-1
 100 90 l 1,43,-1
 100 100 l 1,44,-1
 110 100 l 1,45,-1
 110 90 l 1,46,-1
 100 90 l 1,47,-1
 100 80 l 1,48,-1
 90 80 l 1,49,-1
 90 70 l 1,38,-1
EndSplineSet
Substitution2: "'ss01' Style Set 1 lookup 6 subtable" uni5316_uniFE00
Substitution2: "'aalt' Access All Alternates lookup 0 subtable" uni5316_uniFE00
EndChar

StartChar: uni5B58
Encoding: 23384 23384 208
Width: 120
GlyphClass: 1
Flags: W
LayerCount: 2
Fore
SplineSet
0 50 m 1,0,-1
 10 50 l 1,1,-1
 10 60 l 1,2,-1
 20 60 l 1,3,-1
 20 70 l 1,4,-1
 30 70 l 1,5,-1
 30 90 l 1,6,-1
 40 90 l 1,7,-1
 40 100 l 1,8,-1
 0 100 l 1,9,-1
 0 110 l 1,10,-1
 40 110 l 1,11,-1
 40 120 l 1,12,-1
 50 120 l 1,13,-1
 50 110 l 1,14,-1
 110 110 l 1,15,-1
 110 100 l 1,16,-1
 50 100 l 1,17,-1
 50 90 l 1,18,-1
 40 90 l 1,19,-1
 40 80 l 1,20,-1
 100 80 l 1,21,-1
 100 70 l 1,22,-1
 90 70 l 1,23,-1
 90 60 l 1,24,-1
 80 60 l 1,25,-1
 80 50 l 1,26,-1
 110 50 l 1,27,-1
 110 40 l 1,28,-1
 80 40 l 1,29,-1
 80 10 l 1,30,-1
 70 10 l 1,31,-1
 70 40 l 1,32,-1
 40 40 l 1,33,-1
 40 50 l 1,34,-1
 70 50 l 1,35,-1
 70 60 l 1,36,-1
 80 60 l 1,37,-1
 80 70 l 1,38,-1
 30 70 l 1,39,-1
 30 0 l 1,40,-1
 20 0 l 1,41,-1
 20 50 l 1,42,-1
 10 50 l 1,43,-1
 10 40 l 1,44,-1
 0 40 l 1,45,-1
 0 50 l 1,0,-1
70 10 m 1,46,-1
 70 0 l 1,47,-1
 60 0 l 1,48,-1
 60 10 l 1,49,-1
 50 10 l 1,50,-1
 50 20 l 1,51,-1
 60 20 l 1,52,-1
 60 10 l 1,53,-1
 70 10 l 1,46,-1
EndSplineSet
Substitution2: "'ss01' Style Set 1 lookup 6 subtable" uni5B58_uniFE00
Substitution2: "'aalt' Access All Alternates lookup 0 subtable" uni5B58_uniFE00
EndChar

StartChar: uni50A8
Encoding: 20648 20648 209
Width: 120
GlyphClass: 1
Flags: W
LayerCount: 2
Fore
SplineSet
0 70 m 1,0,-1
 0 80 l 1,1,-1
 10 80 l 1,2,-1
 10 100 l 1,3,-1
 20 100 l 1,4,-1
 20 120 l 1,5,-1
 30 120 l 1,6,-1
 30 100 l 1,7,-1
 40 100 l 1,8,-1
 40 90 l 1,9,-1
 30 90 l 1,10,-1
 30 100 l 1,11,-1
 20 100 l 1,12,-1
 20 80 l 1,13,-1
 40 80 l 1,14,-1
 40 50 l 1,15,-1
 60 50 l 1,16,-1
 60 60 l 1,17,-1
 70 60 l 1,18,-1
 70 70 l 1,19,-1
 50 70 l 1,20,-1
 50 80 l 1,21,-1
 70 80 l 1,22,-1
 70 90 l 1,23,-1
 50 90 l 1,24,-1
 50 100 l 1,25,-1
 70 100 l 1,26,-1
 70 120 l 1,27,-1
 80 120 l 1,28,-1
 80 100 l 1,29,-1
 100 100 l 1,30,-1
 100 80 l 1,31,-1
 110 80 l 1,32,-1
 110 70 l 1,33,-1
 80 70 l 1,34,-1
 80 60 l 1,35,-1
 100 60 l 1,36,-1
 100 0 l 1,37,-1
 60 0 l 1,38,-1
 60 40 l 1,39,-1
 40 40 l 1,40,-1
 40 30 l 1,41,-1
 50 30 l 1,42,-1
 50 20 l 1,43,-1
 40 20 l 1,44,-1
 40 10 l 1,45,-1
 30 10 l 1,46,-1
 30 70 l 1,47,-1
 20 70 l 1,48,-1
 20 0 l 1,49,-1
 10 0 l 1,50,-1
 10 70 l 1,51,-1
 0 70 l 1,0,-1
110 100 m 1,52,-1
 100 100 l 1,53,-1
 100 110 l 1,54,-1
 110 110 l 1,55,-1
 110 100 l 1,52,-1
80 90 m 1,56,-1
 80 80 l 1,57,-1
 90 80 l 1,58,-1
 90 90 l 1,59,-1
 80 90 l 1,56,-1
70 50 m 1,60,-1
 70 40 l 1,61,-1
 90 40 l 1,62,-1
 90 50 l 1,63,-1
 70 50 l 1,60,-1
70 30 m 1,64,-1
 70 10 l 1,65,-1
 90 10 l 1,66,-1
 90 30 l 1,67,-1
 70 30 l 1,64,-1
EndSplineSet
EndChar

StartChar: uni7F6E
Encoding: 32622 32622 210
Width: 120
GlyphClass: 1
Flags: W
LayerCount: 2
Fore
SplineSet
0 80 m 1,0,-1
 50 80 l 1,1,-1
 50 90 l 1,2,-1
 10 90 l 1,3,-1
 10 120 l 1,4,-1
 100 120 l 1,5,-1
 100 90 l 1,6,-1
 60 90 l 1,7,-1
 60 80 l 1,8,-1
 110 80 l 1,9,-1
 110 70 l 1,10,-1
 50 70 l 1,11,-1
 50 60 l 1,12,-1
 90 60 l 1,13,-1
 90 10 l 1,14,-1
 110 10 l 1,15,-1
 110 0 l 1,16,-1
 0 0 l 1,17,-1
 0 10 l 1,18,-1
 20 10 l 1,19,-1
 20 60 l 1,20,-1
 40 60 l 1,21,-1
 40 70 l 1,22,-1
 0 70 l 1,23,-1
 0 80 l 1,0,-1
20 100 m 1,24,-1
 40 100 l 1,25,-1
 40 110 l 1,26,-1
 20 110 l 1,27,-1
 20 100 l 1,24,-1
90 110 m 1,28,-1
 70 110 l 1,29,-1
 70 100 l 1,30,-1
 90 100 l 1,31,-1
 90 110 l 1,28,-1
50 100 m 1,32,-1
 60 100 l 1,33,-1
 60 110 l 1,34,-1
 50 110 l 1,35,-1
 50 100 l 1,32,-1
50 10 m 1,36,-1
 50 20 l 1,37,-1
 60 20 l 1,38,-1
 60 10 l 1,39,-1
 80 10 l 1,40,-1
 80 20 l 1,41,-1
 70 20 l 1,42,-1
 70 30 l 1,43,-1
 60 30 l 1,44,-1
 60 40 l 1,45,-1
 70 40 l 1,46,-1
 70 30 l 1,47,-1
 80 30 l 1,48,-1
 80 50 l 1,49,-1
 60 50 l 1,50,-1
 60 40 l 1,51,-1
 50 40 l 1,52,-1
 50 50 l 1,53,-1
 30 50 l 1,54,-1
 30 40 l 1,55,-1
 40 40 l 1,56,-1
 40 30 l 1,57,-1
 30 30 l 1,58,-1
 30 10 l 1,59,-1
 50 10 l 1,36,-1
50 30 m 1,60,-1
 50 20 l 1,61,-1
 40 20 l 1,62,-1
 40 30 l 1,63,-1
 50 30 l 1,60,-1
EndSplineSet
Substitution2: "'ss01' Style Set 1 lookup 6 subtable" uni7F6E_uniFE00
Substitution2: "'aalt' Access All Alternates lookup 0 subtable" uni7F6E_uniFE00
EndChar

StartChar: uni8BBE
Encoding: 35774 35774 211
Width: 120
GlyphClass: 1
Flags: W
LayerCount: 2
Fore
SplineSet
90 30 m 1,0,-1
 80 30 l 1,1,-1
 80 40 l 1,2,-1
 90 40 l 1,3,-1
 90 60 l 1,4,-1
 60 60 l 1,5,-1
 60 40 l 1,6,-1
 50 40 l 1,7,-1
 50 70 l 1,8,-1
 40 70 l 1,9,-1
 40 80 l 1,10,-1
 50 80 l 1,11,-1
 50 120 l 1,12,-1
 100 120 l 1,13,-1
 100 80 l 1,14,-1
 110 80 l 1,15,-1
 110 70 l 1,16,-1
 100 70 l 1,17,-1
 100 40 l 1,18,-1
 90 40 l 1,19,-1
 90 30 l 1,0,-1
10 110 m 1,20,-1
 10 120 l 1,21,-1
 20 120 l 1,22,-1
 20 110 l 1,23,-1
 30 110 l 1,24,-1
 30 90 l 1,25,-1
 20 90 l 1,26,-1
 20 110 l 1,27,-1
 10 110 l 1,20,-1
60 80 m 1,28,-1
 50 80 l 1,29,-1
 50 70 l 1,30,-1
 100 70 l 1,31,-1
 100 80 l 1,32,-1
 90 80 l 1,33,-1
 90 110 l 1,34,-1
 60 110 l 1,35,-1
 60 80 l 1,28,-1
40 20 m 1,36,-1
 40 10 l 1,37,-1
 60 10 l 1,38,-1
 60 0 l 1,39,-1
 40 0 l 1,40,-1
 40 10 l 1,41,-1
 30 10 l 1,42,-1
 30 0 l 1,43,-1
 20 0 l 1,44,-1
 20 70 l 1,45,-1
 0 70 l 1,46,-1
 0 80 l 1,47,-1
 30 80 l 1,48,-1
 30 70 l 1,49,-1
 40 70 l 1,50,-1
 40 60 l 1,51,-1
 30 60 l 1,52,-1
 30 20 l 1,53,-1
 40 20 l 1,36,-1
60 30 m 1,54,-1
 60 40 l 1,55,-1
 70 40 l 1,56,-1
 70 30 l 1,57,-1
 80 30 l 1,58,-1
 80 20 l 1,59,-1
 90 20 l 1,60,-1
 90 10 l 1,61,-1
 110 10 l 1,62,-1
 110 0 l 1,63,-1
 90 0 l 1,64,-1
 90 10 l 1,65,-1
 80 10 l 1,66,-1
 80 20 l 1,67,-1
 70 20 l 1,68,-1
 70 10 l 1,69,-1
 60 10 l 1,70,-1
 60 20 l 1,71,-1
 70 20 l 1,72,-1
 70 30 l 1,73,-1
 60 30 l 1,54,-1
50 20 m 1,74,-1
 40 20 l 1,75,-1
 40 30 l 1,76,-1
 50 30 l 1,77,-1
 50 20 l 1,74,-1
EndSplineSet
EndChar

StartChar: uni636E
Encoding: 25454 25454 212
Width: 120
GlyphClass: 1
Flags: W
LayerCount: 2
Fore
SplineSet
20 90 m 1,0,-1
 0 90 l 1,1,-1
 0 100 l 1,2,-1
 20 100 l 1,3,-1
 20 120 l 1,4,-1
 30 120 l 1,5,-1
 30 100 l 1,6,-1
 40 100 l 1,7,-1
 40 120 l 1,8,-1
 100 120 l 1,9,-1
 100 90 l 1,10,-1
 80 90 l 1,11,-1
 80 70 l 1,12,-1
 110 70 l 1,13,-1
 110 60 l 1,14,-1
 80 60 l 1,15,-1
 80 50 l 1,16,-1
 100 50 l 1,17,-1
 100 0 l 1,18,-1
 90 0 l 1,19,-1
 90 10 l 1,20,-1
 60 10 l 1,21,-1
 60 0 l 1,22,-1
 50 0 l 1,23,-1
 50 30 l 1,24,-1
 40 30 l 1,25,-1
 40 20 l 1,26,-1
 30 20 l 1,27,-1
 30 10 l 1,28,-1
 20 10 l 1,29,-1
 20 50 l 1,30,-1
 0 50 l 1,31,-1
 0 60 l 1,32,-1
 20 60 l 1,33,-1
 20 90 l 1,0,-1
50 100 m 1,34,-1
 90 100 l 1,35,-1
 90 110 l 1,36,-1
 50 110 l 1,37,-1
 50 100 l 1,34,-1
70 90 m 1,38,-1
 50 90 l 1,39,-1
 50 70 l 1,40,-1
 70 70 l 1,41,-1
 70 90 l 1,38,-1
40 90 m 1,42,-1
 30 90 l 1,43,-1
 30 70 l 1,44,-1
 40 70 l 1,45,-1
 40 90 l 1,42,-1
30 60 m 1,46,-1
 30 30 l 1,47,-1
 40 30 l 1,48,-1
 40 60 l 1,49,-1
 30 60 l 1,46,-1
70 60 m 1,50,-1
 50 60 l 1,51,-1
 50 50 l 1,52,-1
 70 50 l 1,53,-1
 70 60 l 1,50,-1
90 20 m 1,54,-1
 90 40 l 1,55,-1
 60 40 l 1,56,-1
 60 20 l 1,57,-1
 90 20 l 1,54,-1
20 10 m 1,58,-1
 20 0 l 1,59,-1
 10 0 l 1,60,-1
 10 10 l 1,61,-1
 0 10 l 1,62,-1
 0 20 l 1,63,-1
 10 20 l 1,64,-1
 10 10 l 1,65,-1
 20 10 l 1,58,-1
EndSplineSet
EndChar

StartChar: uni4F4D
Encoding: 20301 20301 213
Width: 120
GlyphClass: 1
Flags: W
LayerCount: 2
Fore
SplineSet
0 80 m 1,0,-1
 10 80 l 1,1,-1
 10 100 l 1,2,-1
 20 100 l 1,3,-1
 20 120 l 1,4,-1
 30 120 l 1,5,-1
 30 100 l 1,6,-1
 60 100 l 1,7,-1
 60 110 l 1,8,-1
 50 110 l 1,9,-1
 50 120 l 1,10,-1
 60 120 l 1,11,-1
 60 110 l 1,12,-1
 70 110 l 1,13,-1
 70 100 l 1,14,-1
 100 100 l 1,15,-1
 100 90 l 1,16,-1
 30 90 l 1,17,-1
 30 100 l 1,18,-1
 20 100 l 1,19,-1
 20 20 l 1,20,-1
 70 20 l 1,21,-1
 70 40 l 1,22,-1
 80 40 l 1,23,-1
 80 80 l 1,24,-1
 90 80 l 1,25,-1
 90 40 l 1,26,-1
 80 40 l 1,27,-1
 80 20 l 1,28,-1
 110 20 l 1,29,-1
 110 10 l 1,30,-1
 20 10 l 1,31,-1
 20 0 l 1,32,-1
 10 0 l 1,33,-1
 10 70 l 1,34,-1
 0 70 l 1,35,-1
 0 80 l 1,0,-1
40 60 m 1,36,-1
 40 80 l 1,37,-1
 50 80 l 1,38,-1
 50 60 l 1,39,-1
 60 60 l 1,40,-1
 60 30 l 1,41,-1
 50 30 l 1,42,-1
 50 60 l 1,43,-1
 40 60 l 1,36,-1
EndSplineSet
Substitution2: "'ss01' Style Set 1 lookup 6 subtable" uni4F4D_uniFE00
Substitution2: "'aalt' Access All Alternates lookup 0 subtable" uni4F4D_uniFE00
EndChar

StartChar: uni590D
Encoding: 22797 22797 214
Width: 120
GlyphClass: 1
Flags: W
LayerCount: 2
Fore
SplineSet
70 30 m 1,0,-1
 70 20 l 1,1,-1
 90 20 l 1,2,-1
 90 10 l 1,3,-1
 110 10 l 1,4,-1
 110 0 l 1,5,-1
 90 0 l 1,6,-1
 90 10 l 1,7,-1
 70 10 l 1,8,-1
 70 20 l 1,9,-1
 40 20 l 1,10,-1
 40 10 l 1,11,-1
 20 10 l 1,12,-1
 20 0 l 1,13,-1
 0 0 l 1,14,-1
 0 10 l 1,15,-1
 20 10 l 1,16,-1
 20 20 l 1,17,-1
 40 20 l 1,18,-1
 40 30 l 1,19,-1
 30 30 l 1,20,-1
 30 40 l 1,21,-1
 20 40 l 1,22,-1
 20 30 l 1,23,-1
 10 30 l 1,24,-1
 10 40 l 1,25,-1
 20 40 l 1,26,-1
 20 50 l 1,27,-1
 30 50 l 1,28,-1
 30 60 l 1,29,-1
 20 60 l 1,30,-1
 20 90 l 1,31,-1
 10 90 l 1,32,-1
 10 80 l 1,33,-1
 0 80 l 1,34,-1
 0 90 l 1,35,-1
 10 90 l 1,36,-1
 10 100 l 1,37,-1
 20 100 l 1,38,-1
 20 110 l 1,39,-1
 30 110 l 1,40,-1
 30 120 l 1,41,-1
 40 120 l 1,42,-1
 40 110 l 1,43,-1
 110 110 l 1,44,-1
 110 100 l 1,45,-1
 90 100 l 1,46,-1
 90 60 l 1,47,-1
 40 60 l 1,48,-1
 40 50 l 1,49,-1
 90 50 l 1,50,-1
 90 40 l 1,51,-1
 80 40 l 1,52,-1
 80 30 l 1,53,-1
 70 30 l 1,54,-1
 70 40 l 1,55,-1
 40 40 l 1,56,-1
 40 30 l 1,57,-1
 70 30 l 1,0,-1
80 100 m 1,58,-1
 30 100 l 1,59,-1
 30 90 l 1,60,-1
 80 90 l 1,61,-1
 80 100 l 1,58,-1
30 70 m 1,62,-1
 80 70 l 1,63,-1
 80 80 l 1,64,-1
 30 80 l 1,65,-1
 30 70 l 1,62,-1
EndSplineSet
EndChar

StartChar: uni8F93
Encoding: 36755 36755 215
Width: 120
GlyphClass: 1
Flags: W
LayerCount: 2
Fore
SplineSet
60 20 m 1,0,-1
 50 20 l 1,1,-1
 50 10 l 1,2,-1
 60 10 l 1,3,-1
 60 0 l 1,4,-1
 40 0 l 1,5,-1
 40 20 l 1,6,-1
 30 20 l 1,7,-1
 30 0 l 1,8,-1
 20 0 l 1,9,-1
 20 20 l 1,10,-1
 0 20 l 1,11,-1
 0 30 l 1,12,-1
 20 30 l 1,13,-1
 20 50 l 1,14,-1
 0 50 l 1,15,-1
 0 70 l 1,16,-1
 10 70 l 1,17,-1
 10 90 l 1,18,-1
 0 90 l 1,19,-1
 0 100 l 1,20,-1
 20 100 l 1,21,-1
 20 120 l 1,22,-1
 30 120 l 1,23,-1
 30 100 l 1,24,-1
 40 100 l 1,25,-1
 40 90 l 1,26,-1
 50 90 l 1,27,-1
 50 100 l 1,28,-1
 60 100 l 1,29,-1
 60 110 l 1,30,-1
 70 110 l 1,31,-1
 70 120 l 1,32,-1
 80 120 l 1,33,-1
 80 110 l 1,34,-1
 90 110 l 1,35,-1
 90 100 l 1,36,-1
 100 100 l 1,37,-1
 100 90 l 1,38,-1
 110 90 l 1,39,-1
 110 80 l 1,40,-1
 100 80 l 1,41,-1
 100 90 l 1,42,-1
 90 90 l 1,43,-1
 90 80 l 1,44,-1
 60 80 l 1,45,-1
 60 90 l 1,46,-1
 50 90 l 1,47,-1
 50 80 l 1,48,-1
 40 80 l 1,49,-1
 40 90 l 1,50,-1
 20 90 l 1,51,-1
 20 80 l 1,52,-1
 30 80 l 1,53,-1
 30 60 l 1,54,-1
 40 60 l 1,55,-1
 40 70 l 1,56,-1
 70 70 l 1,57,-1
 70 10 l 1,58,-1
 60 10 l 1,59,-1
 60 20 l 1,0,-1
70 100 m 1,60,-1
 60 100 l 1,61,-1
 60 90 l 1,62,-1
 90 90 l 1,63,-1
 90 100 l 1,64,-1
 80 100 l 1,65,-1
 80 110 l 1,66,-1
 70 110 l 1,67,-1
 70 100 l 1,60,-1
20 60 m 1,68,-1
 20 70 l 1,69,-1
 10 70 l 1,70,-1
 10 60 l 1,71,-1
 20 60 l 1,68,-1
90 30 m 1,72,-1
 80 30 l 1,73,-1
 80 70 l 1,74,-1
 90 70 l 1,75,-1
 90 30 l 1,72,-1
110 10 m 1,76,-1
 100 10 l 1,77,-1
 100 70 l 1,78,-1
 110 70 l 1,79,-1
 110 10 l 1,76,-1
60 50 m 1,80,-1
 60 60 l 1,81,-1
 50 60 l 1,82,-1
 50 50 l 1,83,-1
 60 50 l 1,80,-1
30 50 m 1,84,-1
 30 30 l 1,85,-1
 40 30 l 1,86,-1
 40 50 l 1,87,-1
 30 50 l 1,84,-1
60 30 m 1,88,-1
 60 40 l 1,89,-1
 50 40 l 1,90,-1
 50 30 l 1,91,-1
 60 30 l 1,88,-1
100 10 m 1,92,-1
 100 0 l 1,93,-1
 90 0 l 1,94,-1
 90 10 l 1,95,-1
 80 10 l 1,96,-1
 80 20 l 1,97,-1
 90 20 l 1,98,-1
 90 10 l 1,99,-1
 100 10 l 1,92,-1
EndSplineSet
EndChar

StartChar: uni5165
Encoding: 20837 20837 216
Width: 120
GlyphClass: 1
Flags: W
LayerCount: 2
Fore
SplineSet
0 10 m 1,0,-1
 10 10 l 1,1,-1
 10 20 l 1,2,-1
 20 20 l 1,3,-1
 20 30 l 1,4,-1
 30 30 l 1,5,-1
 30 50 l 1,6,-1
 40 50 l 1,7,-1
 40 70 l 1,8,-1
 50 70 l 1,9,-1
 50 110 l 1,10,-1
 30 110 l 1,11,-1
 30 120 l 1,12,-1
 50 120 l 1,13,-1
 50 110 l 1,14,-1
 60 110 l 1,15,-1
 60 70 l 1,16,-1
 70 70 l 1,17,-1
 70 50 l 1,18,-1
 80 50 l 1,19,-1
 80 30 l 1,20,-1
 90 30 l 1,21,-1
 90 20 l 1,22,-1
 100 20 l 1,23,-1
 100 10 l 1,24,-1
 110 10 l 1,25,-1
 110 0 l 1,26,-1
 100 0 l 1,27,-1
 100 10 l 1,28,-1
 90 10 l 1,29,-1
 90 20 l 1,30,-1
 80 20 l 1,31,-1
 80 30 l 1,32,-1
 70 30 l 1,33,-1
 70 50 l 1,34,-1
 60 50 l 1,35,-1
 60 70 l 1,36,-1
 50 70 l 1,37,-1
 50 50 l 1,38,-1
 40 50 l 1,39,-1
 40 30 l 1,40,-1
 30 30 l 1,41,-1
 30 20 l 1,42,-1
 20 20 l 1,43,-1
 20 10 l 1,44,-1
 10 10 l 1,45,-1
 10 0 l 1,46,-1
 0 0 l 1,47,-1
 0 10 l 1,0,-1
EndSplineSet
Substitution2: "'ss01' Style Set 1 lookup 6 subtable" uni5165_uniFE00
Substitution2: "'aalt' Access All Alternates lookup 0 subtable" uni5165_uniFE00
EndChar

StartChar: uni51FA
Encoding: 20986 20986 217
Width: 120
GlyphClass: 1
Flags: W
LayerCount: 2
Fore
SplineSet
0 50 m 1,0,-1
 10 50 l 1,1,-1
 10 20 l 1,2,-1
 50 20 l 1,3,-1
 50 70 l 1,4,-1
 10 70 l 1,5,-1
 10 110 l 1,6,-1
 20 110 l 1,7,-1
 20 80 l 1,8,-1
 50 80 l 1,9,-1
 50 120 l 1,10,-1
 60 120 l 1,11,-1
 60 80 l 1,12,-1
 90 80 l 1,13,-1
 90 110 l 1,14,-1
 100 110 l 1,15,-1
 100 60 l 1,16,-1
 90 60 l 1,17,-1
 90 70 l 1,18,-1
 60 70 l 1,19,-1
 60 20 l 1,20,-1
 100 20 l 1,21,-1
 100 50 l 1,22,-1
 110 50 l 1,23,-1
 110 0 l 1,24,-1
 100 0 l 1,25,-1
 100 10 l 1,26,-1
 0 10 l 1,27,-1
 0 50 l 1,0,-1
EndSplineSet
Substitution2: "'ss01' Style Set 1 lookup 6 subtable" uni51FA_uniFE00
Substitution2: "'aalt' Access All Alternates lookup 0 subtable" uni51FA_uniFE00
EndChar

StartChar: uni89D2
Encoding: 35282 35282 218
Width: 120
GlyphClass: 1
Flags: W
LayerCount: 2
Fore
SplineSet
0 70 m 1,0,-1
 10 70 l 1,1,-1
 10 80 l 1,2,-1
 20 80 l 1,3,-1
 20 100 l 1,4,-1
 30 100 l 1,5,-1
 30 120 l 1,6,-1
 40 120 l 1,7,-1
 40 110 l 1,8,-1
 90 110 l 1,9,-1
 90 100 l 1,10,-1
 80 100 l 1,11,-1
 80 90 l 1,12,-1
 110 90 l 1,13,-1
 110 10 l 1,14,-1
 100 10 l 1,15,-1
 100 30 l 1,16,-1
 70 30 l 1,17,-1
 70 0 l 1,18,-1
 60 0 l 1,19,-1
 60 30 l 1,20,-1
 20 30 l 1,21,-1
 20 10 l 1,22,-1
 10 10 l 1,23,-1
 10 0 l 1,24,-1
 0 0 l 1,25,-1
 0 10 l 1,26,-1
 10 10 l 1,27,-1
 10 30 l 1,28,-1
 20 30 l 1,29,-1
 20 70 l 1,30,-1
 10 70 l 1,31,-1
 10 60 l 1,32,-1
 0 60 l 1,33,-1
 0 70 l 1,0,-1
30 90 m 1,34,-1
 70 90 l 1,35,-1
 70 100 l 1,36,-1
 30 100 l 1,37,-1
 30 90 l 1,34,-1
70 70 m 1,38,-1
 100 70 l 1,39,-1
 100 80 l 1,40,-1
 70 80 l 1,41,-1
 70 70 l 1,38,-1
30 80 m 1,42,-1
 30 70 l 1,43,-1
 60 70 l 1,44,-1
 60 80 l 1,45,-1
 30 80 l 1,42,-1
30 40 m 1,46,-1
 60 40 l 1,47,-1
 60 60 l 1,48,-1
 30 60 l 1,49,-1
 30 40 l 1,46,-1
70 60 m 1,50,-1
 70 40 l 1,51,-1
 100 40 l 1,52,-1
 100 60 l 1,53,-1
 70 60 l 1,50,-1
100 10 m 1,54,-1
 100 0 l 1,55,-1
 90 0 l 1,56,-1
 90 10 l 1,57,-1
 80 10 l 1,58,-1
 80 20 l 1,59,-1
 90 20 l 1,60,-1
 90 10 l 1,61,-1
 100 10 l 1,54,-1
EndSplineSet
Substitution2: "'ss01' Style Set 1 lookup 6 subtable" uni89D2_uniFE00
Substitution2: "'aalt' Access All Alternates lookup 0 subtable" uni89D2_uniFE00
EndChar

StartChar: uni5355
Encoding: 21333 21333 219
Width: 120
GlyphClass: 1
Flags: W
LayerCount: 2
Fore
SplineSet
0 40 m 1,0,-1
 50 40 l 1,1,-1
 50 50 l 1,2,-1
 10 50 l 1,3,-1
 10 100 l 1,4,-1
 30 100 l 1,5,-1
 30 110 l 1,6,-1
 20 110 l 1,7,-1
 20 120 l 1,8,-1
 30 120 l 1,9,-1
 30 110 l 1,10,-1
 40 110 l 1,11,-1
 40 100 l 1,12,-1
 70 100 l 1,13,-1
 70 110 l 1,14,-1
 80 110 l 1,15,-1
 80 120 l 1,16,-1
 90 120 l 1,17,-1
 90 110 l 1,18,-1
 80 110 l 1,19,-1
 80 100 l 1,20,-1
 100 100 l 1,21,-1
 100 50 l 1,22,-1
 60 50 l 1,23,-1
 60 40 l 1,24,-1
 110 40 l 1,25,-1
 110 30 l 1,26,-1
 60 30 l 1,27,-1
 60 0 l 1,28,-1
 50 0 l 1,29,-1
 50 30 l 1,30,-1
 0 30 l 1,31,-1
 0 40 l 1,0,-1
90 90 m 1,32,-1
 60 90 l 1,33,-1
 60 80 l 1,34,-1
 90 80 l 1,35,-1
 90 90 l 1,32,-1
20 80 m 1,36,-1
 50 80 l 1,37,-1
 50 90 l 1,38,-1
 20 90 l 1,39,-1
 20 80 l 1,36,-1
60 60 m 1,40,-1
 90 60 l 1,41,-1
 90 70 l 1,42,-1
 60 70 l 1,43,-1
 60 60 l 1,40,-1
20 60 m 1,44,-1
 50 60 l 1,45,-1
 50 70 l 1,46,-1
 20 70 l 1,47,-1
 20 60 l 1,44,-1
EndSplineSet
EndChar

StartChar: uni5EA6
Encoding: 24230 24230 220
Width: 120
GlyphClass: 1
Flags: W
LayerCount: 2
Fore
SplineSet
0 10 m 1,0,-1
 0 20 l 1,1,-1
 10 20 l 1,2,-1
 10 110 l 1,3,-1
 60 110 l 1,4,-1
 60 120 l 1,5,-1
 70 120 l 1,6,-1
 70 110 l 1,7,-1
 110 110 l 1,8,-1
 110 100 l 1,9,-1
 90 100 l 1,10,-1
 90 90 l 1,11,-1
 110 90 l 1,12,-1
 110 80 l 1,13,-1
 90 80 l 1,14,-1
 90 60 l 1,15,-1
 40 60 l 1,16,-1
 40 80 l 1,17,-1
 20 80 l 1,18,-1
 20 20 l 1,19,-1
 10 20 l 1,20,-1
 10 10 l 1,21,-1
 0 10 l 1,0,-1
80 100 m 1,22,-1
 50 100 l 1,23,-1
 50 90 l 1,24,-1
 80 90 l 1,25,-1
 80 100 l 1,22,-1
40 100 m 1,26,-1
 20 100 l 1,27,-1
 20 90 l 1,28,-1
 40 90 l 1,29,-1
 40 100 l 1,26,-1
50 80 m 1,30,-1
 50 70 l 1,31,-1
 80 70 l 1,32,-1
 80 80 l 1,33,-1
 50 80 l 1,30,-1
50 0 m 1,34,-1
 20 0 l 1,35,-1
 20 10 l 1,36,-1
 50 10 l 1,37,-1
 50 30 l 1,38,-1
 40 30 l 1,39,-1
 40 40 l 1,40,-1
 30 40 l 1,41,-1
 30 50 l 1,42,-1
 100 50 l 1,43,-1
 100 40 l 1,44,-1
 90 40 l 1,45,-1
 90 30 l 1,46,-1
 80 30 l 1,47,-1
 80 10 l 1,48,-1
 110 10 l 1,49,-1
 110 0 l 1,50,-1
 80 0 l 1,51,-1
 80 10 l 1,52,-1
 50 10 l 1,53,-1
 50 0 l 1,34,-1
50 40 m 1,54,-1
 50 30 l 1,55,-1
 60 30 l 1,56,-1
 60 20 l 1,57,-1
 70 20 l 1,58,-1
 70 30 l 1,59,-1
 80 30 l 1,60,-1
 80 40 l 1,61,-1
 50 40 l 1,54,-1
EndSplineSet
Substitution2: "'ss01' Style Set 1 lookup 6 subtable" uni5EA6_uniFE00
Substitution2: "'aalt' Access All Alternates lookup 0 subtable" uni5EA6_uniFE00
EndChar

StartChar: uni663E
Encoding: 26174 26174 221
Width: 120
GlyphClass: 1
Flags: W
LayerCount: 2
Fore
SplineSet
0 0 m 1,0,-1
 0 10 l 1,1,-1
 40 10 l 1,2,-1
 40 60 l 1,3,-1
 20 60 l 1,4,-1
 20 120 l 1,5,-1
 90 120 l 1,6,-1
 90 60 l 1,7,-1
 70 60 l 1,8,-1
 70 20 l 1,9,-1
 80 20 l 1,10,-1
 80 10 l 1,11,-1
 110 10 l 1,12,-1
 110 0 l 1,13,-1
 0 0 l 1,0,-1
30 110 m 1,14,-1
 30 100 l 1,15,-1
 80 100 l 1,16,-1
 80 110 l 1,17,-1
 30 110 l 1,14,-1
80 90 m 1,18,-1
 30 90 l 1,19,-1
 30 70 l 1,20,-1
 80 70 l 1,21,-1
 80 90 l 1,18,-1
60 60 m 1,22,-1
 50 60 l 1,23,-1
 50 10 l 1,24,-1
 60 10 l 1,25,-1
 60 60 l 1,22,-1
90 20 m 1,26,-1
 80 20 l 1,27,-1
 80 30 l 1,28,-1
 90 30 l 1,29,-1
 90 50 l 1,30,-1
 100 50 l 1,31,-1
 100 30 l 1,32,-1
 90 30 l 1,33,-1
 90 20 l 1,26,-1
10 40 m 1,34,-1
 10 50 l 1,35,-1
 20 50 l 1,36,-1
 20 40 l 1,37,-1
 30 40 l 1,38,-1
 30 20 l 1,39,-1
 20 20 l 1,40,-1
 20 40 l 1,41,-1
 10 40 l 1,34,-1
EndSplineSet
EndChar

StartChar: uni793A
Encoding: 31034 31034 222
Width: 120
GlyphClass: 1
Flags: W
LayerCount: 2
Fore
SplineSet
10 120 m 1,0,-1
 100 120 l 1,1,-1
 100 110 l 1,2,-1
 10 110 l 1,3,-1
 10 120 l 1,0,-1
0 80 m 1,4,-1
 110 80 l 1,5,-1
 110 70 l 1,6,-1
 60 70 l 1,7,-1
 60 10 l 1,8,-1
 50 10 l 1,9,-1
 50 70 l 1,10,-1
 0 70 l 1,11,-1
 0 80 l 1,4,-1
90 50 m 1,12,-1
 80 50 l 1,13,-1
 80 60 l 1,14,-1
 90 60 l 1,15,-1
 90 50 l 1,16,-1
 100 50 l 1,17,-1
 100 40 l 1,18,-1
 110 40 l 1,19,-1
 110 20 l 1,20,-1
 100 20 l 1,21,-1
 100 40 l 1,22,-1
 90 40 l 1,23,-1
 90 50 l 1,12,-1
0 20 m 1,24,-1
 0 30 l 1,25,-1
 10 30 l 1,26,-1
 10 40 l 1,27,-1
 20 40 l 1,28,-1
 20 50 l 1,29,-1
 30 50 l 1,30,-1
 30 60 l 1,31,-1
 40 60 l 1,32,-1
 40 50 l 1,33,-1
 30 50 l 1,34,-1
 30 40 l 1,35,-1
 20 40 l 1,36,-1
 20 30 l 1,37,-1
 10 30 l 1,38,-1
 10 20 l 1,39,-1
 0 20 l 1,24,-1
50 10 m 1,40,-1
 50 0 l 1,41,-1
 40 0 l 1,42,-1
 40 10 l 1,43,-1
 30 10 l 1,44,-1
 30 20 l 1,45,-1
 40 20 l 1,46,-1
 40 10 l 1,47,-1
 50 10 l 1,40,-1
EndSplineSet
Substitution2: "'ss01' Style Set 1 lookup 6 subtable" uni793A_uniFE00
Substitution2: "'aalt' Access All Alternates lookup 0 subtable" uni793A_uniFE00
EndChar

StartChar: uni683C
Encoding: 26684 26684 223
Width: 120
GlyphClass: 1
Flags: W
LayerCount: 2
Fore
SplineSet
90 80 m 1,0,-1
 80 80 l 1,1,-1
 80 90 l 1,2,-1
 90 90 l 1,3,-1
 90 100 l 1,4,-1
 60 100 l 1,5,-1
 60 90 l 1,6,-1
 50 90 l 1,7,-1
 50 100 l 1,8,-1
 60 100 l 1,9,-1
 60 120 l 1,10,-1
 70 120 l 1,11,-1
 70 110 l 1,12,-1
 100 110 l 1,13,-1
 100 90 l 1,14,-1
 90 90 l 1,15,-1
 90 80 l 1,0,-1
10 40 m 1,16,-1
 0 40 l 1,17,-1
 0 50 l 1,18,-1
 10 50 l 1,19,-1
 10 70 l 1,20,-1
 20 70 l 1,21,-1
 20 80 l 1,22,-1
 0 80 l 1,23,-1
 0 90 l 1,24,-1
 20 90 l 1,25,-1
 20 120 l 1,26,-1
 30 120 l 1,27,-1
 30 90 l 1,28,-1
 50 90 l 1,29,-1
 50 80 l 1,30,-1
 30 80 l 1,31,-1
 30 60 l 1,32,-1
 40 60 l 1,33,-1
 40 50 l 1,34,-1
 50 50 l 1,35,-1
 50 60 l 1,36,-1
 60 60 l 1,37,-1
 60 50 l 1,38,-1
 90 50 l 1,39,-1
 90 60 l 1,40,-1
 80 60 l 1,41,-1
 80 70 l 1,42,-1
 70 70 l 1,43,-1
 70 80 l 1,44,-1
 60 80 l 1,45,-1
 60 90 l 1,46,-1
 70 90 l 1,47,-1
 70 80 l 1,48,-1
 80 80 l 1,49,-1
 80 70 l 1,50,-1
 90 70 l 1,51,-1
 90 60 l 1,52,-1
 110 60 l 1,53,-1
 110 50 l 1,54,-1
 100 50 l 1,55,-1
 100 0 l 1,56,-1
 90 0 l 1,57,-1
 90 10 l 1,58,-1
 60 10 l 1,59,-1
 60 0 l 1,60,-1
 50 0 l 1,61,-1
 50 40 l 1,62,-1
 40 40 l 1,63,-1
 40 50 l 1,64,-1
 30 50 l 1,65,-1
 30 0 l 1,66,-1
 20 0 l 1,67,-1
 20 50 l 1,68,-1
 10 50 l 1,69,-1
 10 40 l 1,16,-1
60 60 m 1,70,-1
 60 70 l 1,71,-1
 70 70 l 1,72,-1
 70 60 l 1,73,-1
 60 60 l 1,70,-1
90 40 m 1,74,-1
 60 40 l 1,75,-1
 60 20 l 1,76,-1
 90 20 l 1,77,-1
 90 40 l 1,74,-1
EndSplineSet
EndChar

StartChar: uni5F0F
Encoding: 24335 24335 224
Width: 120
GlyphClass: 1
Flags: W
LayerCount: 2
Fore
SplineSet
0 100 m 1,0,-1
 60 100 l 1,1,-1
 60 120 l 1,2,-1
 70 120 l 1,3,-1
 70 100 l 1,4,-1
 90 100 l 1,5,-1
 90 110 l 1,6,-1
 80 110 l 1,7,-1
 80 120 l 1,8,-1
 90 120 l 1,9,-1
 90 110 l 1,10,-1
 100 110 l 1,11,-1
 100 100 l 1,12,-1
 110 100 l 1,13,-1
 110 90 l 1,14,-1
 70 90 l 1,15,-1
 70 50 l 1,16,-1
 80 50 l 1,17,-1
 80 30 l 1,18,-1
 90 30 l 1,19,-1
 90 20 l 1,20,-1
 100 20 l 1,21,-1
 100 40 l 1,22,-1
 110 40 l 1,23,-1
 110 0 l 1,24,-1
 100 0 l 1,25,-1
 100 10 l 1,26,-1
 90 10 l 1,27,-1
 90 20 l 1,28,-1
 80 20 l 1,29,-1
 80 30 l 1,30,-1
 70 30 l 1,31,-1
 70 20 l 1,32,-1
 30 20 l 1,33,-1
 30 10 l 1,34,-1
 0 10 l 1,35,-1
 0 20 l 1,36,-1
 30 20 l 1,37,-1
 30 60 l 1,38,-1
 10 60 l 1,39,-1
 10 70 l 1,40,-1
 60 70 l 1,41,-1
 60 90 l 1,42,-1
 0 90 l 1,43,-1
 0 100 l 1,0,-1
70 30 m 1,44,-1
 70 50 l 1,45,-1
 60 50 l 1,46,-1
 60 60 l 1,47,-1
 40 60 l 1,48,-1
 40 30 l 1,49,-1
 70 30 l 1,44,-1
EndSplineSet
Substitution2: "'ss01' Style Set 1 lookup 6 subtable" uni5F0F_uniFE00
Substitution2: "'aalt' Access All Alternates lookup 0 subtable" uni5F0F_uniFE00
EndChar

StartChar: uni53F7
Encoding: 21495 21495 225
Width: 120
GlyphClass: 1
Flags: W
LayerCount: 2
Fore
SplineSet
20 120 m 1,0,-1
 90 120 l 1,1,-1
 90 80 l 1,2,-1
 20 80 l 1,3,-1
 20 120 l 1,0,-1
30 110 m 1,4,-1
 30 90 l 1,5,-1
 80 90 l 1,6,-1
 80 110 l 1,7,-1
 30 110 l 1,4,-1
0 70 m 1,8,-1
 110 70 l 1,9,-1
 110 60 l 1,10,-1
 40 60 l 1,11,-1
 40 50 l 1,12,-1
 90 50 l 1,13,-1
 90 20 l 1,14,-1
 80 20 l 1,15,-1
 80 10 l 1,16,-1
 70 10 l 1,17,-1
 70 20 l 1,18,-1
 80 20 l 1,19,-1
 80 40 l 1,20,-1
 20 40 l 1,21,-1
 20 50 l 1,22,-1
 30 50 l 1,23,-1
 30 60 l 1,24,-1
 0 60 l 1,25,-1
 0 70 l 1,8,-1
70 10 m 1,26,-1
 70 0 l 1,27,-1
 60 0 l 1,28,-1
 60 10 l 1,29,-1
 50 10 l 1,30,-1
 50 20 l 1,31,-1
 60 20 l 1,32,-1
 60 10 l 1,33,-1
 70 10 l 1,26,-1
EndSplineSet
Substitution2: "'ss01' Style Set 1 lookup 6 subtable" uni53F7_uniFE00
Substitution2: "'aalt' Access All Alternates lookup 0 subtable" uni53F7_uniFE00
EndChar

StartChar: uni7B26
Encoding: 31526 31526 226
Width: 120
GlyphClass: 1
Flags: W
LayerCount: 2
Fore
SplineSet
0 80 m 1,0,-1
 0 90 l 1,1,-1
 10 90 l 1,2,-1
 10 100 l 1,3,-1
 20 100 l 1,4,-1
 20 120 l 1,5,-1
 30 120 l 1,6,-1
 30 110 l 1,7,-1
 60 110 l 1,8,-1
 60 100 l 1,9,-1
 70 100 l 1,10,-1
 70 120 l 1,11,-1
 80 120 l 1,12,-1
 80 110 l 1,13,-1
 110 110 l 1,14,-1
 110 100 l 1,15,-1
 100 100 l 1,16,-1
 100 90 l 1,17,-1
 90 90 l 1,18,-1
 90 70 l 1,19,-1
 110 70 l 1,20,-1
 110 60 l 1,21,-1
 90 60 l 1,22,-1
 90 10 l 1,23,-1
 80 10 l 1,24,-1
 80 60 l 1,25,-1
 40 60 l 1,26,-1
 40 70 l 1,27,-1
 80 70 l 1,28,-1
 80 90 l 1,29,-1
 90 90 l 1,30,-1
 90 100 l 1,31,-1
 70 100 l 1,32,-1
 70 90 l 1,33,-1
 60 90 l 1,34,-1
 60 80 l 1,35,-1
 50 80 l 1,36,-1
 50 90 l 1,37,-1
 60 90 l 1,38,-1
 60 100 l 1,39,-1
 40 100 l 1,40,-1
 40 80 l 1,41,-1
 30 80 l 1,42,-1
 30 0 l 1,43,-1
 20 0 l 1,44,-1
 20 50 l 1,45,-1
 10 50 l 1,46,-1
 10 40 l 1,47,-1
 0 40 l 1,48,-1
 0 50 l 1,49,-1
 10 50 l 1,50,-1
 10 60 l 1,51,-1
 20 60 l 1,52,-1
 20 80 l 1,53,-1
 30 80 l 1,54,-1
 30 100 l 1,55,-1
 20 100 l 1,56,-1
 20 90 l 1,57,-1
 10 90 l 1,58,-1
 10 80 l 1,59,-1
 0 80 l 1,0,-1
40 40 m 1,60,-1
 40 50 l 1,61,-1
 50 50 l 1,62,-1
 50 40 l 1,63,-1
 60 40 l 1,64,-1
 60 30 l 1,65,-1
 50 30 l 1,66,-1
 50 40 l 1,67,-1
 40 40 l 1,60,-1
80 10 m 1,68,-1
 80 0 l 1,69,-1
 70 0 l 1,70,-1
 70 10 l 1,71,-1
 60 10 l 1,72,-1
 60 20 l 1,73,-1
 70 20 l 1,74,-1
 70 10 l 1,75,-1
 80 10 l 1,68,-1
EndSplineSet
EndChar

StartChar: uni7A0B
Encoding: 31243 31243 227
Width: 120
GlyphClass: 1
Flags: W
LayerCount: 2
Fore
SplineSet
10 40 m 1,0,-1
 0 40 l 1,1,-1
 0 50 l 1,2,-1
 10 50 l 1,3,-1
 10 70 l 1,4,-1
 20 70 l 1,5,-1
 20 80 l 1,6,-1
 0 80 l 1,7,-1
 0 90 l 1,8,-1
 20 90 l 1,9,-1
 20 100 l 1,10,-1
 0 100 l 1,11,-1
 0 110 l 1,12,-1
 20 110 l 1,13,-1
 20 120 l 1,14,-1
 40 120 l 1,15,-1
 40 110 l 1,16,-1
 30 110 l 1,17,-1
 30 90 l 1,18,-1
 40 90 l 1,19,-1
 40 80 l 1,20,-1
 30 80 l 1,21,-1
 30 60 l 1,22,-1
 40 60 l 1,23,-1
 40 70 l 1,24,-1
 110 70 l 1,25,-1
 110 60 l 1,26,-1
 80 60 l 1,27,-1
 80 50 l 1,28,-1
 100 50 l 1,29,-1
 100 40 l 1,30,-1
 80 40 l 1,31,-1
 80 20 l 1,32,-1
 110 20 l 1,33,-1
 110 10 l 1,34,-1
 40 10 l 1,35,-1
 40 20 l 1,36,-1
 70 20 l 1,37,-1
 70 40 l 1,38,-1
 50 40 l 1,39,-1
 50 50 l 1,40,-1
 70 50 l 1,41,-1
 70 60 l 1,42,-1
 40 60 l 1,43,-1
 40 50 l 1,44,-1
 30 50 l 1,45,-1
 30 0 l 1,46,-1
 20 0 l 1,47,-1
 20 50 l 1,48,-1
 10 50 l 1,49,-1
 10 40 l 1,0,-1
50 80 m 1,50,-1
 50 120 l 1,51,-1
 100 120 l 1,52,-1
 100 80 l 1,53,-1
 50 80 l 1,50,-1
60 90 m 1,54,-1
 90 90 l 1,55,-1
 90 110 l 1,56,-1
 60 110 l 1,57,-1
 60 90 l 1,54,-1
EndSplineSet
Substitution2: "'ss01' Style Set 1 lookup 6 subtable" uni7A0B_uniFE00
Substitution2: "'aalt' Access All Alternates lookup 0 subtable" uni7A0B_uniFE00
EndChar

StartChar: uni5DE5
Encoding: 24037 24037 228
Width: 120
GlyphClass: 1
Flags: W
LayerCount: 2
Fore
SplineSet
0 0 m 1,0,-1
 0 10 l 1,1,-1
 50 10 l 1,2,-1
 50 100 l 1,3,-1
 10 100 l 1,4,-1
 10 110 l 1,5,-1
 100 110 l 1,6,-1
 100 100 l 1,7,-1
 60 100 l 1,8,-1
 60 10 l 1,9,-1
 110 10 l 1,10,-1
 110 0 l 1,11,-1
 0 0 l 1,0,-1
EndSplineSet
EndChar

StartChar: uni6027
Encoding: 24615 24615 229
Width: 120
GlyphClass: 1
Flags: W
LayerCount: 2
Fore
SplineSet
30 0 m 1,0,-1
 20 0 l 1,1,-1
 20 120 l 1,2,-1
 30 120 l 1,3,-1
 30 80 l 1,4,-1
 40 80 l 1,5,-1
 40 110 l 1,6,-1
 50 110 l 1,7,-1
 50 90 l 1,8,-1
 70 90 l 1,9,-1
 70 120 l 1,10,-1
 80 120 l 1,11,-1
 80 90 l 1,12,-1
 110 90 l 1,13,-1
 110 80 l 1,14,-1
 80 80 l 1,15,-1
 80 60 l 1,16,-1
 100 60 l 1,17,-1
 100 50 l 1,18,-1
 80 50 l 1,19,-1
 80 20 l 1,20,-1
 110 20 l 1,21,-1
 110 10 l 1,22,-1
 40 10 l 1,23,-1
 40 20 l 1,24,-1
 70 20 l 1,25,-1
 70 50 l 1,26,-1
 50 50 l 1,27,-1
 50 60 l 1,28,-1
 70 60 l 1,29,-1
 70 80 l 1,30,-1
 40 80 l 1,31,-1
 40 70 l 1,32,-1
 30 70 l 1,33,-1
 30 0 l 1,0,-1
0 60 m 1,34,-1
 0 90 l 1,35,-1
 10 90 l 1,36,-1
 10 60 l 1,37,-1
 0 60 l 1,34,-1
EndSplineSet
EndChar

StartChar: uni7EBF
Encoding: 32447 32447 230
Width: 120
GlyphClass: 1
Flags: W
LayerCount: 2
Fore
SplineSet
70 40 m 1,0,-1
 40 40 l 1,1,-1
 40 50 l 1,2,-1
 30 50 l 1,3,-1
 30 40 l 1,4,-1
 0 40 l 1,5,-1
 0 60 l 1,6,-1
 10 60 l 1,7,-1
 10 70 l 1,8,-1
 0 70 l 1,9,-1
 0 90 l 1,10,-1
 10 90 l 1,11,-1
 10 100 l 1,12,-1
 20 100 l 1,13,-1
 20 120 l 1,14,-1
 30 120 l 1,15,-1
 30 100 l 1,16,-1
 40 100 l 1,17,-1
 40 80 l 1,18,-1
 60 80 l 1,19,-1
 60 120 l 1,20,-1
 70 120 l 1,21,-1
 70 90 l 1,22,-1
 90 90 l 1,23,-1
 90 80 l 1,24,-1
 70 80 l 1,25,-1
 70 60 l 1,26,-1
 90 60 l 1,27,-1
 90 50 l 1,28,-1
 100 50 l 1,29,-1
 100 40 l 1,30,-1
 90 40 l 1,31,-1
 90 50 l 1,32,-1
 70 50 l 1,33,-1
 70 40 l 1,34,-1
 90 40 l 1,35,-1
 90 30 l 1,36,-1
 80 30 l 1,37,-1
 80 20 l 1,38,-1
 90 20 l 1,39,-1
 90 10 l 1,40,-1
 100 10 l 1,41,-1
 100 30 l 1,42,-1
 110 30 l 1,43,-1
 110 0 l 1,44,-1
 90 0 l 1,45,-1
 90 10 l 1,46,-1
 80 10 l 1,47,-1
 80 20 l 1,48,-1
 70 20 l 1,49,-1
 70 10 l 1,50,-1
 50 10 l 1,51,-1
 50 0 l 1,52,-1
 30 0 l 1,53,-1
 30 10 l 1,54,-1
 50 10 l 1,55,-1
 50 20 l 1,56,-1
 70 20 l 1,57,-1
 70 40 l 1,0,-1
100 90 m 1,58,-1
 90 90 l 1,59,-1
 90 110 l 1,60,-1
 80 110 l 1,61,-1
 80 120 l 1,62,-1
 90 120 l 1,63,-1
 90 110 l 1,64,-1
 100 110 l 1,65,-1
 100 90 l 1,58,-1
10 80 m 1,66,-1
 30 80 l 1,67,-1
 30 70 l 1,68,-1
 20 70 l 1,69,-1
 20 60 l 1,70,-1
 10 60 l 1,71,-1
 10 50 l 1,72,-1
 30 50 l 1,73,-1
 30 60 l 1,74,-1
 40 60 l 1,75,-1
 40 50 l 1,76,-1
 60 50 l 1,77,-1
 60 70 l 1,78,-1
 40 70 l 1,79,-1
 40 80 l 1,80,-1
 30 80 l 1,81,-1
 30 100 l 1,82,-1
 20 100 l 1,83,-1
 20 90 l 1,84,-1
 10 90 l 1,85,-1
 10 80 l 1,66,-1
110 60 m 1,86,-1
 90 60 l 1,87,-1
 90 70 l 1,88,-1
 110 70 l 1,89,-1
 110 60 l 1,86,-1
0 10 m 1,90,-1
 0 20 l 1,91,-1
 20 20 l 1,92,-1
 20 30 l 1,93,-1
 40 30 l 1,94,-1
 40 20 l 1,95,-1
 20 20 l 1,96,-1
 20 10 l 1,97,-1
 0 10 l 1,90,-1
EndSplineSet
EndChar

StartChar: uni5B66
Encoding: 23398 23398 231
Width: 120
GlyphClass: 1
Flags: W
LayerCount: 2
Fore
SplineSet
10 70 m 1,0,-1
 0 70 l 1,1,-1
 0 100 l 1,2,-1
 20 100 l 1,3,-1
 20 110 l 1,4,-1
 10 110 l 1,5,-1
 10 120 l 1,6,-1
 20 120 l 1,7,-1
 20 110 l 1,8,-1
 30 110 l 1,9,-1
 30 100 l 1,10,-1
 50 100 l 1,11,-1
 50 110 l 1,12,-1
 40 110 l 1,13,-1
 40 120 l 1,14,-1
 50 120 l 1,15,-1
 50 110 l 1,16,-1
 60 110 l 1,17,-1
 60 100 l 1,18,-1
 80 100 l 1,19,-1
 80 110 l 1,20,-1
 90 110 l 1,21,-1
 90 120 l 1,22,-1
 100 120 l 1,23,-1
 100 110 l 1,24,-1
 90 110 l 1,25,-1
 90 100 l 1,26,-1
 110 100 l 1,27,-1
 110 70 l 1,28,-1
 100 70 l 1,29,-1
 100 90 l 1,30,-1
 10 90 l 1,31,-1
 10 70 l 1,0,-1
0 40 m 1,32,-1
 0 50 l 1,33,-1
 60 50 l 1,34,-1
 60 60 l 1,35,-1
 70 60 l 1,36,-1
 70 70 l 1,37,-1
 20 70 l 1,38,-1
 20 80 l 1,39,-1
 90 80 l 1,40,-1
 90 70 l 1,41,-1
 80 70 l 1,42,-1
 80 60 l 1,43,-1
 70 60 l 1,44,-1
 70 50 l 1,45,-1
 110 50 l 1,46,-1
 110 40 l 1,47,-1
 60 40 l 1,48,-1
 60 10 l 1,49,-1
 50 10 l 1,50,-1
 50 40 l 1,51,-1
 0 40 l 1,32,-1
50 10 m 1,52,-1
 50 0 l 1,53,-1
 40 0 l 1,54,-1
 40 10 l 1,55,-1
 30 10 l 1,56,-1
 30 20 l 1,57,-1
 40 20 l 1,58,-1
 40 10 l 1,59,-1
 50 10 l 1,52,-1
EndSplineSet
Substitution2: "'ss01' Style Set 1 lookup 6 subtable" uni5B66_uniFE00
Substitution2: "'aalt' Access All Alternates lookup 0 subtable" uni5B66_uniFE00
EndChar

StartChar: uni5C0F
Encoding: 23567 23567 232
Width: 120
GlyphClass: 1
Flags: W
LayerCount: 2
Fore
SplineSet
60 10 m 1,0,-1
 50 10 l 1,1,-1
 50 120 l 1,2,-1
 60 120 l 1,3,-1
 60 10 l 1,0,-1
80 80 m 1,4,-1
 70 80 l 1,5,-1
 70 90 l 1,6,-1
 80 90 l 1,7,-1
 80 80 l 1,8,-1
 90 80 l 1,9,-1
 90 70 l 1,10,-1
 100 70 l 1,11,-1
 100 60 l 1,12,-1
 110 60 l 1,13,-1
 110 40 l 1,14,-1
 100 40 l 1,15,-1
 100 60 l 1,16,-1
 90 60 l 1,17,-1
 90 70 l 1,18,-1
 80 70 l 1,19,-1
 80 80 l 1,4,-1
0 40 m 1,20,-1
 0 50 l 1,21,-1
 10 50 l 1,22,-1
 10 60 l 1,23,-1
 20 60 l 1,24,-1
 20 70 l 1,25,-1
 30 70 l 1,26,-1
 30 90 l 1,27,-1
 40 90 l 1,28,-1
 40 70 l 1,29,-1
 30 70 l 1,30,-1
 30 60 l 1,31,-1
 20 60 l 1,32,-1
 20 50 l 1,33,-1
 10 50 l 1,34,-1
 10 40 l 1,35,-1
 0 40 l 1,20,-1
30 10 m 1,36,-1
 30 20 l 1,37,-1
 40 20 l 1,38,-1
 40 10 l 1,39,-1
 50 10 l 1,40,-1
 50 0 l 1,41,-1
 40 0 l 1,42,-1
 40 10 l 1,43,-1
 30 10 l 1,36,-1
EndSplineSet
Substitution2: "'ss01' Style Set 1 lookup 6 subtable" uni5C0F_uniFE00
Substitution2: "'aalt' Access All Alternates lookup 0 subtable" uni5C0F_uniFE00
EndChar

StartChar: uni679C
Encoding: 26524 26524 233
Width: 120
GlyphClass: 1
Flags: W
LayerCount: 2
Fore
SplineSet
0 60 m 1,0,-1
 50 60 l 1,1,-1
 50 70 l 1,2,-1
 10 70 l 1,3,-1
 10 120 l 1,4,-1
 100 120 l 1,5,-1
 100 70 l 1,6,-1
 60 70 l 1,7,-1
 60 60 l 1,8,-1
 110 60 l 1,9,-1
 110 50 l 1,10,-1
 70 50 l 1,11,-1
 70 40 l 1,12,-1
 80 40 l 1,13,-1
 80 30 l 1,14,-1
 90 30 l 1,15,-1
 90 20 l 1,16,-1
 110 20 l 1,17,-1
 110 10 l 1,18,-1
 90 10 l 1,19,-1
 90 20 l 1,20,-1
 80 20 l 1,21,-1
 80 30 l 1,22,-1
 70 30 l 1,23,-1
 70 40 l 1,24,-1
 60 40 l 1,25,-1
 60 0 l 1,26,-1
 50 0 l 1,27,-1
 50 40 l 1,28,-1
 40 40 l 1,29,-1
 40 30 l 1,30,-1
 30 30 l 1,31,-1
 30 20 l 1,32,-1
 20 20 l 1,33,-1
 20 10 l 1,34,-1
 0 10 l 1,35,-1
 0 20 l 1,36,-1
 20 20 l 1,37,-1
 20 30 l 1,38,-1
 30 30 l 1,39,-1
 30 40 l 1,40,-1
 40 40 l 1,41,-1
 40 50 l 1,42,-1
 0 50 l 1,43,-1
 0 60 l 1,0,-1
90 110 m 1,44,-1
 60 110 l 1,45,-1
 60 100 l 1,46,-1
 90 100 l 1,47,-1
 90 110 l 1,44,-1
50 110 m 1,48,-1
 20 110 l 1,49,-1
 20 100 l 1,50,-1
 50 100 l 1,51,-1
 50 110 l 1,48,-1
60 80 m 1,52,-1
 90 80 l 1,53,-1
 90 90 l 1,54,-1
 60 90 l 1,55,-1
 60 80 l 1,52,-1
20 80 m 1,56,-1
 50 80 l 1,57,-1
 50 90 l 1,58,-1
 20 90 l 1,59,-1
 20 80 l 1,56,-1
EndSplineSet
Substitution2: "'ss01' Style Set 1 lookup 6 subtable" uni679C_uniFE00
Substitution2: "'aalt' Access All Alternates lookup 0 subtable" uni679C_uniFE00
EndChar

StartChar: uni7ED3
Encoding: 32467 32467 234
Width: 120
GlyphClass: 1
Flags: W
LayerCount: 2
Fore
SplineSet
40 90 m 1,0,-1
 40 80 l 1,1,-1
 30 80 l 1,2,-1
 30 90 l 1,3,-1
 40 90 l 1,4,-1
 40 100 l 1,5,-1
 70 100 l 1,6,-1
 70 120 l 1,7,-1
 80 120 l 1,8,-1
 80 100 l 1,9,-1
 110 100 l 1,10,-1
 110 90 l 1,11,-1
 80 90 l 1,12,-1
 80 70 l 1,13,-1
 100 70 l 1,14,-1
 100 60 l 1,15,-1
 50 60 l 1,16,-1
 50 70 l 1,17,-1
 70 70 l 1,18,-1
 70 90 l 1,19,-1
 40 90 l 1,0,-1
20 60 m 1,20,-1
 20 70 l 1,21,-1
 0 70 l 1,22,-1
 0 90 l 1,23,-1
 10 90 l 1,24,-1
 10 100 l 1,25,-1
 20 100 l 1,26,-1
 20 120 l 1,27,-1
 30 120 l 1,28,-1
 30 100 l 1,29,-1
 20 100 l 1,30,-1
 20 90 l 1,31,-1
 10 90 l 1,32,-1
 10 80 l 1,33,-1
 30 80 l 1,34,-1
 30 60 l 1,35,-1
 40 60 l 1,36,-1
 40 50 l 1,37,-1
 30 50 l 1,38,-1
 30 60 l 1,39,-1
 20 60 l 1,40,-1
 20 50 l 1,41,-1
 30 50 l 1,42,-1
 30 40 l 1,43,-1
 0 40 l 1,44,-1
 0 50 l 1,45,-1
 10 50 l 1,46,-1
 10 60 l 1,47,-1
 20 60 l 1,20,-1
50 0 m 1,48,-1
 50 50 l 1,49,-1
 100 50 l 1,50,-1
 100 0 l 1,51,-1
 90 0 l 1,52,-1
 90 10 l 1,53,-1
 60 10 l 1,54,-1
 60 0 l 1,55,-1
 50 0 l 1,48,-1
60 40 m 1,56,-1
 60 20 l 1,57,-1
 90 20 l 1,58,-1
 90 40 l 1,59,-1
 60 40 l 1,56,-1
20 20 m 1,60,-1
 20 10 l 1,61,-1
 0 10 l 1,62,-1
 0 20 l 1,63,-1
 20 20 l 1,64,-1
 20 30 l 1,65,-1
 40 30 l 1,66,-1
 40 20 l 1,67,-1
 20 20 l 1,60,-1
EndSplineSet
EndChar

StartChar: uni5206
Encoding: 20998 20998 235
Width: 120
GlyphClass: 1
Flags: W
LayerCount: 2
Fore
SplineSet
10 60 m 1,0,-1
 0 60 l 1,1,-1
 0 70 l 1,2,-1
 10 70 l 1,3,-1
 10 80 l 1,4,-1
 20 80 l 1,5,-1
 20 100 l 1,6,-1
 30 100 l 1,7,-1
 30 120 l 1,8,-1
 40 120 l 1,9,-1
 40 100 l 1,10,-1
 30 100 l 1,11,-1
 30 80 l 1,12,-1
 80 80 l 1,13,-1
 80 100 l 1,14,-1
 70 100 l 1,15,-1
 70 120 l 1,16,-1
 80 120 l 1,17,-1
 80 100 l 1,18,-1
 90 100 l 1,19,-1
 90 80 l 1,20,-1
 100 80 l 1,21,-1
 100 70 l 1,22,-1
 110 70 l 1,23,-1
 110 60 l 1,24,-1
 100 60 l 1,25,-1
 100 70 l 1,26,-1
 90 70 l 1,27,-1
 90 20 l 1,28,-1
 80 20 l 1,29,-1
 80 10 l 1,30,-1
 70 10 l 1,31,-1
 70 20 l 1,32,-1
 80 20 l 1,33,-1
 80 70 l 1,34,-1
 50 70 l 1,35,-1
 50 40 l 1,36,-1
 40 40 l 1,37,-1
 40 20 l 1,38,-1
 30 20 l 1,39,-1
 30 10 l 1,40,-1
 20 10 l 1,41,-1
 20 0 l 1,42,-1
 10 0 l 1,43,-1
 10 10 l 1,44,-1
 20 10 l 1,45,-1
 20 20 l 1,46,-1
 30 20 l 1,47,-1
 30 40 l 1,48,-1
 40 40 l 1,49,-1
 40 70 l 1,50,-1
 10 70 l 1,51,-1
 10 60 l 1,0,-1
70 10 m 1,52,-1
 70 0 l 1,53,-1
 60 0 l 1,54,-1
 60 10 l 1,55,-1
 50 10 l 1,56,-1
 50 20 l 1,57,-1
 60 20 l 1,58,-1
 60 10 l 1,59,-1
 70 10 l 1,52,-1
EndSplineSet
Substitution2: "'ss01' Style Set 1 lookup 6 subtable" uni5206_uniFE00
Substitution2: "'aalt' Access All Alternates lookup 0 subtable" uni5206_uniFE00
EndChar

StartChar: uni5F27
Encoding: 24359 24359 236
Width: 120
GlyphClass: 1
Flags: W
LayerCount: 2
Fore
SplineSet
0 90 m 1,0,-1
 20 90 l 1,1,-1
 20 110 l 1,2,-1
 0 110 l 1,3,-1
 0 120 l 1,4,-1
 30 120 l 1,5,-1
 30 80 l 1,6,-1
 10 80 l 1,7,-1
 10 60 l 1,8,-1
 30 60 l 1,9,-1
 30 10 l 1,10,-1
 40 10 l 1,11,-1
 40 0 l 1,12,-1
 30 0 l 1,13,-1
 30 10 l 1,14,-1
 20 10 l 1,15,-1
 20 0 l 1,16,-1
 10 0 l 1,17,-1
 10 10 l 1,18,-1
 0 10 l 1,19,-1
 0 20 l 1,20,-1
 10 20 l 1,21,-1
 10 10 l 1,22,-1
 20 10 l 1,23,-1
 20 50 l 1,24,-1
 0 50 l 1,25,-1
 0 90 l 1,0,-1
70 110 m 1,26,-1
 70 120 l 1,27,-1
 100 120 l 1,28,-1
 100 110 l 1,29,-1
 90 110 l 1,30,-1
 90 50 l 1,31,-1
 100 50 l 1,32,-1
 100 10 l 1,33,-1
 110 10 l 1,34,-1
 110 0 l 1,35,-1
 100 0 l 1,36,-1
 100 10 l 1,37,-1
 90 10 l 1,38,-1
 90 20 l 1,39,-1
 70 20 l 1,40,-1
 70 10 l 1,41,-1
 60 10 l 1,42,-1
 60 100 l 1,43,-1
 50 100 l 1,44,-1
 50 10 l 1,45,-1
 40 10 l 1,46,-1
 40 110 l 1,47,-1
 70 110 l 1,26,-1
70 110 m 1,48,-1
 70 40 l 1,49,-1
 80 40 l 1,50,-1
 80 30 l 1,51,-1
 90 30 l 1,52,-1
 90 50 l 1,53,-1
 80 50 l 1,54,-1
 80 110 l 1,55,-1
 70 110 l 1,48,-1
EndSplineSet
Substitution2: "'ss01' Style Set 1 lookup 6 subtable" uni5F27_uniFE00
Substitution2: "'aalt' Access All Alternates lookup 0 subtable" uni5F27_uniFE00
EndChar

StartChar: uni767E
Encoding: 30334 30334 237
Width: 120
GlyphClass: 1
Flags: W
LayerCount: 2
Fore
SplineSet
40 110 m 1,0,-1
 0 110 l 1,1,-1
 0 120 l 1,2,-1
 110 120 l 1,3,-1
 110 110 l 1,4,-1
 50 110 l 1,5,-1
 50 100 l 1,6,-1
 40 100 l 1,7,-1
 40 90 l 1,8,-1
 100 90 l 1,9,-1
 100 0 l 1,10,-1
 90 0 l 1,11,-1
 90 10 l 1,12,-1
 20 10 l 1,13,-1
 20 0 l 1,14,-1
 10 0 l 1,15,-1
 10 90 l 1,16,-1
 30 90 l 1,17,-1
 30 100 l 1,18,-1
 40 100 l 1,19,-1
 40 110 l 1,0,-1
90 80 m 1,20,-1
 20 80 l 1,21,-1
 20 60 l 1,22,-1
 90 60 l 1,23,-1
 90 80 l 1,20,-1
20 50 m 1,24,-1
 20 21 l 1,25,-1
 90 21 l 1,26,-1
 90 50 l 1,27,-1
 20 50 l 1,24,-1
EndSplineSet
EndChar

StartChar: uni65B9
Encoding: 26041 26041 238
Width: 120
GlyphClass: 1
Flags: W
LayerCount: 2
Fore
SplineSet
0 0 m 1,0,-1
 0 10 l 1,1,-1
 10 10 l 1,2,-1
 10 20 l 1,3,-1
 20 20 l 1,4,-1
 20 40 l 1,5,-1
 30 40 l 1,6,-1
 30 90 l 1,7,-1
 0 90 l 1,8,-1
 0 100 l 1,9,-1
 50 100 l 1,10,-1
 50 110 l 1,11,-1
 40 110 l 1,12,-1
 40 120 l 1,13,-1
 50 120 l 1,14,-1
 50 110 l 1,15,-1
 60 110 l 1,16,-1
 60 100 l 1,17,-1
 110 100 l 1,18,-1
 110 90 l 1,19,-1
 40 90 l 1,20,-1
 40 70 l 1,21,-1
 90 70 l 1,22,-1
 90 10 l 1,23,-1
 80 10 l 1,24,-1
 80 60 l 1,25,-1
 40 60 l 1,26,-1
 40 40 l 1,27,-1
 30 40 l 1,28,-1
 30 20 l 1,29,-1
 20 20 l 1,30,-1
 20 10 l 1,31,-1
 10 10 l 1,32,-1
 10 0 l 1,33,-1
 0 0 l 1,0,-1
80 10 m 1,34,-1
 80 0 l 1,35,-1
 70 0 l 1,36,-1
 70 10 l 1,37,-1
 60 10 l 1,38,-1
 60 20 l 1,39,-1
 70 20 l 1,40,-1
 70 10 l 1,41,-1
 80 10 l 1,34,-1
EndSplineSet
Substitution2: "'ss01' Style Set 1 lookup 6 subtable" uni65B9_uniFE00
Substitution2: "'aalt' Access All Alternates lookup 0 subtable" uni65B9_uniFE00
EndChar

StartChar: uni7EDF
Encoding: 32479 32479 239
Width: 120
GlyphClass: 1
Flags: W
LayerCount: 2
Fore
SplineSet
0 40 m 1,0,-1
 0 50 l 1,1,-1
 10 50 l 1,2,-1
 10 60 l 1,3,-1
 20 60 l 1,4,-1
 20 70 l 1,5,-1
 0 70 l 1,6,-1
 0 90 l 1,7,-1
 10 90 l 1,8,-1
 10 100 l 1,9,-1
 20 100 l 1,10,-1
 20 120 l 1,11,-1
 30 120 l 1,12,-1
 30 100 l 1,13,-1
 20 100 l 1,14,-1
 20 90 l 1,15,-1
 10 90 l 1,16,-1
 10 80 l 1,17,-1
 30 80 l 1,18,-1
 30 90 l 1,19,-1
 40 90 l 1,20,-1
 40 100 l 1,21,-1
 70 100 l 1,22,-1
 70 110 l 1,23,-1
 60 110 l 1,24,-1
 60 120 l 1,25,-1
 70 120 l 1,26,-1
 70 110 l 1,27,-1
 80 110 l 1,28,-1
 80 100 l 1,29,-1
 110 100 l 1,30,-1
 110 90 l 1,31,-1
 80 90 l 1,32,-1
 80 80 l 1,33,-1
 70 80 l 1,34,-1
 70 70 l 1,35,-1
 90 70 l 1,36,-1
 90 80 l 1,37,-1
 100 80 l 1,38,-1
 100 70 l 1,39,-1
 110 70 l 1,40,-1
 110 50 l 1,41,-1
 100 50 l 1,42,-1
 100 60 l 1,43,-1
 90 60 l 1,44,-1
 90 10 l 1,45,-1
 100 10 l 1,46,-1
 100 30 l 1,47,-1
 110 30 l 1,48,-1
 110 0 l 1,49,-1
 90 0 l 1,50,-1
 90 10 l 1,51,-1
 80 10 l 1,52,-1
 80 60 l 1,53,-1
 70 60 l 1,54,-1
 70 30 l 1,55,-1
 60 30 l 1,56,-1
 60 10 l 1,57,-1
 50 10 l 1,58,-1
 50 0 l 1,59,-1
 40 0 l 1,60,-1
 40 10 l 1,61,-1
 50 10 l 1,62,-1
 50 30 l 1,63,-1
 60 30 l 1,64,-1
 60 60 l 1,65,-1
 50 60 l 1,66,-1
 50 70 l 1,67,-1
 60 70 l 1,68,-1
 60 80 l 1,69,-1
 70 80 l 1,70,-1
 70 90 l 1,71,-1
 40 90 l 1,72,-1
 40 70 l 1,73,-1
 30 70 l 1,74,-1
 30 60 l 1,75,-1
 20 60 l 1,76,-1
 20 50 l 1,77,-1
 40 50 l 1,78,-1
 40 40 l 1,79,-1
 0 40 l 1,0,-1
20 10 m 1,80,-1
 0 10 l 1,81,-1
 0 20 l 1,82,-1
 20 20 l 1,83,-1
 20 30 l 1,84,-1
 40 30 l 1,85,-1
 40 20 l 1,86,-1
 20 20 l 1,87,-1
 20 10 l 1,80,-1
EndSplineSet
EndChar

StartChar: uni884C
Encoding: 34892 34892 240
Width: 120
GlyphClass: 1
Flags: W
LayerCount: 2
Fore
SplineSet
10 80 m 1,0,-1
 0 80 l 1,1,-1
 0 90 l 1,2,-1
 10 90 l 1,3,-1
 10 100 l 1,4,-1
 20 100 l 1,5,-1
 20 110 l 1,6,-1
 30 110 l 1,7,-1
 30 120 l 1,8,-1
 40 120 l 1,9,-1
 40 110 l 1,10,-1
 30 110 l 1,11,-1
 30 100 l 1,12,-1
 20 100 l 1,13,-1
 20 90 l 1,14,-1
 10 90 l 1,15,-1
 10 80 l 1,0,-1
60 110 m 1,16,-1
 100 110 l 1,17,-1
 100 100 l 1,18,-1
 60 100 l 1,19,-1
 60 110 l 1,16,-1
0 50 m 1,20,-1
 10 50 l 1,21,-1
 10 60 l 1,22,-1
 20 60 l 1,23,-1
 20 70 l 1,24,-1
 30 70 l 1,25,-1
 30 80 l 1,26,-1
 40 80 l 1,27,-1
 40 90 l 1,28,-1
 50 90 l 1,29,-1
 50 80 l 1,30,-1
 40 80 l 1,31,-1
 40 70 l 1,32,-1
 30 70 l 1,33,-1
 30 0 l 1,34,-1
 20 0 l 1,35,-1
 20 50 l 1,36,-1
 10 50 l 1,37,-1
 10 40 l 1,38,-1
 0 40 l 1,39,-1
 0 50 l 1,20,-1
50 60 m 1,40,-1
 50 70 l 1,41,-1
 110 70 l 1,42,-1
 110 60 l 1,43,-1
 90 60 l 1,44,-1
 90 10 l 1,45,-1
 80 10 l 1,46,-1
 80 60 l 1,47,-1
 50 60 l 1,40,-1
80 10 m 1,48,-1
 80 0 l 1,49,-1
 70 0 l 1,50,-1
 70 10 l 1,51,-1
 60 10 l 1,52,-1
 60 20 l 1,53,-1
 70 20 l 1,54,-1
 70 10 l 1,55,-1
 80 10 l 1,48,-1
EndSplineSet
Substitution2: "'ss01' Style Set 1 lookup 6 subtable" uni884C_uniFE00
Substitution2: "'aalt' Access All Alternates lookup 0 subtable" uni884C_uniFE00
EndChar

StartChar: uni591A
Encoding: 22810 22810 241
Width: 120
GlyphClass: 1
Flags: W
LayerCount: 2
Fore
SplineSet
0 0 m 1,0,-1
 0 10 l 1,1,-1
 30 10 l 1,2,-1
 30 20 l 1,3,-1
 50 20 l 1,4,-1
 50 30 l 1,5,-1
 40 30 l 1,6,-1
 40 40 l 1,7,-1
 30 40 l 1,8,-1
 30 30 l 1,9,-1
 10 30 l 1,10,-1
 10 40 l 1,11,-1
 30 40 l 1,12,-1
 30 50 l 1,13,-1
 40 50 l 1,14,-1
 40 60 l 1,15,-1
 10 60 l 1,16,-1
 10 70 l 1,17,-1
 40 70 l 1,18,-1
 40 80 l 1,19,-1
 50 80 l 1,20,-1
 50 90 l 1,21,-1
 40 90 l 1,22,-1
 40 100 l 1,23,-1
 30 100 l 1,24,-1
 30 90 l 1,25,-1
 10 90 l 1,26,-1
 10 100 l 1,27,-1
 30 100 l 1,28,-1
 30 110 l 1,29,-1
 40 110 l 1,30,-1
 40 120 l 1,31,-1
 50 120 l 1,32,-1
 50 110 l 1,33,-1
 100 110 l 1,34,-1
 100 100 l 1,35,-1
 90 100 l 1,36,-1
 90 90 l 1,37,-1
 80 90 l 1,38,-1
 80 80 l 1,39,-1
 70 80 l 1,40,-1
 70 90 l 1,41,-1
 80 90 l 1,42,-1
 80 100 l 1,43,-1
 50 100 l 1,44,-1
 50 90 l 1,45,-1
 60 90 l 1,46,-1
 60 80 l 1,47,-1
 70 80 l 1,48,-1
 70 70 l 1,49,-1
 60 70 l 1,50,-1
 60 60 l 1,51,-1
 100 60 l 1,52,-1
 100 50 l 1,53,-1
 90 50 l 1,54,-1
 90 40 l 1,55,-1
 80 40 l 1,56,-1
 80 30 l 1,57,-1
 70 30 l 1,58,-1
 70 40 l 1,59,-1
 80 40 l 1,60,-1
 80 50 l 1,61,-1
 40 50 l 1,62,-1
 40 40 l 1,63,-1
 50 40 l 1,64,-1
 50 30 l 1,65,-1
 70 30 l 1,66,-1
 70 20 l 1,67,-1
 60 20 l 1,68,-1
 60 10 l 1,69,-1
 30 10 l 1,70,-1
 30 0 l 1,71,-1
 0 0 l 1,0,-1
50 60 m 1,72,-1
 50 70 l 1,73,-1
 40 70 l 1,74,-1
 40 60 l 1,75,-1
 50 60 l 1,72,-1
EndSplineSet
EndChar

StartChar: uni4F53
Encoding: 20307 20307 242
Width: 120
GlyphClass: 1
Flags: W
LayerCount: 2
Fore
SplineSet
0 80 m 1,0,-1
 10 80 l 1,1,-1
 10 100 l 1,2,-1
 20 100 l 1,3,-1
 20 120 l 1,4,-1
 30 120 l 1,5,-1
 30 100 l 1,6,-1
 60 100 l 1,7,-1
 60 120 l 1,8,-1
 70 120 l 1,9,-1
 70 100 l 1,10,-1
 100 100 l 1,11,-1
 100 90 l 1,12,-1
 70 90 l 1,13,-1
 70 80 l 1,14,-1
 80 80 l 1,15,-1
 80 70 l 1,16,-1
 90 70 l 1,17,-1
 90 50 l 1,18,-1
 100 50 l 1,19,-1
 100 40 l 1,20,-1
 110 40 l 1,21,-1
 110 30 l 1,22,-1
 100 30 l 1,23,-1
 100 40 l 1,24,-1
 90 40 l 1,25,-1
 90 30 l 1,26,-1
 70 30 l 1,27,-1
 70 0 l 1,28,-1
 60 0 l 1,29,-1
 60 30 l 1,30,-1
 40 30 l 1,31,-1
 40 40 l 1,32,-1
 30 40 l 1,33,-1
 30 30 l 1,34,-1
 20 30 l 1,35,-1
 20 0 l 1,36,-1
 10 0 l 1,37,-1
 10 70 l 1,38,-1
 0 70 l 1,39,-1
 0 80 l 1,0,-1
20 40 m 1,40,-1
 30 40 l 1,41,-1
 30 50 l 1,42,-1
 40 50 l 1,43,-1
 40 40 l 1,44,-1
 60 40 l 1,45,-1
 60 70 l 1,46,-1
 50 70 l 1,47,-1
 50 80 l 1,48,-1
 60 80 l 1,49,-1
 60 90 l 1,50,-1
 30 90 l 1,51,-1
 30 100 l 1,52,-1
 20 100 l 1,53,-1
 20 40 l 1,40,-1
70 40 m 1,54,-1
 90 40 l 1,55,-1
 90 50 l 1,56,-1
 80 50 l 1,57,-1
 80 70 l 1,58,-1
 70 70 l 1,59,-1
 70 40 l 1,54,-1
40 70 m 1,60,-1
 50 70 l 1,61,-1
 50 50 l 1,62,-1
 40 50 l 1,63,-1
 40 70 l 1,60,-1
EndSplineSet
Substitution2: "'ss01' Style Set 1 lookup 6 subtable" uni4F53_uniFE00
Substitution2: "'aalt' Access All Alternates lookup 0 subtable" uni4F53_uniFE00
EndChar

StartChar: uni8868
Encoding: 34920 34920 243
Width: 120
GlyphClass: 1
Flags: W
LayerCount: 2
Fore
SplineSet
30 50 m 1,0,-1
 0 50 l 1,1,-1
 0 60 l 1,2,-1
 50 60 l 1,3,-1
 50 70 l 1,4,-1
 20 70 l 1,5,-1
 20 80 l 1,6,-1
 50 80 l 1,7,-1
 50 90 l 1,8,-1
 10 90 l 1,9,-1
 10 100 l 1,10,-1
 50 100 l 1,11,-1
 50 120 l 1,12,-1
 60 120 l 1,13,-1
 60 100 l 1,14,-1
 100 100 l 1,15,-1
 100 90 l 1,16,-1
 60 90 l 1,17,-1
 60 80 l 1,18,-1
 90 80 l 1,19,-1
 90 70 l 1,20,-1
 60 70 l 1,21,-1
 60 60 l 1,22,-1
 110 60 l 1,23,-1
 110 50 l 1,24,-1
 100 50 l 1,25,-1
 100 40 l 1,26,-1
 90 40 l 1,27,-1
 90 30 l 1,28,-1
 80 30 l 1,29,-1
 80 40 l 1,30,-1
 90 40 l 1,31,-1
 90 50 l 1,32,-1
 60 50 l 1,33,-1
 60 40 l 1,34,-1
 70 40 l 1,35,-1
 70 30 l 1,36,-1
 80 30 l 1,37,-1
 80 20 l 1,38,-1
 90 20 l 1,39,-1
 90 10 l 1,40,-1
 110 10 l 1,41,-1
 110 0 l 1,42,-1
 90 0 l 1,43,-1
 90 10 l 1,44,-1
 80 10 l 1,45,-1
 80 20 l 1,46,-1
 70 20 l 1,47,-1
 70 30 l 1,48,-1
 60 30 l 1,49,-1
 60 40 l 1,50,-1
 50 40 l 1,51,-1
 50 50 l 1,52,-1
 40 50 l 1,53,-1
 40 10 l 1,54,-1
 50 10 l 1,55,-1
 50 0 l 1,56,-1
 30 0 l 1,57,-1
 30 30 l 1,58,-1
 20 30 l 1,59,-1
 20 20 l 1,60,-1
 10 20 l 1,61,-1
 10 10 l 1,62,-1
 0 10 l 1,63,-1
 0 20 l 1,64,-1
 10 20 l 1,65,-1
 10 30 l 1,66,-1
 20 30 l 1,67,-1
 20 40 l 1,68,-1
 30 40 l 1,69,-1
 30 50 l 1,0,-1
60 10 m 1,70,-1
 50 10 l 1,71,-1
 50 20 l 1,72,-1
 60 20 l 1,73,-1
 60 10 l 1,70,-1
EndSplineSet
Substitution2: "'ss01' Style Set 1 lookup 6 subtable" uni8868_uniFE00
Substitution2: "'aalt' Access All Alternates lookup 0 subtable" uni8868_uniFE00
EndChar

StartChar: uni70B9
Encoding: 28857 28857 244
Width: 120
GlyphClass: 1
Flags: W
LayerCount: 2
Fore
SplineSet
20 40 m 1,0,-1
 20 80 l 1,1,-1
 50 80 l 1,2,-1
 50 120 l 1,3,-1
 60 120 l 1,4,-1
 60 110 l 1,5,-1
 100 110 l 1,6,-1
 100 100 l 1,7,-1
 60 100 l 1,8,-1
 60 80 l 1,9,-1
 90 80 l 1,10,-1
 90 40 l 1,11,-1
 20 40 l 1,0,-1
80 70 m 1,12,-1
 30 70 l 1,13,-1
 30 50 l 1,14,-1
 80 50 l 1,15,-1
 80 70 l 1,12,-1
60 30 m 1,16,-1
 70 30 l 1,17,-1
 70 20 l 1,18,-1
 80 20 l 1,19,-1
 80 0 l 1,20,-1
 70 0 l 1,21,-1
 70 20 l 1,22,-1
 60 20 l 1,23,-1
 60 30 l 1,16,-1
90 30 m 1,24,-1
 100 30 l 1,25,-1
 100 20 l 1,26,-1
 110 20 l 1,27,-1
 110 0 l 1,28,-1
 100 0 l 1,29,-1
 100 20 l 1,30,-1
 90 20 l 1,31,-1
 90 30 l 1,24,-1
10 0 m 1,32,-1
 0 0 l 1,33,-1
 0 10 l 1,34,-1
 10 10 l 1,35,-1
 10 30 l 1,36,-1
 20 30 l 1,37,-1
 20 10 l 1,38,-1
 10 10 l 1,39,-1
 10 0 l 1,32,-1
30 20 m 1,40,-1
 30 30 l 1,41,-1
 40 30 l 1,42,-1
 40 20 l 1,43,-1
 50 20 l 1,44,-1
 50 0 l 1,45,-1
 40 0 l 1,46,-1
 40 20 l 1,47,-1
 30 20 l 1,40,-1
EndSplineSet
Substitution2: "'ss01' Style Set 1 lookup 6 subtable" uni70B9_uniFE00
Substitution2: "'aalt' Access All Alternates lookup 0 subtable" uni70B9_uniFE00
EndChar

